<?xml version="1.0" standalone="no"?>
<!DOCTYPE svg PUBLIC "-//W3C//DTD SVG 1.1//EN" "http://www.w3.org/Graphics/SVG/1.1/DTD/svg11.dtd" >
<svg xmlns="http://www.w3.org/2000/svg" xmlns:xlink="http://www.w3.org/1999/xlink" version="1.1">
<metadata>
Created by FontForge 20170731 at Thu Jan 12 02:58:18 2012
 By Aleksey,,,
Copyright (c) 1997 - 2011, John Vargas Beltran. (www.johnvargasbeltran.com|john.vargasbeltran@gmail.com), with Reserved Font Name "Macondo"
</metadata>
<defs>
<font id="Macondo-Regular" horiz-adv-x="712" >
  <font-face 
    font-family="Macondo"
    font-weight="400"
    font-stretch="normal"
    units-per-em="1000"
    panose-1="2 0 0 0 0 0 0 0 0 0"
    ascent="800"
    descent="-200"
    x-height="456"
    cap-height="696"
    bbox="-266 -292 974 888"
    underline-thickness="50"
    underline-position="-150"
    unicode-range="U+0020-FB02"
  />
<missing-glyph horiz-adv-x="300" 
 />
    <glyph glyph-name=".notdef" horiz-adv-x="300" 
 />
    <glyph glyph-name=".null" unicode="&#xe000;" horiz-adv-x="0" 
 />
    <glyph glyph-name="nonmarkingreturn" horiz-adv-x="333" 
 />
    <glyph glyph-name="space" unicode=" " horiz-adv-x="300" 
 />
    <glyph glyph-name="exclam" unicode="!" horiz-adv-x="239" 
d="M74.5 7.5q-14.5 13.5 -14.5 40t18.5 46t44 19.5t41 -14.5t15.5 -41t-19.5 -45t-45 -18.5t-40 13.5zM124 696q21 0 35 -15t14 -32t-11 -148t-11 -275q0 -12 -8 -20.5t-19 -8.5t-18.5 8.5t-7.5 20.5q0 144 -11 275t-11 148t13.5 32t34.5 15z" />
    <glyph glyph-name="quotedbl" unicode="&#x22;" horiz-adv-x="353" 
d="M66 492q-10 0 -10 11q0 8 10 26.5t10 37.5t-10.5 40t-10.5 43t13 34t35 12q38 0 38 -47.5t-28 -102t-47 -54.5zM226 492q-10 0 -10 11q0 8 10 26.5t10 37.5t-10.5 40t-10.5 43t13 34t35 12q38 0 38 -47.5t-28 -102t-47 -54.5z" />
    <glyph glyph-name="numbersign" unicode="#" horiz-adv-x="693" 
d="M236 417q-100 -5 -102 -5q-39 0 -39 37t39 37q6 0 114 -6l8 40q4 24 6.5 38t6.5 33t7 30.5t7 25t8.5 21.5t9.5 15q9 13 25 13q38 0 38 -44q0 -22 -23.5 -81t-34.5 -93h65q54 0 77 1l8 40q4 24 6.5 38t6.5 33t7 30.5t7 25.5t8.5 21.5t9.5 14.5q9 14 25 14q38 0 38 -44
q0 -24 -23 -81.5t-34 -89.5q95 5 102 5q39 0 39 -37t-39 -37q-6 0 -122 6q-9 -28 -19 -75l-12 -52q100 5 103 5q39 0 39 -37t-39 -37l-115 5q-12 -62 -15.5 -85t-7.5 -44t-7 -32.5t-7 -25t-8.5 -20.5t-9.5 -14q-9 -12 -26 -12q-38 0 -38 39q0 16 6 34.5t22.5 65.5t31.5 96
q-19 1 -64 1l-77 -1q-12 -64 -15.5 -86.5t-7.5 -43.5t-7 -32.5t-7 -25.5t-8.5 -21t-9.5 -14q-9 -12 -26 -12q-38 0 -38 39q0 16 5.5 34.5t22.5 65t32 94.5q-95 -5 -101 -5q-39 0 -39 37t39 37q5 0 119 -6zM371 420l-84 -1q-27 -104 -31 -131h65q58 0 82 1l21 77t12 53
q-19 1 -65 1z" />
    <glyph glyph-name="dollar" unicode="$" horiz-adv-x="423" 
d="M73 69q-23 15 -23 37.5t13.5 36t27 13.5t44.5 -12t64.5 -12t67.5 21.5t34 52t-25.5 47t-61.5 27t-72 23.5t-61.5 39t-25.5 66.5t35.5 81.5t89.5 65q-1 18 -1 43q0 44 33 44q13 0 21.5 -9.5t8.5 -24.5v-35q16 3 45 3t50.5 -14.5t21.5 -37.5t-13.5 -36.5t-27 -13.5
t-44.5 12t-64.5 12t-58 -18.5t-24.5 -41.5t25.5 -37.5t61.5 -25t72 -24t61.5 -41.5t25.5 -71.5t-38 -88.5t-95 -71q1 -19 1 -42.5t-8.5 -33t-22.5 -9.5t-23.5 10t-9.5 25v29q-20 -4 -50.5 -4t-53.5 15z" />
    <glyph glyph-name="percent" unicode="%" horiz-adv-x="773" 
d="M50 443q0 81 50.5 140t125.5 59q53 0 85 -37t32 -88q0 -82 -50.5 -140.5t-125.5 -58.5q-53 0 -85 36.5t-32 88.5zM260 406.5q26 29.5 26 73t-26 74t-63.5 30.5t-63.5 -30.5t-26 -74t26 -73t63.5 -29.5t63.5 29.5zM430 119q0 81 50.5 140t125.5 59q53 0 85 -37t32 -88
q0 -82 -50.5 -140.5t-125.5 -58.5q-53 0 -85 36.5t-32 88.5zM640 82.5q26 29.5 26 73t-26 74t-63.5 30.5t-63.5 -30.5t-26 -74t26 -73t63.5 -29.5t63.5 29.5zM638 598q0 -21 -21.5 -49.5t-82 -98.5t-104 -127t-81.5 -111t-61.5 -89t-47.5 -67q-46 -62 -77 -62q-38 0 -38 39
q0 18 29.5 55.5t96 114t113.5 140.5t102.5 149t83 117.5t50.5 32.5q38 0 38 -44z" />
    <glyph glyph-name="ampersand" unicode="&#x26;" horiz-adv-x="772" 
d="M199 -6q-75 0 -127 46.5t-52 128t101 166.5q-61 96 -61 161q0 87 64.5 143.5t143.5 56.5q54 0 96.5 -32t42.5 -94q0 -90 -85 -159q-37 -31 -100 -71q62 -85 159 -166q17 22 47.5 66.5t50.5 71t47 56.5q55 61 111 61q35 0 59.5 -29.5t24.5 -68.5q0 -60 -42 -102t-78 -42
q-18 0 -30.5 12t-12.5 31t14 34t27 15t23 -7t21 -7t22 13.5t11 31.5t-14.5 34.5t-42 16.5t-54 -29.5t-68.5 -95.5t-67 -98q118 -81 187 -81q26 0 42 11.5t27 22.5t21 11t15 -6t5 -15.5t-17.5 -29.5t-56 -38.5t-85.5 -18.5q-80 0 -193 80q-83 -80 -176 -80zM332 532
q0 52 -28 78t-67 26t-67.5 -30t-28.5 -72q0 -65 48 -149q48 31 72 48t47.5 45t23.5 54zM102 197q0 -63 38.5 -102t88 -39t100.5 54q-94 77 -174 179q-53 -46 -53 -92z" />
    <glyph glyph-name="quotesingle" unicode="'" horiz-adv-x="193" 
d="M66 492q-10 0 -10 11q0 8 10 26.5t10 37.5t-10.5 40t-10.5 43t13 34t35 12q38 0 38 -47.5t-28 -102t-47 -54.5z" />
    <glyph glyph-name="parenleft" unicode="(" horiz-adv-x="340" 
d="M258 750q17 0 17 -16q0 -7 -8 -17q-35 -43 -62 -94.5t-50.5 -147.5t-23.5 -201q0 -301 107 -462q29 -41 29 -60t-9.5 -30.5t-25.5 -11.5q-65 0 -116 143t-51 363q0 89 16.5 176t41 149.5t51.5 111t49.5 73t34.5 24.5z" />
    <glyph glyph-name="parenright" unicode=")" horiz-adv-x="320" 
d="M52 -291q-17 0 -17 16q0 7 8 17q35 44 62 95t50.5 147t23.5 201q0 301 -107 462q-29 41 -29 60t9.5 30.5t25.5 11.5q65 0 116 -143t51 -363q0 -89 -16.5 -176t-41 -149.5t-51.5 -111t-49.5 -73t-34.5 -24.5z" />
    <glyph glyph-name="asterisk" unicode="*" horiz-adv-x="349" 
d="M111 430q-14 0 -24.5 10t-10.5 18.5t1 12t3 7l4 7t6 8.5t8 9l40 40q-8 2 -25.5 4.5t-28 4.5t-22.5 7q-26 9 -26 29q0 12 8 22.5t21 10.5t42.5 -16.5t43.5 -21.5q-9 69 -9 75q0 39 33 39t33 -39q0 -6 -9 -75q14 5 43.5 21.5t42.5 16.5t21 -10.5t8 -21.5t-6.5 -18.5
t-19 -12t-23 -6.5t-28 -4.5t-25.5 -4.5l32 -32t16 -17t6 -8.5t4 -6.5q4 -8 4 -18t-10.5 -20t-24.5 -10q-30 0 -64 87q-34 -87 -64 -87z" />
    <glyph glyph-name="plus" unicode="+" horiz-adv-x="470" 
d="M202 268l-116 -5q-16 0 -26 10.5t-10 26.5t10 26t26 10l116 -6l-5 119q0 16 10 26t26 10t26.5 -10t10.5 -26l-5 -119l119 6q16 0 26 -10t10 -26t-10 -26.5t-26 -10.5l-119 5l5 -117q0 -16 -10.5 -26t-26.5 -10t-26 10t-10 26z" />
    <glyph glyph-name="comma" unicode="," horiz-adv-x="194" 
d="M55 -133q-14 0 -14 15q0 11 20 35t20 47.5t-20.5 45t-20.5 43t18 38t41.5 16.5t39 -14t15.5 -57.5t-37 -106t-62 -62.5z" />
    <glyph glyph-name="hyphen" unicode="-" horiz-adv-x="390" 
d="M195 330q39 0 71.5 3t43 3t20.5 -10t10 -26t-10 -26.5t-20.5 -10.5t-43 2.5t-71.5 2.5t-71.5 -2.5t-43 -2.5t-20.5 10.5t-10 26.5t10 26t20.5 10t43 -3t71.5 -3z" />
    <glyph glyph-name="period" unicode="." horiz-adv-x="193" 
d="M54 7q-14 13 -14 38.5t17.5 43.5t42 18t39 -13.5t14.5 -39t-18 -43t-42.5 -17.5t-38.5 13z" />
    <glyph glyph-name="slash" unicode="/" horiz-adv-x="496" 
d="M67 -6q-38 0 -38 39q0 20 22 55.5t79 118.5t95.5 148.5t67 120.5t46 90.5t35.5 67.5q35 62 66 62q38 0 38 -39q0 -20 -22 -55.5t-79 -118.5t-95.5 -148.5t-67 -120.5t-46 -90.5t-35.5 -67.5q-35 -62 -66 -62z" />
    <glyph glyph-name="zero" unicode="0" horiz-adv-x="617" 
d="M45 244q0 164 91.5 281t230.5 117q91 0 148 -74t57 -176q0 -164 -91.5 -281t-230.5 -117q-91 0 -148 74t-57 176zM500 317q0 108 -54.5 183.5t-136.5 75.5t-137 -75.5t-55 -183.5t54.5 -181.5t137 -73.5t137 73.5t54.5 181.5zM201 237q0 18 22 33q54 35 117 110
q22 27 32.5 37t19.5 10q25 0 25 -24q0 -18 -22 -33q-54 -35 -117 -110q-22 -27 -32.5 -37t-19.5 -10q-25 0 -25 24z" />
    <glyph glyph-name="one" unicode="1" horiz-adv-x="312" 
d="M265 607l-4 -276q0 -89 3 -170t3 -102.5t-14.5 -43t-38.5 -21.5t-39 16.5t-15 37.5t14.5 49t19.5 58.5t5 187.5t-6 216q-2 14 -17.5 14t-44.5 -12.5t-44 -12.5t-28.5 12t-13.5 32t14.5 32t32.5 12l134 6q39 0 39 -35z" />
    <glyph glyph-name="two" unicode="2" horiz-adv-x="539" 
d="M45 25q0 32 46 67q179 133 259 230q44 53 44 113.5t-36 98t-94.5 37.5t-99.5 -39t-41 -82q0 -11 -8.5 -20t-19 -9t-17.5 8.5t-7 20.5q0 70 77 131t155.5 61t124 -44t45.5 -106q0 -110 -103 -216q-58 -61 -143.5 -133.5t-93.5 -78.5q112 2 207 15.5t108.5 13.5t29.5 -12.5
t16 -35t-15 -37t-35 -14.5t-76 3t-110 3t-105.5 -3t-66.5 -3t-28 9t-13 22z" />
    <glyph glyph-name="three" unicode="3" horiz-adv-x="521" 
d="M268 358l-45 -5q-10 0 -16.5 7.5t-6.5 21.5t25 37q106 99 143 153q-93 0 -166 -14.5t-94 -14.5t-37 12.5t-16 35t15 37t35.5 14.5t62.5 -3t90 -3l143 6q17 0 30 -11.5t13 -33.5q0 -44 -127 -163q64 -11 111.5 -67.5t47.5 -126.5q0 -104 -71.5 -175t-175.5 -71
q-75 0 -129.5 38.5t-54.5 83.5q0 24 14.5 41.5t36 17.5t38 -18t28 -39t38.5 -39t66 -18q55 0 97.5 41.5t42.5 113.5q0 37 -16.5 66.5t-39.5 45.5q-47 30 -82 30z" />
    <glyph glyph-name="four" unicode="4" horiz-adv-x="566" 
d="M308 219l-227 -5q-16 0 -26 10.5t-10 31t48.5 98.5t101.5 142t115.5 107t112.5 43q40 0 40 -36q0 -18 -12 -30.5t-31 -12.5h-8q-5 -63 -5 -236v-48q72 4 83 4t21 -10t10 -26t-10 -26.5t-26 -10.5l-77 3q2 -52 5.5 -72t18 -48t14.5 -49t-15 -37.5t-39 -16.5t-38.5 21.5
t-14.5 51.5l5 152h-36zM106 286l202 -5h37v50q0 78 -4 218q-121 -55 -235 -263z" />
    <glyph glyph-name="five" unicode="5" horiz-adv-x="480" 
d="M169 565l-1 -37v-62.5t4 -70.5q41 34 104.5 34t111 -47.5t47.5 -115.5q0 -106 -91.5 -189t-210.5 -83q-39 0 -63.5 14.5t-24.5 40.5t17 43t37 17t53.5 -19.5t60.5 -19.5q66 0 109.5 42t43.5 102.5t-43 103t-103 42.5q-31 0 -60 -16t-38.5 -16t-17 7.5t-7.5 18.5l3 122
q0 38 -4.5 78t-4.5 53.5t14.5 24t33.5 10.5l115 -6l116 6q16 0 28.5 -10.5t12.5 -28.5t-12.5 -28.5t-28.5 -10.5l-116 6q-28 0 -85 -5z" />
    <glyph glyph-name="six" unicode="6" horiz-adv-x="538" 
d="M278 67q61 0 103.5 42.5t42.5 103.5t-42.5 103.5t-103.5 42.5t-103.5 -42.5t-42.5 -103.5t42.5 -103.5t103.5 -42.5zM424 564q-14 -14 -27.5 -14t-34.5 7t-45 7q-76 0 -137 -85t-66 -177q29 51 91.5 88t128 37t112 -46t46.5 -113q0 -110 -84 -192t-192 -82q-83 0 -127 67
t-44 162.5t46.5 191.5t126 161.5t163.5 65.5q27 0 42 -12t15 -32t-14 -34z" />
    <glyph glyph-name="seven" unicode="7" horiz-adv-x="496" 
d="M248 636l162 6q41 0 41 -39q0 -17 -19.5 -49t-64.5 -103.5t-86 -150.5q-63 -124 -86 -259q-3 -18 -15 -32.5t-30 -14.5t-30.5 14.5t-12.5 42t25.5 83t71 134t80.5 134.5q71 118 89 163l-125 5l-162 -6q-16 0 -28.5 10.5t-12.5 28.5t12.5 28.5t28.5 10.5z" />
    <glyph glyph-name="eight" unicode="8" horiz-adv-x="521" 
d="M293 642q54 0 96.5 -28.5t42.5 -83.5q0 -93 -98 -155q67 -26 104.5 -61t37.5 -99q0 -93 -72.5 -157t-179.5 -64q-75 0 -127 42.5t-52 112t36 112.5t99 79q-45 21 -70 50.5t-25 75.5q0 77 64.5 126.5t143.5 49.5zM411 182q0 25 -11.5 46t-24.5 33t-43 25q-38 18 -98 35
q-52 -29 -79.5 -60.5t-27.5 -84.5t44.5 -89.5t101 -36.5t97.5 38.5t41 93.5zM336 563.5q-31 23.5 -74.5 23.5t-74.5 -25t-31 -58t19.5 -54t42 -31.5t64.5 -25.5q41 23 63 46t22 53q0 48 -31 71.5z" />
    <glyph glyph-name="nine" unicode="9" horiz-adv-x="517" 
d="M249 579q-57 0 -96.5 -39.5t-39.5 -97t40 -101.5t96 -44t96 44t40 101.5t-39.5 97t-96.5 39.5zM93 72q14 14 27.5 14t34.5 -7t45 -7q75 0 136.5 94t66.5 188q-20 -51 -81 -88t-124.5 -37t-108 44.5t-44.5 109.5q0 109 77 184t179 75q78 0 124.5 -59.5t46.5 -155
t-46.5 -196t-126 -169t-163.5 -68.5q-27 0 -42 12t-15 32t14 34z" />
    <glyph glyph-name="colon" unicode=":" horiz-adv-x="193" 
d="M54 7q-14 13 -14 38.5t17.5 43.5t42 18t39 -13.5t14.5 -39t-18 -43t-42.5 -17.5t-38.5 13zM54 313q-14 13 -14 38.5t17.5 43.5t42 18t39 -13.5t14.5 -39t-18 -43t-42.5 -17.5t-38.5 13z" />
    <glyph glyph-name="semicolon" unicode=";" horiz-adv-x="194" 
d="M54 313q-14 13 -14 38.5t17.5 43.5t42 18t39 -13.5t14.5 -39t-18 -43t-42.5 -17.5t-38.5 13zM55 -133q-14 0 -14 15q0 11 20 35t20 47.5t-20.5 45t-20.5 43t18 38t41.5 16.5t39 -14t15.5 -57.5t-37 -106t-62 -62.5z" />
    <glyph glyph-name="less" unicode="&#x3c;" horiz-adv-x="429" 
d="M232.5 452q68.5 42 95 42t41.5 -12t15 -32q0 -34 -52 -49q-149 -43 -223 -113q74 -70 223 -113q52 -15 52 -49q0 -20 -15 -32t-41.5 -12t-95 42t-126.5 92t-61 72q3 22 61 72t126.5 92z" />
    <glyph glyph-name="equal" unicode="=" horiz-adv-x="410" 
d="M205 405q39 0 71.5 3t43 3t20.5 -10t10 -26t-10 -26.5t-20.5 -10.5t-43 2.5t-71.5 2.5t-71.5 -2.5t-43 -2.5t-20.5 10.5t-10 26.5t10 26t20.5 10t43 -3t71.5 -3zM205 255q39 0 71.5 3t43 3t20.5 -10t10 -26t-10 -26.5t-20.5 -10.5t-43 2.5t-71.5 2.5t-71.5 -2.5t-43 -2.5
t-20.5 10.5t-10 26.5t10 26t20.5 10t43 -3t71.5 -3z" />
    <glyph glyph-name="greater" unicode="&#x3e;" horiz-adv-x="429" 
d="M196.5 124q-68.5 -42 -95 -42t-41.5 12t-15 32q0 34 52 49q149 43 223 113q-74 70 -223 113q-52 15 -52 49q0 20 15 32t41.5 12t95 -42t126.5 -92t61 -72q-3 -22 -61 -72t-126.5 -92z" />
    <glyph glyph-name="question" unicode="?" horiz-adv-x="454" 
d="M145.5 7.5q-14.5 13.5 -14.5 40t18.5 46t44 19.5t41 -14.5t15.5 -41t-19.5 -45t-45 -18.5t-40 13.5zM210 220q0 -10 -6.5 -16.5t-14.5 -6.5t-14.5 6.5t-6.5 16.5q0 76 55 128l46 42q55 49 55 109.5t-28 95.5t-69 35t-70 -19t-43 -41.5t-26.5 -41.5t-19.5 -19
q-18 0 -18 18q0 33 48 96q23 30 65 51.5t94.5 21.5t99.5 -47.5t47 -106.5t-20 -98.5t-48.5 -63.5t-57.5 -46q-68 -53 -68 -114z" />
    <glyph glyph-name="at" unicode="@" horiz-adv-x="782" 
d="M583 402l-5 -120q0 -34 10.5 -57.5t28.5 -23.5q34 0 47.5 45t13.5 90q0 127 -87.5 217t-209 90t-199.5 -85t-78 -208.5t87.5 -212t209.5 -88.5h18q12 0 20 -7t8 -19q0 -23 -28 -28q-9 -1 -28 -1q-144 0 -242.5 97t-98.5 243.5t98 254t242 107.5t243 -101t99 -239
q0 -74 -26 -144q-13 -37 -39 -60t-58 -23t-57 30t-25 70v10q-39 -51 -95 -80.5t-112.5 -29.5t-96.5 46t-40 115.5t43 134.5t101.5 97.5t117 32.5t98.5 -46t40 -107zM244 342q0 -59 41 -100t100 -41t98 40.5t39 100.5t-39 100t-98 40t-100 -40.5t-41 -99.5z" />
    <glyph glyph-name="A" unicode="A" horiz-adv-x="679" 
d="M507 300l-166 5l-127 -3q-9 -21 -19.5 -53t-27.5 -74.5t-39 -85.5q-49 -95 -94 -95q-39 0 -39 44q0 28 55 82q23 21 52.5 69t51.5 111h-36q-16 0 -27.5 9.5t-11.5 26.5t12 28t26 11l70 -1q85 189 161 261q-39 0 -118 -7.5t-95.5 -7.5t-28.5 9.5t-12 27t12.5 28.5t27.5 11
l218 -6l237 6q18 0 29 -11t11 -28q0 -37 -41 -37h-24q0 -160 13 -289t26 -199t13 -88.5t-11.5 -34t-31 -15.5t-33.5 14t-15 40zM489 632l-25 1q-113 -11 -220 -260q86 -2 106 -2t152 4q-13 221 -13 257z" />
    <glyph glyph-name="B" unicode="B" horiz-adv-x="604" 
d="M253 627q-29 0 -41 -1q4 -8 4 -17t-4 -71t-5 -139q70 48 143 48q30 25 30 72t-33.5 77.5t-93.5 30.5zM174 690l98 6q79 0 129 -45.5t50 -104.5q0 -26 -15 -55.5t-39 -50.5q83 -23 126.5 -82t43.5 -128q0 -93 -73 -164.5t-187 -71.5h-206q-16 0 -28.5 10.5t-12.5 27.5
t12.5 27.5t28.5 10.5h19q9 89 9 211.5t-4.5 218.5t-4.5 106.5t2 14.5h-21q-16 0 -28.5 10.5t-12.5 27t12.5 27t28.5 10.5zM216 66q66 -14 120.5 -14t99 42.5t44.5 120.5t-47 120t-114.5 42t-111.5 -27q0 -59 9 -284z" />
    <glyph glyph-name="C" unicode="C" horiz-adv-x="656" 
d="M378 696q89 0 163.5 -35.5t74.5 -81.5q0 -20 -13.5 -34t-32.5 -14t-38 15t-36.5 33.5t-55 33.5t-88.5 15q-114 0 -179.5 -71.5t-65.5 -194t72 -211.5t182.5 -89t201.5 106q20 24 29.5 24t15 -6.5t5.5 -19.5t-20.5 -41.5t-55 -58t-90 -51t-115.5 -21.5q-132 0 -219.5 94
t-87.5 242.5t100.5 257t252.5 108.5z" />
    <glyph glyph-name="D" unicode="D" horiz-adv-x="691" 
d="M204 690l156 6q74 0 148 -36q44 -21 78 -52t57 -84.5t23 -130.5t-33 -155.5t-86 -130.5t-118.5 -82.5t-133 -30.5t-106 15.5t-38.5 52.5q0 18 4.5 118t4.5 173t-2 130.5t-4.5 92.5t-2.5 46q-38 -2 -52 -2t-26.5 10.5t-12.5 27.5t12.5 27.5t28.5 10.5zM240 487.5
q-2 -58.5 -2 -162.5t9 -250q33 -10 85 -10q97 0 179 82t82 210.5t-77 199t-219 70.5q-35 0 -50 -1q0 -11 -2.5 -45.5t-4.5 -93z" />
    <glyph glyph-name="E" unicode="E" horiz-adv-x="599" 
d="M101 696l202 -6l202 6q16 0 28.5 -10.5t12.5 -28.5t-12.5 -28.5t-28.5 -10.5l-202 6q-26 0 -84 -2q0 -12 -2 -43q-6 -93 -6 -174q52 -4 97.5 -4t93 3t58 3t20.5 -10t10 -26t-10 -26.5t-26 -10.5l-139 5q-52 0 -104 -4q0 -122 4.5 -191t4.5 -78l298 6q16 0 28.5 -10.5
t12.5 -28.5t-12.5 -28.5t-28.5 -10.5l-192 6q-40 0 -95 -3t-59 -3q-21 0 -34.5 16t-13.5 32t4.5 111t4.5 183.5t-9 281.5h-23q-16 0 -28.5 10.5t-12.5 28.5t12.5 28.5t28.5 10.5z" />
    <glyph glyph-name="F" unicode="F" horiz-adv-x="566" 
d="M101 696l202 -6l202 6q16 0 28.5 -10.5t12.5 -28.5t-12.5 -28.5t-28.5 -10.5l-202 6q-26 0 -84 -2q-7 -147 -8 -237q52 -4 97.5 -4t93 3t58 3t20.5 -10t10 -26t-10 -26.5t-26 -10.5l-139 5q-52 0 -104 -4q1 -85 5 -169.5t4 -102t-13.5 -33.5t-34.5 -16t-34.5 16t-13.5 32
t4.5 111t4.5 183.5t-9 281.5h-23q-16 0 -28.5 10.5t-12.5 28.5t12.5 28.5t28.5 10.5z" />
    <glyph glyph-name="G" unicode="G" horiz-adv-x="691" 
d="M548 136l1 27q0 31 -4.5 69t-4.5 53.5t13.5 31t34.5 15.5t34.5 -15.5t13.5 -31t-4.5 -53.5t-4.5 -69t4.5 -69t4.5 -53.5t-13.5 -31t-34.5 -15.5t-34.5 15.5t-13.5 35.5v21q-91 -72 -193 -72q-130 0 -218.5 93.5t-88.5 226.5q0 166 99.5 274t253.5 108q89 0 163.5 -35
t74.5 -81q0 -21 -13.5 -35t-32.5 -14t-38 15t-36.5 33.5t-55 33.5t-88.5 15q-115 0 -180 -73t-65 -193t71.5 -210t186.5 -90q87 0 168 74z" />
    <glyph glyph-name="H" unicode="H" horiz-adv-x="650" 
d="M483 330l-180 6q-57 0 -112 -3q0 -93 4.5 -184t4.5 -107t-13.5 -32t-34.5 -16t-34.5 16t-13.5 33.5t4 106.5t5 180h-12q-16 0 -28.5 10.5t-12.5 28.5t12.5 28.5t28.5 10.5h12q-1 84 -5 154t-4 85.5t13.5 31.5t34.5 16t34.5 -16t13.5 -30t-4 -86t-5 -158q54 -3 112 -3
l180 6q-1 84 -5 154t-4 85.5t13.5 31.5t34.5 16t34.5 -16t13.5 -36q0 -3 -4.5 -92t-4.5 -196t4.5 -202t4.5 -111t-13.5 -32t-34.5 -16t-34.5 16t-13.5 33.5t4 106.5t5 180z" />
    <glyph glyph-name="I" unicode="I" horiz-adv-x="216" 
d="M151.5 550.5q-4.5 -88.5 -4.5 -195.5t4.5 -202t4.5 -111t-13.5 -32t-34.5 -16t-34.5 16t-13.5 32t4.5 111t4.5 202t-4.5 195.5t-4.5 91.5q0 21 13.5 37.5t34.5 16.5t34.5 -16.5t13.5 -37.5q0 -3 -4.5 -91.5z" />
    <glyph glyph-name="J" unicode="J" horiz-adv-x="357" 
d="M71 696l79 -6l80 6q21 0 34 -16.5t13 -33t-3 -60.5q-6 -113 -6 -280t-13.5 -270t-33 -162.5t-45.5 -98t-47.5 -52t-42.5 -13.5t-35 14.5t-14 31t8 27.5t27 25.5t29 25.5q48 51 70 152t22 258t-9 378q-22 2 -34 2l-79 -6q-16 0 -28.5 10.5t-12.5 28.5t12.5 28.5t28.5 10.5
z" />
    <glyph glyph-name="K" unicode="K" horiz-adv-x="557" 
d="M65 348l-5 295q0 21 13 37t34 16t32.5 -15.5t11.5 -42.5t-1.5 -105.5t-1.5 -98.5q56 94 158.5 178t163.5 84q23 0 38.5 -14t15.5 -36t-15.5 -36t-31.5 -14t-32.5 8.5t-36.5 8.5t-61 -30t-84 -76t-76 -96l146 -147q55 -55 96 -94t61 -60q37 -40 37 -67q0 -49 -42 -49
q-24 0 -50 23.5t-78 86.5q-84 103 -210 229l4 -287q0 -21 -11.5 -36.5t-32.5 -15.5t-34 15.5t-13 36.5z" />
    <glyph glyph-name="L" unicode="L" horiz-adv-x="483" 
d="M260 0l-152 -6q-21 0 -34.5 15.5t-13.5 32t4.5 111.5t4.5 202t-4.5 195.5t-4.5 91.5q0 21 13.5 37.5t34.5 16.5t34.5 -16.5t13.5 -37.5q0 -3 -4.5 -91.5t-4.5 -179t1.5 -145.5t4.5 -103t3 -57l256 6q16 0 28.5 -10.5t12.5 -28.5t-12.5 -28.5t-28.5 -10.5z" />
    <glyph glyph-name="M" unicode="M" horiz-adv-x="907" 
d="M763 614l-12 -1q8 -313 23 -445q4 -32 28.5 -64.5t24.5 -55t-13.5 -38.5t-36 -16t-38 27.5t-18.5 59.5q-26 335 -60 505q-91 -46 -178 -159q79 -125 79 -212.5t-59 -151t-110 -63.5t-78.5 33t-27.5 81.5t32.5 123t85.5 155.5q-47 69 -107 122.5t-117 73.5
q-24 -169 -31.5 -254.5t-11.5 -185t-5 -116t-12 -28t-26 -11.5t-27.5 11.5t-12.5 32.5t15 119q33 205 37 444q-41 9 -41 51q0 19 18 31.5t44 12.5q77 0 166.5 -65.5t161.5 -164.5q76 101 157 165.5t150 64.5q47 0 47 -38q0 -18 -15.5 -31t-31.5 -13zM483 179q0 76 -53 172
q-81 -130 -81 -196q0 -36 18.5 -63t46.5 -27t48.5 35.5t20.5 78.5z" />
    <glyph glyph-name="N" unicode="N" horiz-adv-x="731" 
d="M55 649q0 47 63 47q80 0 173.5 -72.5t163.5 -220.5q94 -201 124 -255q-2 301 -17 383.5t-15 107.5t14.5 41t35 16t33.5 -16t13 -47.5t-5 -115.5q-10 -196 -10 -389q0 -24 14 -51t14 -41.5t-13 -28t-34 -13.5q-34 0 -59 42.5t-73 157.5t-70 166q-91 211 -237 242
q-3 -66 -3 -210t9.5 -239t9.5 -111t-13.5 -32t-34.5 -16t-34.5 16t-13.5 32t9.5 111t9.5 187t-4 268q-20 1 -35 11.5t-15 29.5z" />
    <glyph glyph-name="O" unicode="O" 
d="M178.5 152q71.5 -90 183.5 -90t177.5 71.5t65.5 193t-71.5 211.5t-184 90t-177.5 -71.5t-65 -193t71.5 -211.5zM332 -6q-130 0 -218.5 93.5t-88.5 226.5q0 166 100 274t255 108q130 0 218.5 -93.5t88.5 -226.5q0 -166 -100 -274t-255 -108z" />
    <glyph glyph-name="P" unicode="P" horiz-adv-x="614" 
d="M204 690l176 6q72 0 133 -59t61 -126.5t-24.5 -121.5t-63.5 -87q-79 -70 -170 -70q-40 0 -61.5 14.5t-21.5 37.5t13.5 36.5t27 13.5t44.5 -12t61 -12q53 0 91 38t38 110t-55.5 120.5t-136.5 48.5q-45 0 -103 -2q-12 -86 -12 -544q0 -87 -55 -87q-21 0 -37.5 16
t-16.5 40.5t21.5 54.5t21.5 63q0 254 -14 452h-20q-16 0 -28.5 10.5t-12.5 27.5t12.5 27.5t28.5 10.5z" />
    <glyph glyph-name="Q" unicode="Q" 
d="M394 36q0 -42 -73 -42q-109 0 -200 85q-43 40 -69.5 104t-26.5 140q0 155 100 264t243 109t231 -92.5t88 -242.5q0 -76 -25 -138.5t-60.5 -103t-71.5 -75.5q-86 -85 -86 -158q0 -47 26.5 -72.5t62 -25.5t61 14t42.5 27.5t24.5 13.5t13 -5.5t5.5 -13.5q0 -30 -49 -72
t-113 -42t-104 40.5t-40 113.5q0 94 82 181q34 36 68 74t58 92t24 118q0 118 -71 208.5t-192 90.5q-104 0 -169.5 -71.5t-65.5 -195.5q0 -113 59 -196q62 -89 199 -103q29 -2 29 -26z" />
    <glyph glyph-name="R" unicode="R" horiz-adv-x="580" 
d="M174 690l148 6q61 0 120 -38q30 -20 49.5 -57t19.5 -85q0 -84 -49 -137.5t-116 -76.5q29 -16 57 -38q76 -64 111.5 -122t35.5 -103t-42 -45q-31 0 -58 61q-11 26 -37.5 68.5t-60.5 79.5q-71 76 -146 103q1 -81 5 -163t4 -99.5t-13.5 -33.5t-34.5 -16t-34.5 16t-13.5 32
t4.5 111t4.5 184t-2 146.5t-4.5 92.5t-2.5 45h-18q-16 0 -28.5 10.5t-12.5 27t12.5 27t25 10.5t34 -3t42.5 -3zM273 627l-58 -1q0 -11 -3 -44q-6 -88 -6 -221q50 -14 73 -14t46.5 5.5t51 18.5t45.5 41.5t18 66.5q0 76 -48.5 112t-118.5 36z" />
    <glyph glyph-name="S" unicode="S" horiz-adv-x="522" 
d="M305.5 622.5q-26.5 13.5 -64.5 13.5t-69.5 -28t-31.5 -69.5t36.5 -68.5t88 -42t103 -33.5t88 -60t36.5 -106.5q0 -94 -78.5 -164t-197.5 -70q-79 0 -127.5 39.5t-48.5 82.5q0 23 13 37.5t32.5 14.5t33.5 -11.5t26.5 -28.5t28.5 -34q36 -40 101.5 -40t105.5 38t40 101
q0 47 -37 76.5t-89.5 46t-105 34.5t-89.5 54.5t-37 91t25.5 95t63.5 62.5q76 43 143.5 43t118.5 -29t51 -70q0 -21 -12 -34t-34 -13t-41.5 13.5t-32.5 29.5t-39.5 29.5z" />
    <glyph glyph-name="T" unicode="T" horiz-adv-x="516" 
d="M56 696l202 -6l202 6q16 0 28.5 -10.5t12.5 -28.5t-12.5 -28.5t-28.5 -10.5l-155 5q-8 -172 -8 -273.5t4.5 -196.5t4.5 -111t-13.5 -32t-34.5 -16t-34.5 16t-13.5 32t4.5 111t4.5 185.5t-9 284.5l-154 -5q-16 0 -28.5 10.5t-12.5 28.5t12.5 28.5t28.5 10.5z" />
    <glyph glyph-name="U" unicode="U" horiz-adv-x="676" 
d="M64 254l5 204q0 66 -4.5 118.5t-4.5 69.5t13.5 33.5t34.5 16.5t34.5 -16.5t13.5 -37.5q0 -3 -4.5 -91.5t-4.5 -181.5t13 -146.5t32.5 -83.5t49 -47.5t56.5 -23t62 -5.5q73 0 148 61q6 150 6 244t-4.5 182.5t-4.5 91.5q0 21 13.5 37.5t34.5 16.5t34.5 -16.5t13.5 -37.5
q0 -3 -4.5 -91.5t-4.5 -195.5t4.5 -202t4.5 -111t-13.5 -32t-34.5 -16t-34.5 16t-13.5 36v29q-101 -81 -202 -81t-170 71.5t-69 188.5z" />
    <glyph glyph-name="V" unicode="V" horiz-adv-x="655" 
d="M542 491q0 36 -11 79t-11 67.5t13.5 41.5t36.5 17q55 0 55 -84q0 -97 -26.5 -192t-58.5 -157t-79 -124t-68 -83t-42.5 -41.5t-42.5 -20.5q-35 0 -49 38q-6 16 -21 58q-94 250 -135.5 348.5t-52.5 127.5q-20 53 -20 76t11 38.5t31 15.5q35 0 52 -41q6 -15 16 -47
q71 -215 130 -357.5t68 -166.5q73 64 138.5 179t65.5 228z" />
    <glyph glyph-name="W" unicode="W" horiz-adv-x="865" 
d="M439 252q-57 139 -57 205.5t32 103.5t79 37t75.5 -31.5t28.5 -81.5q0 -74 -80 -206q63 -174 68 -193q63 61 119.5 175.5t56.5 229.5q0 49 -19.5 90t-19.5 63.5t13 37t33 14.5q33 0 50 -38t17 -99t-12.5 -124.5t-29.5 -112.5t-44.5 -99.5t-47.5 -81t-48 -65t-37 -44
t-22 -24t-30 -14.5q-28 0 -46 39q-11 24 -56 151q-62 -96 -130 -164l-14 -14q-12 -12 -27 -12q-33 0 -46 39q-82 224 -107.5 296.5t-49 132.5t-34.5 86q-24 62 -24 90.5t13 43t32 14.5q40 0 55 -47q5 -16 12 -45q30 -117 94 -300t76 -220q57 59 127 168zM525 411.5
q15 38.5 15 66t-12 45t-30.5 17.5t-32 -14.5t-13.5 -37.5t14.5 -69.5t25.5 -67.5q18 22 33 60.5z" />
    <glyph glyph-name="X" unicode="X" horiz-adv-x="579" 
d="M110 5.5q-14 -11.5 -33.5 -11.5t-33 16t-13.5 33t11 39t33.5 53t45.5 60t59 74t62 80q-22 28 -65 81t-61.5 76.5t-42.5 55.5q-42 57 -42 80.5t10.5 38.5t36.5 15t53 -39l26 -42q73 -115 134 -198q61 86 105 156t54 85q24 38 46 38q43 0 43 -43q0 -28 -48 -89
q-40 -53 -90 -111.5t-72 -86.5q20 -26 59 -75t62 -79.5t49 -67.5q51 -73 51 -108q0 -20 -11 -31t-32.5 -11t-46.5 39q-2 4 -16.5 27t-29.5 47t-36 57q-47 72 -98 137q-97 -134 -149 -267q-6 -17 -20 -28.5z" />
    <glyph glyph-name="Y" unicode="Y" horiz-adv-x="629" 
d="M349.5 10q-13.5 -16 -34.5 -16t-34.5 16t-13.5 36q0 4 2 26q7 77 7 219q-71 107 -130.5 182.5t-75.5 96.5q-40 51 -40 82q0 44 44 44q19 0 38 -18.5t33 -42.5t40 -70q65 -115 142 -210q66 66 144 220q32 63 52.5 92t40.5 29q35 0 35 -36t-33 -85.5t-105 -141t-107 -128.5
q0 -151 4.5 -203t4.5 -64t-13.5 -28z" />
    <glyph glyph-name="Z" unicode="Z" horiz-adv-x="612" 
d="M316 690l202 6q16 0 28.5 -10.5t12.5 -26t-3.5 -30t-12.5 -32t-17.5 -33t-24 -37.5t-27.5 -38.5t-32.5 -42.5t-33 -42t-36.5 -45q-147 -178 -209 -289q106 -4 166 -4l202 6q16 0 28.5 -10.5t12.5 -28.5t-12.5 -28.5t-28.5 -10.5l-202 6l-230 -6q-21 0 -35 16t-14 30.5
t5 27.5t17.5 32.5t24 36t35.5 46.5t40 49q69 85 101 125q156 192 182 262q-110 5 -139 5l-202 -6q-16 0 -28.5 10.5t-12.5 28.5t12.5 28.5t28.5 10.5z" />
    <glyph glyph-name="bracketleft" unicode="[" horiz-adv-x="326" 
d="M137 687l1 -454l-1 -460q20 -2 31 -2l68 5q11 0 23 -9t12 -24t-12 -24t-23 -9l-68 5l-71 -5q-19 0 -30.5 15t-11.5 25.5t5.5 177t5.5 291t-3 231t-5.5 172.5t-2.5 82t13.5 31t32.5 15l67 -5l68 5q11 0 23 -9t12 -24t-12 -24t-23 -9l-68 5q-11 0 -31 -2z" />
    <glyph glyph-name="backslash" unicode="\" horiz-adv-x="496" 
d="M440 -6q-31 0 -66 62q-18 32 -36 68q-97 198 -208 359q-57 83 -79 118.5t-22 55.5q0 39 38 39q31 0 66 -62q18 -32 35 -68q98 -198 209 -359q57 -83 79 -118.5t22 -55.5q0 -39 -38 -39z" />
    <glyph glyph-name="bracketright" unicode="]" horiz-adv-x="326" 
d="M189 -227l-1 454l1 460q-20 2 -31 2l-68 -5q-11 0 -23 9t-12 24t12 24t23 9l68 -5l71 5q19 0 30.5 -15t11.5 -25.5t-5.5 -177t-5.5 -291t3 -231t5.5 -172.5t2.5 -82t-13.5 -31t-32.5 -15l-67 5l-68 -5q-11 0 -23 9t-12 24t12 24t23 9l68 -5q11 0 31 2z" />
    <glyph glyph-name="asciicircum" unicode="^" horiz-adv-x="602" 
d="M557 172q0 -24 -12 -39t-32 -15q-34 0 -49 52q-18 67 -61 143.5t-102 139.5q-59 -63 -101.5 -140t-61.5 -143q-15 -52 -49 -52q-20 0 -32 15t-12 39q0 37 52.5 125t115 162.5t88.5 77.5q26 -3 88.5 -77.5t115 -162.5t52.5 -125z" />
    <glyph glyph-name="underscore" unicode="_" horiz-adv-x="533" 
d="M83 -109l184 -5l184 5q14 0 23 -9t9 -23t-9 -23.5t-23 -9.5l-184 4l-184 -4q-14 0 -23.5 9.5t-9.5 23.5t9.5 23t23.5 9z" />
    <glyph glyph-name="grave" unicode="`" horiz-adv-x="296" 
d="M246 525q0 -12 -12 -12q-4 0 -12 5q-57 34 -135 48q-37 7 -37 40q0 15 11.5 25.5t26.5 10.5q47 0 150 -103q8 -8 8 -14z" />
    <glyph glyph-name="a" unicode="a" horiz-adv-x="459" 
d="M411.5 85.5q22.5 -30.5 22.5 -49.5t-10 -30.5t-27 -11.5q-41 0 -73 85l-8 22q-51 -107 -153 -107q-51 0 -84.5 32.5t-33.5 81.5q0 76 52 131t136 59q-20 35 -44.5 52.5t-44.5 20.5t-37.5 3.5t-27.5 7.5t-10 27.5t16.5 33.5t39.5 13q65 0 128 -65t110 -204l19 -53
q7 -18 29.5 -48.5zM143.5 221q-28.5 -24 -28.5 -62t25.5 -63.5t61.5 -25.5t62 25.5t26 60.5q0 25 -9 46.5t-11 26.5q-26 16 -62 16t-64.5 -24z" />
    <glyph glyph-name="b" unicode="b" horiz-adv-x="522" 
d="M63 160l8 183q0 163 -8 255t-8 95q0 57 44 57q53 0 53 -82q0 -49 -10.5 -167t-11.5 -157q42 52 100.5 82t118 30t104 -48.5t44.5 -117.5q0 -111 -85 -203.5t-193 -92.5q-67 0 -111.5 48.5t-44.5 117.5zM128 225q0 -64 44.5 -108.5t108 -44.5t106.5 44.5t43 108.5t-43 108
t-106.5 44t-108 -44t-44.5 -108z" />
    <glyph glyph-name="c" unicode="c" horiz-adv-x="396" 
d="M240 378q-66 0 -107.5 -45.5t-41.5 -108.5t43.5 -107t106.5 -44q56 0 101 41q16 14 24 14t14 -6t6 -13q0 -29 -56.5 -72t-128 -43t-124 58t-52.5 144q0 110 83 185t183 75q42 0 68.5 -14.5t26.5 -37t-13.5 -36.5t-26.5 -14t-44.5 12t-61.5 12z" />
    <glyph glyph-name="d" unicode="d" horiz-adv-x="545" 
d="M68 44q-43 50 -43 115.5t26 122.5t66 94t86.5 58.5t96 21.5t91.5 -37q-1 75 -7 164.5t-6 112.5t12 38.5t31 15.5t32.5 -16.5t13.5 -44t-8.5 -128t-8.5 -188.5t7 -152.5t15 -87.5q23 -61 23 -82q0 -57 -44 -57q-53 0 -62 113q-40 -53 -96 -83t-119 -30t-106 50zM91 225
q0 -64 44.5 -108.5t108 -44.5t106.5 44.5t43 112.5t-39 108t-106.5 40t-112 -44t-44.5 -108z" />
    <glyph glyph-name="e" unicode="e" horiz-adv-x="406" 
d="M238 199l-119 10q-17 0 -27 -3q6 -57 48.5 -95t100.5 -38q56 0 101 41q16 14 24 14t14 -6t6 -13q0 -29 -56.5 -72t-128 -43t-124 58t-52.5 144q0 110 83 185t183 75q42 0 68.5 -14.5t26.5 -37t-13.5 -36.5t-26.5 -14t-44.5 12t-60.5 12q-54 0 -93.5 -32.5t-52.5 -80.5
l138 8q46 0 46 -36q0 -38 -41 -38z" />
    <glyph glyph-name="f" unicode="f" horiz-adv-x="358" 
d="M79.5 -58q9.5 76 9.5 174t-9 269h-31q-39 0 -39 34t39 34q20 0 30 -1q4 125 94.5 211.5t181.5 86.5q36 0 59.5 -13t23.5 -37.5t-13.5 -38t-26.5 -13.5t-45 11.5t-63 11.5q-62 0 -106 -54.5t-44 -130.5v-38h32l138 8q39 0 39 -37t-39 -37l-138 8q-22 0 -32 -1
q2 -110 9.5 -247t7.5 -270q0 -162 -63 -162q-44 0 -44 57q0 20 10 59.5t19.5 115.5z" />
    <glyph glyph-name="g" unicode="g" horiz-adv-x="530" 
d="M244 377q-64 0 -108.5 -44t-44.5 -108t44.5 -108.5t106.5 -44.5t103.5 39.5t46.5 98.5q-1 29 -1 66t13.5 53.5t32.5 16.5t31 -15.5t12 -37.5t-1.5 -43.5t-4.5 -55.5q-10 -111 -10 -208t-86 -186.5t-192 -89.5q-53 0 -92 30t-39 65q0 18 12.5 32t30 14t32 -10t27 -22
t38 -22t57.5 -10q63 0 105 46.5t42 110.5q0 8 -3 167q-43 -54 -102.5 -85.5t-112.5 -31.5q-70 0 -113 50t-43 125.5t47 146t110 105.5t113 35t70.5 -15.5t20.5 -37t-13.5 -35.5t-26 -14t-44 11.5t-58.5 11.5z" />
    <glyph glyph-name="h" unicode="h" horiz-adv-x="531" 
d="M475.5 91.5q20.5 -22.5 20.5 -45.5t-16 -37.5t-35 -14.5t-31 7t-20 21q-11 21 -17 51l-44 209q-10 46 -31.5 73t-66 27t-69 -30.5t-25.5 -66.5q8 -237 8 -250.5t-12 -27t-31 -13.5t-32.5 13.5t-13.5 44.5t5 147.5t5 180.5t-5 172t-5 139t13.5 45t32.5 14t31 -13.5t12 -44
t-4.5 -142t-4.5 -182.5q59 88 136 88q105 0 135 -141l38 -172q6 -29 26.5 -51.5z" />
    <glyph glyph-name="i" unicode="i" horiz-adv-x="241" 
d="M76 73q0 126 -5 221t-5 112t13.5 33.5t32.5 16.5t31 -15.5t12 -45t-7 -99t-7 -144.5q0 -30 12.5 -57.5t12.5 -50t-12.5 -36.5t-34 -14t-32.5 24t-11 55zM73 581q-13 12 -13 35t16 39.5t38 16.5t35.5 -12.5t13.5 -35.5t-16.5 -39t-38.5 -16t-35 12z" />
    <glyph glyph-name="j" unicode="j" horiz-adv-x="244" 
d="M160 127l-3 -255q0 -162 -63 -162q-44 0 -44 57q0 21 26 97q9 29 17 98t8 157t-8.5 168.5t-8.5 108t13.5 44t32.5 16.5t31 -15.5t12 -38t-6.5 -110t-6.5 -165.5zM94 581q-13 12 -13 35t16 39.5t38 16.5t35.5 -12.5t13.5 -35.5t-16.5 -39t-38.5 -16t-35 12z" />
    <glyph glyph-name="k" unicode="k" horiz-adv-x="495" 
d="M149 702l-9 -322v-61q42 62 107 99.5t114 37.5q92 0 92 -53q0 -22 -13.5 -35.5t-27 -13.5t-44.5 12t-61 12q-81 0 -125 -67q99 -95 192 -165q77 -58 89 -75t12 -35t-12 -30t-31.5 -12t-44 21.5t-92.5 87t-152 132.5q6 -126 6 -193q0 -21 -12 -34.5t-31 -13.5t-32.5 13.5
t-13.5 44.5t5 147.5t5 180.5t-5 172t-5 139t13.5 45t32.5 14t31 -13.5t12 -34.5z" />
    <glyph glyph-name="l" unicode="l" horiz-adv-x="215" 
d="M66 73q0 389 -5 465q-9 138 -9 161t13.5 37t32.5 14t31 -14t12 -35q0 -63 -5 -171q-10 -254 -10 -378q0 -30 19.5 -57.5t19.5 -49.5t-15 -36.5t-34 -14.5q-50 0 -50 79z" />
    <glyph glyph-name="m" unicode="m" horiz-adv-x="754" 
d="M67 240l-7 167q0 21 13.5 35t32.5 14t31 -13.5t12 -33.5t-1 -30q58 77 123 77q76 0 109 -91q64 91 138 91q95 0 123 -141l35 -172q5 -24 24 -50.5t19 -50t-14.5 -36t-34.5 -12.5q-46 0 -60 79l-37 209q-7 44 -29 72t-57 28q-47 0 -90 -81l32 -158q5 -24 24 -50.5t19 -50
t-14.5 -36t-34.5 -12.5q-46 0 -60 79l-37 209q-7 41 -34 70.5t-64.5 29.5t-60 -29t-24 -57.5t-1.5 -55.5l7 -198q0 -21 -12 -34.5t-31 -13.5t-32.5 13.5t-13.5 34.5z" />
    <glyph glyph-name="n" unicode="n" horiz-adv-x="528" 
d="M143 286l6 -244q0 -21 -12 -34.5t-31 -13.5t-32.5 13.5t-13.5 34.5l7 198l-7 167q0 21 13.5 35t32.5 14t31 -13.5t12 -33.5t-1 -30q56 77 129 77q105 0 135 -141l38 -172q6 -23 24.5 -49.5t18.5 -47.5q0 -52 -50 -52t-65 79l-38 209q-19 100 -103 100q-43 0 -67 -29
t-27 -67z" />
    <glyph glyph-name="o" unicode="o" horiz-adv-x="484" 
d="M91 225q0 -64 44.5 -108.5t108 -44.5t106.5 44.5t43 108.5t-43 108t-106.5 44t-108 -44t-44.5 -108zM68 44q-43 50 -43 125.5t47 146t110 105.5t127 35t107 -50t43 -125.5t-47 -146t-110 -105.5t-127 -35t-107 50z" />
    <glyph glyph-name="p" unicode="p" horiz-adv-x="535" 
d="M118 -290q-19 0 -33.5 14.5t-14.5 41.5q0 5 9.5 66t9.5 204t-5 262q-1 23 -17.5 53t-16.5 53t15 37.5t34 14.5q50 0 50 -79v-47q42 58 101.5 92t110.5 34q67 0 108 -49.5t41 -115.5t-26 -123t-66 -94t-85 -58.5t-86 -21.5q-48 0 -48 47q0 21 15 31t30 10t31.5 -5t30.5 -5
q60 0 101 44.5t41 108.5t-41 108t-101 44q-78 0 -114.5 -63t-36.5 -172q0 -58 8 -183t8 -170q0 -79 -53 -79z" />
    <glyph glyph-name="q" unicode="q" horiz-adv-x="537" 
d="M263 -81l117 -7q1 27 6 96t6 98q-43 -52 -101.5 -82t-109.5 -30q-70 0 -113 50t-43 125.5t47 146t110 105.5t127 35t107 -50t43 -116l-8 -173q0 -207 27 -300q9 -31 9 -50q0 -57 -44 -57q-60 0 -63 143l-117 -8q-39 0 -39 37t39 37zM392 225q0 64 -44.5 108.5t-108 44.5
t-106.5 -44.5t-43 -108.5t43 -108t106.5 -44t108 44t44.5 108z" />
    <glyph glyph-name="r" unicode="r" horiz-adv-x="390" 
d="M153 235l8 -181q0 -27 -13.5 -43.5t-32.5 -16.5t-31 15.5t-12 42.5t5 77q10 100 10 169q0 30 -18.5 57.5t-18.5 49.5t15 36.5t34 14.5q50 0 50 -79v-39q30 54 72 86t77 32t53.5 -17.5t18.5 -46.5t-14 -48.5t-30 -19.5t-24.5 8.5t-12.5 18t-15 18t-28 8.5q-29 0 -58 -38
t-35 -104z" />
    <glyph glyph-name="s" unicode="s" horiz-adv-x="427" 
d="M75 9q-23 15 -23 37.5t13.5 36t27 13.5t44.5 -12t64.5 -12t67.5 17.5t34 43t-25.5 39.5t-61.5 22.5t-72 19.5t-61.5 33.5t-25.5 55.5q0 54 69 103.5t152 49.5q40 0 61.5 -14.5t21.5 -37.5t-13.5 -36.5t-27 -13.5t-44.5 12t-64.5 12t-58 -14t-24.5 -34t38.5 -35t84.5 -24
t84.5 -35.5t38.5 -68.5q0 -65 -76 -119t-164 -54q-37 0 -60 15z" />
    <glyph glyph-name="t" unicode="t" horiz-adv-x="337" 
d="M278 382q-5 0 -125 8q0 -13 -4 -99t-4 -127.5t18.5 -69t18.5 -49.5t-15 -36.5t-34 -14.5q-50 0 -50 79l-4 203q0 62 -3 111h-24q-14 0 -23 8.5t-9 23.5t9 23.5t23 8.5h21q-2 52 -2 79.5t13.5 44t32.5 16.5t31 -15.5t12 -50.5t-3 -77l121 8q39 0 39 -37t-39 -37z" />
    <glyph glyph-name="u" unicode="u" horiz-adv-x="499" 
d="M349 171l-10 225q0 27 13.5 43.5t32.5 16.5t31 -15.5t12 -42t-6 -74.5q-12 -96 -12 -172q0 -30 19.5 -57.5t19.5 -49.5t-15 -36.5t-34 -14.5q-50 0 -50 79q-47 -79 -118 -79q-57 0 -90.5 41t-46.5 100l-38 172q-6 29 -26.5 51.5t-20.5 45.5t16 37.5t38 14.5q50 0 65 -79
l38 -209q19 -100 95 -100q37 0 61 29.5t26 73.5z" />
    <glyph glyph-name="v" unicode="v" horiz-adv-x="473" 
d="M43 349q-23 41 -23 61.5t12 33t35 12.5t43 -37.5t68 -156t69 -178.5l8 -22q35 22 77.5 102.5t42.5 145.5q0 22 -12 53.5t-12 48.5t13.5 30.5t36.5 13.5t37.5 -21.5t14.5 -73t-36 -139.5t-89 -155q-58 -73 -103 -73q-32 0 -52 53q-69 191 -130 302z" />
    <glyph glyph-name="w" unicode="w" horiz-adv-x="716" 
d="M200 -6q-18 0 -31.5 15.5t-20.5 37.5q-62 202 -109 302q-19 43 -19 63t11 32t28 12q26 0 42.5 -39t61 -159.5t53.5 -149t12 -36.5l3 -10q28 19 63.5 79t48.5 119q-19 51 -37 91.5t-18 60.5t11 32t28 12q26 0 42.5 -39t61 -159.5t53.5 -149t12 -36.5l3 -10
q36 24 77.5 104.5t41.5 145.5q0 22 -12 52.5t-12 47.5t13.5 30.5t36.5 13.5t37.5 -22t14.5 -74t-34.5 -141t-89.5 -157t-104 -68q-34 0 -52 53q-4 11 -18 55l-25 73q-37 -77 -84 -129t-89 -52z" />
    <glyph glyph-name="x" unicode="x" horiz-adv-x="462" 
d="M99 4.5q-14 -10.5 -30 -10.5t-27.5 11.5t-11.5 29t14 34.5t41 39.5t42 38.5t67 83q-62 72 -107 116t-45 69q0 16 11.5 28.5t29.5 12.5q30 0 56 -35q42 -57 100 -132q99 132 113.5 149.5t31.5 17.5q33 0 33 -33q0 -22 -27 -45q-45 -41 -117 -133q85 -110 134 -161
q25 -28 25 -46.5t-10.5 -31t-26.5 -12.5q-30 0 -62 53q-36 56 -104 140q-43 -60 -72 -105t-36.5 -56t-21.5 -21.5z" />
    <glyph glyph-name="y" unicode="y" horiz-adv-x="490" 
d="M421 127l-2 -140q0 -98 -86 -187.5t-192 -89.5q-53 0 -92 30t-39 65q0 18 12.5 32t30 14t32 -10t27 -22t38 -22t57.5 -10q63 0 108 46.5t45 110.5q0 88 -1 125q-46 -75 -115 -75q-57 0 -90.5 41t-46.5 100l-38 172q-6 29 -26.5 51.5t-20.5 45.5t16 37.5t35 14.5t31 -7
t20 -21q11 -21 17 -51l44 -209q11 -49 29.5 -74.5t57.5 -25.5t62.5 29.5t23.5 73.5l-7 225q0 27 13.5 43.5t32.5 16.5t31 -15.5t12 -42t-6 -74.5q-13 -104 -13 -197z" />
    <glyph glyph-name="z" unicode="z" horiz-adv-x="455" 
d="M223 387l-124 -6q-16 0 -27.5 9.5t-11.5 27.5t12 28t27 10l124 -6l137 6q39 0 39 -38q0 -33 -32 -68q-181 -196 -199 -221.5t-18 -34.5q0 -33 92 -33q63 0 117 33q18 11 29 11q19 0 19 -16q0 -26 -67 -60.5t-136.5 -34.5t-110.5 26t-41 52.5t28 61.5q8 10 95.5 109
t122.5 140q-50 4 -75 4z" />
    <glyph glyph-name="braceleft" unicode="{" horiz-adv-x="358" 
d="M26 212q-17 0 -17 18t17 18q36 0 63 29t27 86q0 28 -13 99t-13 95q0 93 48 143.5t107.5 50.5t59.5 -53q0 -22 -13.5 -35.5t-25.5 -13.5t-25 11.5t-31.5 11.5t-33.5 -19t-15 -55t13 -102t13 -93q0 -107 -85 -170q85 -61 85 -176q0 -23 -13 -78.5t-13 -85.5q0 -52 27 -78.5
t57 -26.5t45 -10.5t15 -25.5q0 -43 -59.5 -43t-107.5 58.5t-48 165.5q0 20 13 80.5t13 83.5q0 57 -27 86t-63 29z" />
    <glyph glyph-name="bar" unicode="|" horiz-adv-x="170" 
d="M50 -19l7 367q0 82 -3.5 219.5t-3.5 146.5t10 20.5t25 11.5t25 -11.5t10 -20.5t-3.5 -146.5t-3.5 -219.5l7 -367q0 -15 -10 -26t-25 -11t-25 11t-10 26z" />
    <glyph glyph-name="braceright" unicode="}" horiz-adv-x="358" 
d="M288 248q17 0 17 -18t-17 -18q-36 0 -63 -29t-27 -86q0 -28 13 -99t13 -95q0 -93 -48 -143.5t-107.5 -50.5t-59.5 53q0 22 13.5 35.5t25.5 13.5t25 -11.5t31.5 -11.5t33.5 19t15 55t-13 102t-13 93q0 107 85 170q-85 61 -85 176q0 23 13 78.5t13 85.5q0 52 -27 78.5
t-57 26.5t-45 10.5t-15 25.5q0 43 59.5 43t107.5 -58.5t48 -165.5q0 -20 -13 -80.5t-13 -83.5q0 -57 27 -86t63 -29z" />
    <glyph glyph-name="asciitilde" unicode="~" horiz-adv-x="453" 
d="M418 331q0 -42 -43 -94.5t-92 -52.5q-32 0 -74 29t-68.5 29t-42 -9t-19.5 -20q-11 -29 -22 -29q-22 0 -22 22q0 33 31.5 66.5t80.5 33.5t101 -20t71.5 -20t34 13.5t19.5 28.5q14 43 26 43q19 0 19 -20z" />
    <glyph glyph-name="exclamdown" unicode="&#xa1;" horiz-adv-x="239" 
d="M164.5 442.5q14.5 -13.5 14.5 -40t-18.5 -46t-44 -19.5t-41 14.5t-15.5 41t19.5 45t45 18.5t40 -13.5zM115 -246q-21 0 -35 15t-14 32t11 148t11 275q0 12 8 20.5t19 8.5t18.5 -8.5t7.5 -20.5q0 -144 11 -275t11 -148t-13.5 -32t-34.5 -15z" />
    <glyph glyph-name="cent" unicode="&#xa2;" horiz-adv-x="411" 
d="M381 207q0 -21 -43 -55.5t-99 -50.5q2 -50 2 -69t-8.5 -28.5t-22.5 -9.5t-23.5 10t-9.5 25q0 40 1 63q-68 0 -113 48.5t-45 122t45 146t115 112.5q-1 29 -1 86q0 15 9.5 25t23 10t22 -9.5t8.5 -36.5t-1 -49q27 7 57 7q83 0 83 -53q0 -20 -12.5 -34.5t-27 -14.5t-45.5 12
t-61 12q-63 0 -106 -44.5t-43 -108.5t43.5 -108t107.5 -44q54 0 101 41q16 14 24 14t13.5 -6t5.5 -13z" />
    <glyph glyph-name="sterling" unicode="&#xa3;" horiz-adv-x="538" 
d="M160 272l-85 -9q-16 0 -26 10.5t-10 26.5t10 26t22 10t33 -3.5t35 -4.5q-15 49 -15 80q0 111 68.5 172.5t149.5 61.5t81 -53q0 -22 -13.5 -35.5t-29 -13.5t-38.5 11.5t-55 11.5t-58 -29t-26 -84t30 -125q31 1 61.5 6t42.5 5t22 -10t10 -26t-10 -26.5t-23 -10.5t-38 3.5
t-45 4.5q6 -28 6 -43q0 -97 -39 -161l247 5q16 0 28.5 -10.5t12.5 -28.5t-12.5 -28.5t-28.5 -10.5l-152 6l-211 -6q-74 0 -74 53q0 20 13.5 32t26.5 12t28.5 -9t34.5 -9t33 29t14 72t-20 98z" />
    <glyph glyph-name="currency" unicode="&#xa4;" horiz-adv-x="504" 
d="M360 131q-59 -43 -126.5 -43t-114.5 30q-35 -30 -53 -30q-31 0 -31 31q0 19 29 51q-29 43 -29 94q0 85 44 147q-44 44 -44 67q0 31 31 31q22 0 66 -44q61 45 125.5 45t116.5 -30q31 29 51 29q31 0 31 -31q0 -20 -27 -50q30 -42 30 -94q0 -87 -46 -149q43 -45 43 -66
q0 -31 -31 -31q-24 0 -65 43zM94 299q0 -64 44.5 -108.5t108 -44.5t106.5 44.5t43 108.5t-43 108t-106.5 44t-108 -44t-44.5 -108z" />
    <glyph glyph-name="yen" unicode="&#xa5;" horiz-adv-x="629" 
d="M355 203q84 7 120 7t36 -32t-39 -32q-23 0 -116 7l7 -107q0 -20 -13.5 -36t-34.5 -16t-34.5 16t-13.5 36l6 107q-93 -7 -117 -7q-39 0 -39 32t39 32q28 0 119 -7l1 73q-84 -7 -121.5 -7t-37.5 32t34.5 32t98.5 -6q-8 12 -19.5 28t-28 40t-31.5 45t-38.5 50.5t-36.5 45.5
q-30 37 -30 62q0 44 44 44q14 0 29 -13.5t25.5 -31t31 -52t63 -96.5t69.5 -94q54 54 130 195q28 52 44 72t32 20q35 0 35 -39q0 -17 -9 -33t-15 -26t-18 -25.5t-20.5 -26.5t-25 -32t-47 -60.5t-60.5 -72.5q68 6 102.5 6t34.5 -32t-39 -32q-25 0 -118 7q0 -52 1 -73z" />
    <glyph glyph-name="brokenbar" unicode="&#xa6;" horiz-adv-x="170" 
d="M50 -19l7 119q0 27 -3.5 71.5t-3.5 53t10 20t25 11.5t25 -11.5t10 -20t-3.5 -53t-3.5 -71.5l7 -119q0 -15 -10 -26t-25 -11t-25 11t-10 26zM50 471l7 119q0 27 -3.5 71.5t-3.5 53t10 20t25 11.5t25 -11.5t10 -20t-3.5 -53t-3.5 -71.5l7 -119q0 -15 -10 -26t-25 -11
t-25 11t-10 26z" />
    <glyph glyph-name="section" unicode="&#xa7;" horiz-adv-x="572" 
d="M487 281q0 -101 -87 -171q112 -51 112 -164q0 -94 -78.5 -164t-197.5 -70q-79 0 -127.5 39.5t-48.5 82.5q0 23 13 37.5t32.5 14.5t33.5 -11.5t26.5 -28.5t28.5 -34q36 -40 101.5 -40t105.5 38t40 93t-34 84.5t-82.5 46t-97 34.5t-82.5 54.5t-34 97t36 104t91 66.5
q-72 27 -111 61.5t-39 93t25.5 99t64.5 62.5q75 43 142.5 43t118.5 -28.5t51 -70.5q0 -21 -12 -34t-34 -13t-41.5 13.5t-32.5 29.5t-39.5 29.5t-64.5 13.5t-69.5 -28t-31.5 -66.5t24 -63.5t59.5 -37t77.5 -28.5t77.5 -34.5t59.5 -56.5t24 -93.5zM416 246q0 37 -21 63
q-47 45 -95.5 45t-80 -28t-31.5 -68q0 -37 16 -52l22 -24q15 -14 68.5 -32.5t60.5 -21.5q61 39 61 118z" />
    <glyph glyph-name="dieresis" unicode="&#xa8;" horiz-adv-x="383" 
d="M251.5 558.5q-11.5 10.5 -11.5 31.5t14.5 36t34.5 15t32 -11t12 -32t-15 -35.5t-35 -14.5t-31.5 10.5zM61.5 558.5q-11.5 10.5 -11.5 31.5t14.5 36t34.5 15t32 -11t12 -32t-15 -35.5t-35 -14.5t-31.5 10.5z" />
    <glyph glyph-name="copyright" unicode="&#xa9;" horiz-adv-x="782" 
d="M148 96.5q-98 102.5 -98 249t98.5 248.5t242.5 102t242.5 -102t98.5 -248.5t-98 -249t-243 -102.5t-243 102.5zM182 561q-78 -82 -78 -205.5t87.5 -215t209 -91.5t199.5 82t78 205.5t-87.5 215t-209 91.5t-199.5 -82zM439 572q51 0 89.5 -25t38.5 -59q0 -19 -12 -31.5
t-36 -12.5t-45 24l-8 9q-7 9 -10 11.5t-12 9.5q-22 20 -61 20q-50 0 -83.5 -49t-33.5 -117t43 -123.5t106 -55.5q33 0 64.5 18t45.5 36t22.5 18t13 -4.5t4.5 -10.5q0 -28 -57 -70.5t-135.5 -42.5t-134.5 49.5t-56 134.5q0 115 73.5 193t183.5 78z" />
    <glyph glyph-name="ordfeminine" unicode="&#xaa;" horiz-adv-x="360" 
d="M306.5 440q20.5 -18 20.5 -32t-12 -25t-35.5 -11t-43.5 39l-11 21q-35 -60 -107 -60q-37 0 -61 22.5t-24 57.5q0 53 37.5 91.5t96.5 41.5q-16 26 -36 36t-28.5 10t-18 -1t-21 5.5t-11.5 24t11.5 27t27.5 9.5q61 0 96.5 -28t60.5 -101l33 -97q5 -12 25.5 -30zM107.5 523.5
q-18.5 -13.5 -18.5 -37t16.5 -40t40.5 -16.5t42.5 16t18.5 38t-10 42q-24 11 -47.5 11t-42 -13.5z" />
    <glyph glyph-name="guillemotleft" unicode="&#xab;" horiz-adv-x="499" 
d="M255 484q14 0 14 -14q0 -10 -12 -22.5t-39 -35.5q-93 -83 -93 -126q0 -40 93 -122q27 -24 39 -36.5t12 -22.5q0 -14 -14 -14t-51 26.5t-69 58.5q-85 85 -85 111.5t85 111.5q32 32 69 58.5t51 26.5zM435 484q14 0 14 -14q0 -10 -12 -22.5t-39 -35.5q-93 -83 -93 -126
q0 -40 93 -122q27 -24 39 -36.5t12 -22.5q0 -14 -14 -14t-51 26.5t-69 58.5q-85 85 -85 111.5t85 111.5q32 32 69 58.5t51 26.5z" />
    <glyph glyph-name="logicalnot" unicode="&#xac;" horiz-adv-x="533" 
d="M400 193l6 75q-111 3 -139 3l-184 -4q-14 0 -23.5 9.5t-9.5 23.5t9.5 23t23.5 9l184 -5l184 5q29 0 32 -32q7 -65 7 -107q0 -19 -12.5 -33t-32.5 -14t-32.5 14t-12.5 33z" />
    <glyph glyph-name="uni00AD" unicode="&#xad;" horiz-adv-x="370" 
d="M185 330q32 0 63.5 3t41.5 3t20 -10t10 -26t-10 -26.5t-20 -10.5t-41.5 2.5t-63.5 2.5t-63.5 -2.5t-41.5 -2.5t-20 10.5t-10 26.5t10 26t20 10t41.5 -3t63.5 -3z" />
    <glyph glyph-name="registered" unicode="&#xae;" horiz-adv-x="782" 
d="M148 96.5q-98 102.5 -98 249t98.5 248.5t242.5 102t242.5 -102t98.5 -248.5t-98 -249t-243 -102.5t-243 102.5zM260 160l6 186q0 72 -3 115t-3 52h-11q-11 0 -19 8.5t-8 21.5t8 21t19 8l67 -4l96 4q58 0 100.5 -28t42.5 -84.5t-31 -93t-76 -54.5q34 -17 75.5 -67
t41.5 -85q0 -18 -10 -29t-28 -11t-28.5 16.5t-27 50t-39.5 59.5q-49 53 -100 68l6 -154q0 -18 -11 -29t-27 -11t-28 11t-12 29zM380 517q-28 0 -42 -1q0 -7 -2 -34q-4 -54 -4 -122q28 -15 61.5 -15t64.5 23t31 66q0 83 -109 83zM182 561q-78 -82 -78 -205.5t87.5 -215
t209 -91.5t199.5 82t78 205.5t-87.5 215t-209 91.5t-199.5 -82z" />
    <glyph glyph-name="macron" unicode="&#xaf;" horiz-adv-x="353" 
d="M78 608l99 -4l99 4q14 0 22 -8t8 -22t-8.5 -22.5t-21.5 -8.5l-99 3l-99 -3q-14 0 -22.5 8.5t-8.5 22t8.5 22t22.5 8.5z" />
    <glyph glyph-name="degree" unicode="&#xb0;" horiz-adv-x="334" 
d="M77.5 428q-32.5 30 -32.5 79t40.5 92t89 43t81.5 -31t33 -79t-40.5 -91t-89.5 -43t-81.5 30zM122 562q-19 -18 -19 -43t19 -44t44 -19t43 19t18 44t-18 43t-43 18t-44 -18z" />
    <glyph glyph-name="plusminus" unicode="&#xb1;" horiz-adv-x="470" 
d="M202 319l-116 -5q-16 0 -26 10.5t-10 26.5t10 26t26 10l116 -6l-5 89q0 16 10 26t26 10t26.5 -10t10.5 -26l-5 -89l119 6q16 0 26 -10t10 -26t-10 -26.5t-26 -10.5l-119 5l5 -87q0 -16 -10.5 -26t-26.5 -10t-26 10t-10 26zM235 99l-149 -5q-16 0 -26 10.5t-10 26.5t10 26
t20.5 10t63 -3t91.5 -3t91.5 3t63 3t20.5 -10t10 -26t-10 -26.5t-26 -10.5z" />
    <glyph glyph-name="twosuperior" unicode="&#xb2;" horiz-adv-x="387" 
d="M187 289l-93 -3q-13 0 -23.5 10.5t-10.5 30.5t25 41q8 7 36 27.5t40 30.5t28.5 23.5t23 19.5t16.5 17q18 20 18 41t-15.5 33.5t-42.5 12.5q-46 0 -69 -46q-2 -4 -3 -5.5t-3 -5t-3 -4.5l-3 -3q-4 -3 -12 -3t-15 7.5t-7 18.5q0 40 45.5 75t94 35t77.5 -25.5t29 -61.5
q0 -63 -108 -151q-26 -21 -45 -36l-19 -14q39 0 82.5 8t56.5 8t26.5 -10.5t13.5 -30t-12.5 -31.5t-33.5 -12z" />
    <glyph glyph-name="threesuperior" unicode="&#xb3;" horiz-adv-x="372" 
d="M193 468l-30 -5q-18 0 -18 19q0 16 19 33q44 36 69 64q-44 0 -78.5 -10.5t-49 -10.5t-27.5 10.5t-13 30.5q0 43 47 43l80 -3l79 3q15 0 26.5 -10.5t11.5 -26.5t-15 -33.5t-54 -48.5q30 -12 51 -39.5t21 -62.5q0 -57 -39 -96t-91.5 -39t-87 25.5t-34.5 56.5q0 19 12.5 33
t27.5 14t24 -9.5t15 -21.5t21 -21.5t37 -9.5t39.5 15t17.5 42.5t-21.5 42.5t-39.5 15z" />
    <glyph glyph-name="acute" unicode="&#xb4;" horiz-adv-x="296" 
d="M50 525q0 6 8 14q103 103 150 103q15 0 26.5 -10.5t11.5 -25.5q0 -33 -37 -40q-78 -14 -135 -48q-8 -5 -12 -5q-12 0 -12 12z" />
    <glyph glyph-name="mu" unicode="&#xb5;" horiz-adv-x="499" 
d="M349 171l-10 225q0 27 13.5 43.5t32.5 16.5t31 -15.5t12 -42t-6 -74.5q-12 -96 -12 -172q0 -30 19.5 -57.5t19.5 -49.5t-15 -36.5t-34 -14.5q-50 0 -50 79q-47 -79 -118 -79q-46 0 -75 26l7 -254q0 -58 -49 -58q-21 0 -35 14.5t-14 38t12 51.5t12 73t5 250l-38 172
q-6 29 -26.5 51.5t-20.5 45.5t16 37.5t38 14.5q50 0 65 -79l38 -209q19 -100 95 -100q37 0 61 29.5t26 73.5z" />
    <glyph glyph-name="mu" unicode="&#x3bc;" horiz-adv-x="499" 
d="M349 171l-10 225q0 27 13.5 43.5t32.5 16.5t31 -15.5t12 -42t-6 -74.5q-12 -96 -12 -172q0 -30 19.5 -57.5t19.5 -49.5t-15 -36.5t-34 -14.5q-50 0 -50 79q-47 -79 -118 -79q-46 0 -75 26l7 -254q0 -58 -49 -58q-21 0 -35 14.5t-14 38t12 51.5t12 73t5 250l-38 172
q-6 29 -26.5 51.5t-20.5 45.5t16 37.5t38 14.5q50 0 65 -79l38 -209q19 -100 95 -100q37 0 61 29.5t26 73.5z" />
    <glyph glyph-name="paragraph" unicode="&#xb6;" horiz-adv-x="494" 
d="M324 690l61 6q14 0 24.5 -9.5t10.5 -24t-10.5 -24t-27 -9.5t-24.5 1q-37 -38 -37 -130.5t1 -130.5q38 16 42 60v5q0 20 10.5 35t26.5 15t26.5 -13.5t10.5 -40t-7 -105t-7 -141t12.5 -93.5t12.5 -48.5t-10.5 -33t-28 -15.5t-27 19.5t-9.5 47.5q0 178 -8 306
q-17 -20 -43 -37q3 -97 9 -211t6 -247q0 -162 -63 -162q-44 0 -44 57q0 20 10 59q29 115 29 301q0 40 -5 178q-23 -5 -43 -5q-83 0 -137.5 46t-54.5 131.5t65 152t148 66.5zM268 636q-37 0 -67 -35t-30 -102q0 -125 91 -136q-2 29 -2 83q0 132 67 187q-22 3 -59 3z" />
    <glyph glyph-name="periodcentered" unicode="&#xb7;" horiz-adv-x="262" 
d="M89 182q-14 13 -14 38.5t17.5 43.5t42 18t39 -13.5t14.5 -39t-18 -43t-42.5 -17.5t-38.5 13z" />
    <glyph glyph-name="cedilla" unicode="&#xb8;" horiz-adv-x="263" 
d="M129 -130l-52 -7q-9 0 -15 6t-6 18.5t28.5 35t28.5 45.5q0 26 -30 26v17h47l-2 -11q4 0 9 -10.5t5 -18.5q0 -27 -13 -37q37 0 60.5 -21.5t23.5 -58.5q0 -60 -42 -102t-78 -42q-18 0 -30.5 12t-12.5 31t14 34t27 15t23 -7t21 -7t22 13.5t11 30t-10.5 27.5t-28.5 11z" />
    <glyph glyph-name="onesuperior" unicode="&#xb9;" horiz-adv-x="312" 
d="M229 471l3 -129q0 -23 -11.5 -39t-32 -16t-33 13.5t-12.5 28.5t8 30.5t11 28t3 84t-4 95.5q0 7 -9.5 7t-27 -6.5t-28.5 -6.5t-23.5 11t-12.5 28t13 28t28 11l108 3q22 0 22 -19z" />
    <glyph glyph-name="ordmasculine" unicode="&#xba;" horiz-adv-x="353" 
d="M30 497q0 81 50.5 140t125.5 59q53 0 85 -37t32 -88q0 -82 -50.5 -140.5t-125.5 -58.5q-53 0 -85 36.5t-32 88.5zM240 460.5q26 29.5 26 73t-26 74t-63.5 30.5t-63.5 -30.5t-26 -74t26 -73t63.5 -29.5t63.5 29.5z" />
    <glyph glyph-name="guillemotright" unicode="&#xbb;" horiz-adv-x="499" 
d="M184 399q85 -85 85 -111.5t-85 -111.5q-32 -32 -69 -58.5t-51 -26.5t-14 14q0 10 12 22.5t38 36.5q94 82 94 122q0 43 -94 126q-26 23 -38 35.5t-12 22.5q0 14 14 14t51 -26.5t69 -58.5zM364 399q85 -85 85 -111.5t-85 -111.5q-32 -32 -69 -58.5t-51 -26.5t-14 14
q0 10 12 22.5t38 36.5q94 82 94 122q0 43 -94 126q-26 23 -38 35.5t-12 22.5q0 14 14 14t51 -26.5t69 -58.5z" />
    <glyph glyph-name="onequarter" unicode="&#xbc;" horiz-adv-x="742" 
d="M647 170q16 0 25.5 -9.5t9.5 -25t-10 -25.5t-18.5 -10t-38.5 2q1 -16 11 -36t10 -33.5t-12.5 -26t-33 -12.5t-32 12t-11.5 29t3 68h-20l-100 -3q-15 0 -25 10t-10 26.5t44.5 80t91 100t83 36.5t36.5 -40q0 -15 -8 -24.5t-21 -9.5h-4q-3 -27 -3 -111zM548 274
q-47 -24 -89 -104q45 -3 71 -3h20zM229 471l3 -129q0 -23 -11.5 -39t-32 -16t-33 13.5t-12.5 28.5t8 30.5t11 28t3 84t-4 95.5q0 7 -9.5 7t-27 -6.5t-28.5 -6.5t-23.5 11t-12.5 28t13 28t28 11l108 3q22 0 22 -19zM618 598q0 -21 -21.5 -49.5t-82 -98.5t-104 -127
t-81.5 -111t-61.5 -89t-47.5 -67q-46 -62 -77 -62q-38 0 -38 39q0 18 29.5 55.5t96 114t113.5 140.5t102.5 149t83 117.5t50.5 32.5q38 0 38 -44z" />
    <glyph glyph-name="onehalf" unicode="&#xbd;" horiz-adv-x="766" 
d="M229 471l3 -129q0 -23 -11.5 -39t-32 -16t-33 13.5t-12.5 28.5t8 30.5t11 28t3 84t-4 95.5q0 7 -9.5 7t-27 -6.5t-28.5 -6.5t-23.5 11t-12.5 28t13 28t28 11l108 3q22 0 22 -19zM618 598q0 -21 -21.5 -49.5t-82 -98.5t-104 -127t-81.5 -111t-61.5 -89t-47.5 -67
q-46 -62 -77 -62q-38 0 -38 39q0 18 29.5 55.5t96 114t113.5 140.5t102.5 149t83 117.5t50.5 32.5q38 0 38 -44zM566 -3l-93 -3q-13 0 -23.5 10.5t-10.5 30.5t25 41q8 7 36 27.5t40 30.5t28.5 23.5t23 19.5t16.5 17q18 20 18 41t-15.5 33.5t-42.5 12.5q-46 0 -69 -46
q-2 -4 -3 -5.5t-3 -5t-3 -4.5t-4 -3q-3 -3 -11 -3t-15 7.5t-7 18.5q0 40 45.5 75t94 35t77.5 -25.5t29 -61.5q0 -63 -107 -151q-27 -21 -46 -36l-19 -14q39 0 82.5 8t56.5 8t26.5 -10.5t13.5 -30t-12.5 -31.5t-33.5 -12z" />
    <glyph glyph-name="threequarters" unicode="&#xbe;" horiz-adv-x="772" 
d="M677 170q16 0 25.5 -9.5t9.5 -25t-10 -25.5t-18.5 -10t-38.5 2q1 -16 11 -36t10 -33.5t-12.5 -26t-33 -12.5t-32 12t-11.5 29t3 68h-20l-100 -3q-15 0 -25 10t-10 26.5t44.5 80t91 100t83 36.5t36.5 -40q0 -15 -8 -24.5t-21 -9.5h-4q-3 -27 -3 -111zM578 274
q-47 -24 -89 -104q45 -3 71 -3h20zM648 598q0 -21 -21.5 -49.5t-82 -98.5t-104 -127t-81.5 -111t-61.5 -89t-47.5 -67q-46 -62 -77 -62q-38 0 -38 39q0 18 29.5 55.5t96 114t113.5 140.5t102.5 149t83 117.5t50.5 32.5q38 0 38 -44zM192 639l79 3q15 0 26.5 -10.5
t11.5 -26.5t-15 -33.5t-54 -48.5q30 -12 51 -39.5t21 -62.5q0 -57 -39 -96t-91.5 -39t-87 25.5t-34.5 56.5q0 19 12.5 33t32 14t34.5 -31q6 -12 21 -21.5t37 -9.5t39.5 15t17.5 42.5t-21.5 42.5t-39.5 15l-30 -5q-18 0 -18 19q0 16 19 33q44 36 69 64q-44 0 -78.5 -10.5
t-49 -10.5t-27.5 10.5t-13 30.5q0 43 47 43z" />
    <glyph glyph-name="questiondown" unicode="&#xbf;" horiz-adv-x="454" 
d="M308.5 442.5q14.5 -13.5 14.5 -40t-18.5 -46t-44 -19.5t-41 14.5t-15.5 41t19.5 45t45 18.5t40 -13.5zM244 230q0 10 6.5 16.5t14.5 6.5t14.5 -6.5t6.5 -16.5q0 -76 -55 -128q-23 -21 -46 -41.5t-39 -50t-16 -75t28 -80.5t69 -35t70 19t43 41.5t26.5 41.5t19.5 19
q18 0 18 -18q0 -33 -48 -96q-23 -30 -65 -51.5t-94.5 -21.5t-99.5 47.5t-47 106.5t20 98.5t48.5 63.5t57.5 46q68 53 68 114z" />
    <glyph glyph-name="Agrave" unicode="&#xc0;" horiz-adv-x="679" 
d="M507 300l-166 5l-127 -3q-9 -21 -19.5 -53t-27.5 -74.5t-39 -85.5q-49 -95 -94 -95q-39 0 -39 44q0 28 55 82q23 21 52.5 69t51.5 111h-36q-16 0 -27.5 9.5t-11.5 26.5t12 28t26 11l70 -1q85 189 161 261q-39 0 -118 -7.5t-95.5 -7.5t-28.5 9.5t-12 27t12.5 28.5t27.5 11
l218 -6l237 6q18 0 29 -11t11 -28q0 -37 -41 -37h-24q0 -160 13 -289t26 -199t13 -88.5t-11.5 -34t-31 -15.5t-33.5 14t-15 40zM489 632l-25 1q-113 -11 -220 -260q86 -2 106 -2t152 4q-13 221 -13 257zM450 762q0 -12 -12 -12q-4 0 -12 5q-57 34 -135 48q-37 7 -37 40
q0 15 11.5 25.5t26.5 10.5q47 0 150 -103q8 -8 8 -14z" />
    <glyph glyph-name="Aacute" unicode="&#xc1;" horiz-adv-x="679" 
d="M507 300l-166 5l-127 -3q-9 -21 -19.5 -53t-27.5 -74.5t-39 -85.5q-49 -95 -94 -95q-39 0 -39 44q0 28 55 82q23 21 52.5 69t51.5 111h-36q-16 0 -27.5 9.5t-11.5 26.5t12 28t26 11l70 -1q85 189 161 261q-39 0 -118 -7.5t-95.5 -7.5t-28.5 9.5t-12 27t12.5 28.5t27.5 11
l218 -6l237 6q18 0 29 -11t11 -28q0 -37 -41 -37h-24q0 -160 13 -289t26 -199t13 -88.5t-11.5 -34t-31 -15.5t-33.5 14t-15 40zM489 632l-25 1q-113 -11 -220 -260q86 -2 106 -2t152 4q-13 221 -13 257zM364 762q0 6 8 14q103 103 150 103q15 0 26.5 -10.5t11.5 -25.5
q0 -33 -37 -40q-78 -14 -135 -48q-8 -5 -12 -5q-12 0 -12 12z" />
    <glyph glyph-name="Acircumflex" unicode="&#xc2;" horiz-adv-x="679" 
d="M507 300l-166 5l-127 -3q-9 -21 -19.5 -53t-27.5 -74.5t-39 -85.5q-49 -95 -94 -95q-39 0 -39 44q0 28 55 82q23 21 52.5 69t51.5 111h-36q-16 0 -27.5 9.5t-11.5 26.5t12 28t26 11l70 -1q85 189 161 261q-39 0 -118 -7.5t-95.5 -7.5t-28.5 9.5t-12 27t12.5 28.5t27.5 11
l218 -6l237 6q18 0 29 -11t11 -28q0 -37 -41 -37h-24q0 -160 13 -289t26 -199t13 -88.5t-11.5 -34t-31 -15.5t-33.5 14t-15 40zM489 632l-25 1q-113 -11 -220 -260q86 -2 106 -2t152 4q-13 221 -13 257zM541 776q6 -7 6 -16.5t-9 -9.5q-3 0 -10 5q-52 40 -105 52
q-53 -12 -105 -52q-7 -5 -10 -5q-9 0 -9 9t6 17q79 103 116.5 103t119.5 -103z" />
    <glyph glyph-name="Atilde" unicode="&#xc3;" horiz-adv-x="679" 
d="M507 300l-166 5l-127 -3q-9 -21 -19.5 -53t-27.5 -74.5t-39 -85.5q-49 -95 -94 -95q-39 0 -39 44q0 28 55 82q23 21 52.5 69t51.5 111h-36q-16 0 -27.5 9.5t-11.5 26.5t12 28t26 11l70 -1q85 189 161 261q-39 0 -118 -7.5t-95.5 -7.5t-28.5 9.5t-12 27t12.5 28.5t27.5 11
l218 -6l237 6q18 0 29 -11t11 -28q0 -37 -41 -37h-24q0 -160 13 -289t26 -199t13 -88.5t-11.5 -34t-31 -15.5t-33.5 14t-15 40zM489 632l-25 1q-113 -11 -220 -260q86 -2 106 -2t152 4q-13 221 -13 257zM569 863q0 -32 -33 -72.5t-71 -40.5q-25 0 -57 22.5t-52.5 22.5
t-32.5 -7t-15 -16q-8 -22 -17 -22q-17 0 -17 21.5t24.5 47t62 25.5t77.5 -15.5t57.5 -15.5t28.5 16.5t17 33t13 16.5q15 0 15 -16z" />
    <glyph glyph-name="Adieresis" unicode="&#xc4;" horiz-adv-x="679" 
d="M507 300l-166 5l-127 -3q-9 -21 -19.5 -53t-27.5 -74.5t-39 -85.5q-49 -95 -94 -95q-39 0 -39 44q0 28 55 82q23 21 52.5 69t51.5 111h-36q-16 0 -27.5 9.5t-11.5 26.5t12 28t26 11l70 -1q85 189 161 261q-39 0 -118 -7.5t-95.5 -7.5t-28.5 9.5t-12 27t12.5 28.5t27.5 11
l218 -6l237 6q18 0 29 -11t11 -28q0 -37 -41 -37h-24q0 -160 13 -289t26 -199t13 -88.5t-11.5 -34t-31 -15.5t-33.5 14t-15 40zM489 632l-25 1q-113 -11 -220 -260q86 -2 106 -2t152 4q-13 221 -13 257zM461.5 798.5q-11.5 10.5 -11.5 31.5t14.5 36t34.5 15t32 -11t12 -32
t-15 -35.5t-35 -14.5t-31.5 10.5zM271.5 798.5q-11.5 10.5 -11.5 31.5t14.5 36t34.5 15t32 -11t12 -32t-15 -35.5t-35 -14.5t-31.5 10.5z" />
    <glyph glyph-name="Aring" unicode="&#xc5;" horiz-adv-x="679" 
d="M507 300l-166 5l-127 -3q-9 -21 -19.5 -53t-27.5 -74.5t-39 -85.5q-49 -95 -94 -95q-39 0 -39 44q0 28 55 82q23 21 52.5 69t51.5 111h-36q-16 0 -27.5 9.5t-11.5 26.5t12 28t26 11l70 -1q85 189 161 261q-39 0 -118 -7.5t-95.5 -7.5t-28.5 9.5t-12 27t12.5 28.5t27.5 11
l218 -6l237 6q18 0 29 -11t11 -28q0 -37 -41 -37h-24q0 -160 13 -289t26 -199t13 -88.5t-11.5 -34t-31 -15.5t-33.5 14t-15 40zM489 632l-25 1q-113 -11 -220 -260q86 -2 106 -2t152 4q-13 221 -13 257zM391.5 767q-18.5 17 -18.5 44.5t23 52t50.5 24.5t46 -17t18.5 -44.5
t-23 -52t-50.5 -24.5t-46 17zM417 843q-10 -10 -10 -24.5t10 -24.5t24.5 -10t24.5 10t10 24.5t-10 24.5t-24.5 10t-24.5 -10z" />
    <glyph glyph-name="AE" unicode="&#xc6;" horiz-adv-x="993" 
d="M165 696l362 -6l372 6q16 0 28.5 -10.5t12.5 -28.5t-12.5 -28.5t-28.5 -10.5q-41 0 -138.5 7t-147.5 8q0 -12 -2 -45q-6 -97 -6 -183q52 -4 97.5 -4t93 3t58 3t20.5 -10t10 -26t-10 -26.5t-26 -10.5l-139 5q-52 0 -104 -4q0 -122 4.5 -191t4.5 -78l298 6q16 0 28.5 -10.5
t12.5 -28.5t-12.5 -28.5t-28.5 -10.5l-192 6l-157 -6q-19 0 -32 16t-13 34.5t4 98.5t5 157l-156 5l-127 -3q-9 -21 -15 -39q-38 -101 -90 -185t-98 -84t-46 44q0 30 65 81q26 21 61 67.5t61 107.5l2 6h-36q-16 0 -27.5 9.5t-11.5 26.5t12 28t26 11l70 -1q84 186 158 258
q-31 -2 -104.5 -8t-97.5 -6t-36.5 10.5t-12.5 28.5t12.5 28.5t28.5 10.5zM506 634q-120 0 -232 -261q86 -2 93.5 -2t159.5 4q-1 76 -9 259h-12z" />
    <glyph glyph-name="Ccedilla" unicode="&#xc7;" horiz-adv-x="656" 
d="M352 -130l-52 -7q-9 0 -15 6t-6 18.5t28.5 35t28.5 46.5t-30 26q-122 10 -201.5 102t-79.5 237t100.5 253.5t252.5 108.5q89 0 163.5 -35.5t74.5 -81.5q0 -20 -13.5 -34t-32.5 -14t-38 15t-36.5 33.5t-55 33.5t-88.5 15q-114 0 -179.5 -71.5t-65.5 -194t72 -211.5
t182.5 -89t201.5 106q20 24 29.5 24t15 -6.5t5.5 -15.5q0 -40 -75.5 -103.5t-180.5 -71.5q8 -12 8 -31.5t-13 -29.5q37 0 60.5 -21.5t23.5 -58.5q0 -60 -42 -102t-78 -42q-18 0 -30.5 12t-12.5 31t14 34t27 15t23 -7t21 -7t22 13.5t11 30t-10.5 27.5t-28.5 11z" />
    <glyph glyph-name="Egrave" unicode="&#xc8;" horiz-adv-x="599" 
d="M101 696l202 -6l202 6q16 0 28.5 -10.5t12.5 -28.5t-12.5 -28.5t-28.5 -10.5l-202 6q-26 0 -84 -2q0 -12 -2 -43q-6 -93 -6 -174q52 -4 97.5 -4t93 3t58 3t20.5 -10t10 -26t-10 -26.5t-26 -10.5l-139 5q-52 0 -104 -4q0 -122 4.5 -191t4.5 -78l298 6q16 0 28.5 -10.5
t12.5 -28.5t-12.5 -28.5t-28.5 -10.5l-192 6q-40 0 -95 -3t-59 -3q-21 0 -34.5 16t-13.5 32t4.5 111t4.5 183.5t-9 281.5h-23q-16 0 -28.5 10.5t-12.5 28.5t12.5 28.5t28.5 10.5zM400 762q0 -12 -12 -12q-4 0 -12 5q-57 34 -135 48q-37 7 -37 40q0 15 11.5 25.5t26.5 10.5
q47 0 150 -103q8 -8 8 -14z" />
    <glyph glyph-name="Eacute" unicode="&#xc9;" horiz-adv-x="599" 
d="M101 696l202 -6l202 6q16 0 28.5 -10.5t12.5 -28.5t-12.5 -28.5t-28.5 -10.5l-202 6q-26 0 -84 -2q0 -12 -2 -43q-6 -93 -6 -174q52 -4 97.5 -4t93 3t58 3t20.5 -10t10 -26t-10 -26.5t-26 -10.5l-139 5q-52 0 -104 -4q0 -122 4.5 -191t4.5 -78l298 6q16 0 28.5 -10.5
t12.5 -28.5t-12.5 -28.5t-28.5 -10.5l-192 6q-40 0 -95 -3t-59 -3q-21 0 -34.5 16t-13.5 32t4.5 111t4.5 183.5t-9 281.5h-23q-16 0 -28.5 10.5t-12.5 28.5t12.5 28.5t28.5 10.5zM254 762q0 6 8 14q103 103 150 103q15 0 26.5 -10.5t11.5 -25.5q0 -33 -37 -40
q-78 -14 -135 -48q-8 -5 -12 -5q-12 0 -12 12z" />
    <glyph glyph-name="Ecircumflex" unicode="&#xca;" horiz-adv-x="599" 
d="M101 696l202 -6l202 6q16 0 28.5 -10.5t12.5 -28.5t-12.5 -28.5t-28.5 -10.5l-202 6q-26 0 -84 -2q0 -12 -2 -43q-6 -93 -6 -174q52 -4 97.5 -4t93 3t58 3t20.5 -10t10 -26t-10 -26.5t-26 -10.5l-139 5q-52 0 -104 -4q0 -122 4.5 -191t4.5 -78l298 6q16 0 28.5 -10.5
t12.5 -28.5t-12.5 -28.5t-28.5 -10.5l-192 6q-40 0 -95 -3t-59 -3q-21 0 -34.5 16t-13.5 32t4.5 111t4.5 183.5t-9 281.5h-23q-16 0 -28.5 10.5t-12.5 28.5t12.5 28.5t28.5 10.5zM450 776q6 -7 6 -16.5t-9 -9.5q-3 0 -10 5q-52 40 -105 52q-53 -12 -105 -52q-7 -5 -10 -5
q-9 0 -9 9t6 17q79 103 116.5 103t119.5 -103z" />
    <glyph glyph-name="Edieresis" unicode="&#xcb;" horiz-adv-x="599" 
d="M101 696l202 -6l202 6q16 0 28.5 -10.5t12.5 -28.5t-12.5 -28.5t-28.5 -10.5l-202 6q-26 0 -84 -2q0 -12 -2 -43q-6 -93 -6 -174q52 -4 97.5 -4t93 3t58 3t20.5 -10t10 -26t-10 -26.5t-26 -10.5l-139 5q-52 0 -104 -4q0 -122 4.5 -191t4.5 -78l298 6q16 0 28.5 -10.5
t12.5 -28.5t-12.5 -28.5t-28.5 -10.5l-192 6q-40 0 -95 -3t-59 -3q-21 0 -34.5 16t-13.5 32t4.5 111t4.5 183.5t-9 281.5h-23q-16 0 -28.5 10.5t-12.5 28.5t12.5 28.5t28.5 10.5zM391.5 798.5q-11.5 10.5 -11.5 31.5t14.5 36t34.5 15t32 -11t12 -32t-15 -35.5t-35 -14.5
t-31.5 10.5zM201.5 798.5q-11.5 10.5 -11.5 31.5t14.5 36t34.5 15t32 -11t12 -32t-15 -35.5t-35 -14.5t-31.5 10.5z" />
    <glyph glyph-name="Igrave" unicode="&#xcc;" horiz-adv-x="236" 
d="M151.5 153q4.5 -95 4.5 -111t-13.5 -32t-34.5 -16t-34.5 16t-13.5 32t4.5 111t4.5 202t-4.5 195.5t-4.5 91.5q0 21 13.5 37.5t34.5 16.5t34.5 -16.5t13.5 -37.5q0 -3 -4.5 -91.5t-4.5 -195.5t4.5 -202zM176 762q0 -12 -12 -12q-4 0 -12 5q-57 34 -135 48q-37 7 -37 40
q0 15 11.5 25.5t26.5 10.5q47 0 150 -103q8 -8 8 -14z" />
    <glyph glyph-name="Iacute" unicode="&#xcd;" horiz-adv-x="236" 
d="M151.5 550.5q-4.5 -88.5 -4.5 -195.5t4.5 -202t4.5 -111t-13.5 -32t-34.5 -16t-34.5 16t-13.5 32t4.5 111t4.5 202t-4.5 195.5t-4.5 91.5q0 21 13.5 37.5t34.5 16.5t34.5 -16.5t13.5 -37.5q0 -3 -4.5 -91.5zM40 762q0 6 8 14q103 103 150 103q15 0 26.5 -10.5t11.5 -25.5
q0 -33 -37 -40q-78 -14 -135 -48q-8 -5 -12 -5q-12 0 -12 12z" />
    <glyph glyph-name="Icircumflex" unicode="&#xce;" horiz-adv-x="236" 
d="M151.5 153q4.5 -95 4.5 -111t-13.5 -32t-34.5 -16t-34.5 16t-13.5 32t4.5 111t4.5 202t-4.5 195.5t-4.5 91.5q0 21 13.5 37.5t34.5 16.5t34.5 -16.5t13.5 -37.5q0 -3 -4.5 -91.5t-4.5 -195.5t4.5 -202zM226 776q6 -8 6 -17t-9 -9q-3 0 -10 5q-52 40 -105 52
q-53 -12 -105 -52q-7 -5 -10 -5q-9 0 -9 9t6 17q79 103 116.5 103t119.5 -103z" />
    <glyph glyph-name="Idieresis" unicode="&#xcf;" horiz-adv-x="236" 
d="M151.5 153q4.5 -95 4.5 -111t-13.5 -32t-34.5 -16t-34.5 16t-13.5 32t4.5 111t4.5 202t-4.5 195.5t-4.5 91.5q0 21 13.5 37.5t34.5 16.5t34.5 -16.5t13.5 -37.5q0 -3 -4.5 -91.5t-4.5 -195.5t4.5 -202zM170.5 798.5q-11.5 10.5 -11.5 31.5t14.5 36t34.5 15t32 -11t12 -32
t-15 -35.5t-35 -14.5t-31.5 10.5zM-19.5 798.5q-11.5 10.5 -11.5 31.5t14.5 36t34.5 15t32 -11t12 -32t-15 -35.5t-35 -14.5t-31.5 10.5z" />
    <glyph glyph-name="Eth" unicode="&#xd0;" horiz-adv-x="706" 
d="M204 690l156 6q74 0 148 -36q44 -21 78 -52t57 -84.5t23 -130.5t-33 -155.5t-86 -130.5t-118.5 -82.5t-133 -30.5t-106 15.5t-38.5 52.5l9 242q-48 -2 -58 -2t-20 10.5t-10 26.5t10 26t26 10l52 -3q0 122 -4.5 180.5t-4.5 69.5q-38 -2 -52 -2t-26.5 10.5t-12.5 27.5
t12.5 27.5t28.5 10.5zM386 302l-148 5q1 -101 9 -232q33 -10 85 -10q97 0 179 82t82 210.5t-77 199t-219 70.5q-35 0 -50 -1q0 -11 -3 -44q-6 -86 -6 -213q44 0 94 3t60 3t20 -10t10 -26t-10 -26.5t-26 -10.5z" />
    <glyph glyph-name="Ntilde" unicode="&#xd1;" horiz-adv-x="731" 
d="M55 649q0 47 63 47q80 0 173.5 -72.5t163.5 -220.5q94 -201 124 -255q-2 301 -17 383.5t-15 107.5t14.5 41t35 16t33.5 -16t13 -47.5t-5 -115.5q-10 -196 -10 -389q0 -24 14 -51t14 -41.5t-13 -28t-34 -13.5q-34 0 -59 42.5t-73 157.5t-70 166q-91 211 -237 242
q-3 -66 -3 -210t9.5 -239t9.5 -111t-13.5 -32t-34.5 -16t-34.5 16t-13.5 32t9.5 111t9.5 187t-4 268q-20 1 -35 11.5t-15 29.5zM517 863q0 -32 -33 -72.5t-71 -40.5q-25 0 -57 22.5t-52.5 22.5t-32.5 -7t-15 -16q-8 -22 -17 -22q-17 0 -17 21.5t24.5 47t62 25.5t77.5 -15.5
t57.5 -15.5t28.5 16.5t17 33t13 16.5q15 0 15 -16z" />
    <glyph glyph-name="Ograve" unicode="&#xd2;" 
d="M178.5 152q71.5 -90 183.5 -90t177.5 71.5t65.5 193t-71.5 211.5t-184 90t-177.5 -71.5t-65 -193t71.5 -211.5zM332 -6q-130 0 -218.5 93.5t-88.5 226.5q0 166 100 274t255 108q130 0 218.5 -93.5t88.5 -226.5q0 -166 -100 -274t-255 -108zM433 762q0 -12 -12 -12
q-4 0 -12 5q-57 34 -135 48q-37 7 -37 40q0 15 11.5 25.5t26.5 10.5q47 0 150 -103q8 -8 8 -14z" />
    <glyph glyph-name="Oacute" unicode="&#xd3;" 
d="M178.5 152q71.5 -90 183.5 -90t177.5 71.5t65.5 193t-71.5 211.5t-184 90t-177.5 -71.5t-65 -193t71.5 -211.5zM332 -6q-130 0 -218.5 93.5t-88.5 226.5q0 166 100 274t255 108q130 0 218.5 -93.5t88.5 -226.5q0 -166 -100 -274t-255 -108zM297 762q0 6 8 14
q103 103 150 103q15 0 26.5 -10.5t11.5 -25.5q0 -33 -37 -40q-78 -14 -135 -48q-8 -5 -12 -5q-12 0 -12 12z" />
    <glyph glyph-name="Ocircumflex" unicode="&#xd4;" 
d="M178.5 152q71.5 -90 183.5 -90t177.5 71.5t65.5 193t-71.5 211.5t-184 90t-177.5 -71.5t-65 -193t71.5 -211.5zM332 -6q-130 0 -218.5 93.5t-88.5 226.5q0 166 100 274t255 108q130 0 218.5 -93.5t88.5 -226.5q0 -166 -100 -274t-255 -108zM493 776q6 -7 6 -16.5t-9 -9.5
q-3 0 -10 5q-52 40 -105 52q-53 -12 -105 -52q-7 -5 -10 -5q-9 0 -9 9t6 17q79 103 116.5 103t119.5 -103z" />
    <glyph glyph-name="Otilde" unicode="&#xd5;" 
d="M178.5 152q71.5 -90 183.5 -90t177.5 71.5t65.5 193t-71.5 211.5t-184 90t-177.5 -71.5t-65 -193t71.5 -211.5zM332 -6q-130 0 -218.5 93.5t-88.5 226.5q0 166 100 274t255 108q130 0 218.5 -93.5t88.5 -226.5q0 -166 -100 -274t-255 -108zM517 863q0 -32 -33 -72.5
t-71 -40.5q-25 0 -57 22.5t-52.5 22.5t-32.5 -7t-15 -16q-8 -22 -17 -22q-17 0 -17 21.5t24.5 47t62 25.5t77.5 -15.5t57.5 -15.5t28.5 16.5t17 33t13 16.5q15 0 15 -16z" />
    <glyph glyph-name="Odieresis" unicode="&#xd6;" 
d="M178.5 152q71.5 -90 183.5 -90t177.5 71.5t65.5 193t-71.5 211.5t-184 90t-177.5 -71.5t-65 -193t71.5 -211.5zM332 -6q-130 0 -218.5 93.5t-88.5 226.5q0 166 100 274t255 108q130 0 218.5 -93.5t88.5 -226.5q0 -166 -100 -274t-255 -108zM428.5 798.5
q-11.5 10.5 -11.5 31.5t14.5 36t34.5 15t32 -11t12 -32t-15 -35.5t-35 -14.5t-31.5 10.5zM238.5 798.5q-11.5 10.5 -11.5 31.5t14.5 36t34.5 15t32 -11t12 -32t-15 -35.5t-35 -14.5t-31.5 10.5z" />
    <glyph glyph-name="multiply" unicode="&#xd7;" horiz-adv-x="470" 
d="M53 448q0 31 31 31q20 0 45.5 -25.5t39.5 -41t35 -39.5t31 -35q98 116 125 132q13 9 23 9q31 0 31 -31q0 -27 -66 -84q-61 -54 -74 -66q11 -10 35.5 -31t39 -34t31.5 -30q34 -34 34 -54q0 -31 -31 -31q-21 0 -53 34q-44 47 -95 107q-10 -11 -31 -35t-35 -39.5t-31 -32.5
q-34 -34 -54 -34q-31 0 -31 31q0 20 26 45t42 39q53 47 75 65q-12 11 -35.5 31t-39.5 34.5t-33 30.5q-35 34 -35 54z" />
    <glyph glyph-name="Oslash" unicode="&#xd8;" 
d="M332 -6q-60 0 -113 21q-32 -61 -59.5 -61t-27.5 29q0 22 27 65q-62 44 -98 114t-36 152q0 166 100 274t255 108q58 0 113 -22q32 62 60 62t28 -29q0 -20 -27 -66q62 -44 97.5 -114t35.5 -151q0 -166 -100 -274t-255 -108zM347 628q-110 0 -175 -71.5t-65 -200.5
q0 -66 26 -128.5t73 -104.5q81 123 132.5 220t120.5 257q-54 28 -112 28zM365 62q109 0 174.5 71.5t65.5 200.5q0 65 -26 127.5t-73 104.5q-81 -124 -131 -218t-121 -259q51 -27 111 -27z" />
    <glyph glyph-name="Ugrave" unicode="&#xd9;" horiz-adv-x="676" 
d="M64 254l5 204q0 66 -4.5 118.5t-4.5 69.5t13.5 33.5t34.5 16.5t34.5 -16.5t13.5 -37.5q0 -3 -4.5 -91.5t-4.5 -181.5t13 -146.5t32.5 -83.5t49 -47.5t56.5 -23t62 -5.5q71 0 148 61q6 150 6 244t-4.5 182.5t-4.5 91.5q0 21 13.5 37.5t34.5 16.5t34.5 -16.5t13.5 -37.5
q0 -3 -4.5 -91.5t-4.5 -195.5t4.5 -202t4.5 -111t-13.5 -32t-34.5 -16t-34.5 16t-13.5 36v29q-104 -81 -204 -81t-168.5 71t-68.5 189zM398 762q0 -12 -12 -12q-4 0 -12 5q-57 34 -135 48q-37 7 -37 40q0 15 11.5 25.5t26.5 10.5q47 0 150 -103q8 -8 8 -14z" />
    <glyph glyph-name="Uacute" unicode="&#xda;" horiz-adv-x="676" 
d="M64 254l5 204q0 66 -4.5 118.5t-4.5 69.5t13.5 33.5t34.5 16.5t34.5 -16.5t13.5 -37.5q0 -3 -4.5 -91.5t-4.5 -181.5t13 -146.5t32.5 -83.5t49 -47.5t56.5 -23t62 -5.5q73 0 148 61q6 150 6 244t-4.5 182.5t-4.5 91.5q0 21 13.5 37.5t34.5 16.5t34.5 -16.5t13.5 -37.5
q0 -3 -4.5 -91.5t-4.5 -195.5t4.5 -202t4.5 -111t-13.5 -32t-34.5 -16t-34.5 16t-13.5 36v29q-101 -81 -202 -81t-170 71.5t-69 188.5zM272 762q0 6 8 14q103 103 150 103q15 0 26.5 -10.5t11.5 -25.5q0 -33 -37 -40q-78 -14 -135 -48q-8 -5 -12 -5q-12 0 -12 12z" />
    <glyph glyph-name="Ucircumflex" unicode="&#xdb;" horiz-adv-x="676" 
d="M64 254l5 204q0 66 -4.5 118.5t-4.5 69.5t13.5 33.5t34.5 16.5t34.5 -16.5t13.5 -37.5q0 -3 -4.5 -91.5t-4.5 -181.5t13 -146.5t32.5 -83.5t49 -47.5t56.5 -23t62 -5.5q73 0 148 61q6 150 6 244t-4.5 182.5t-4.5 91.5q0 21 13.5 37.5t34.5 16.5t34.5 -16.5t13.5 -37.5
q0 -3 -4.5 -91.5t-4.5 -195.5t4.5 -202t4.5 -111t-13.5 -32t-34.5 -16t-34.5 16t-13.5 36v29q-101 -81 -202 -81t-170 71.5t-69 188.5zM455 776q6 -7 6 -16.5t-9 -9.5q-3 0 -10 5q-52 40 -105 52q-53 -12 -105 -52q-7 -5 -10 -5q-9 0 -9 9t6 17q79 103 116.5 103t119.5 -103
z" />
    <glyph glyph-name="Udieresis" unicode="&#xdc;" horiz-adv-x="676" 
d="M64 254l5 204q0 66 -4.5 118.5t-4.5 69.5t13.5 33.5t34.5 16.5t34.5 -16.5t13.5 -37.5q0 -3 -4.5 -91.5t-4.5 -181.5t13 -146.5t32.5 -83.5t49 -47.5t56.5 -23t62 -5.5q73 0 148 61q6 150 6 244t-4.5 182.5t-4.5 91.5q0 21 13.5 37.5t34.5 16.5t34.5 -16.5t13.5 -37.5
q0 -3 -4.5 -91.5t-4.5 -195.5t4.5 -202t4.5 -111t-13.5 -32t-34.5 -16t-34.5 16t-13.5 36v29q-101 -81 -202 -81t-170 71.5t-69 188.5zM397.5 798.5q-11.5 10.5 -11.5 31.5t14.5 36t34.5 15t32 -11t12 -32t-15 -35.5t-35 -14.5t-31.5 10.5zM207.5 798.5
q-11.5 10.5 -11.5 31.5t14.5 36t34.5 15t32 -11t12 -32t-15 -35.5t-35 -14.5t-31.5 10.5z" />
    <glyph glyph-name="Yacute" unicode="&#xdd;" horiz-adv-x="629" 
d="M349.5 10q-13.5 -16 -34.5 -16t-34.5 16t-13.5 36q0 4 2 26q7 77 7 219q-71 107 -130.5 182.5t-75.5 96.5q-40 51 -40 82q0 44 44 44q19 0 38 -18.5t33 -42.5t40 -70q65 -115 142 -210q66 66 144 220q32 63 52.5 92t40.5 29q35 0 35 -36t-33 -85.5t-105 -141t-107 -128.5
q0 -151 4.5 -203t4.5 -64t-13.5 -28zM251 763q0 6 8 14q103 103 150 103q15 0 26.5 -10.5t11.5 -25.5q0 -33 -37 -40q-78 -14 -135 -48q-8 -5 -12 -5q-12 0 -12 12z" />
    <glyph glyph-name="Thorn" unicode="&#xde;" horiz-adv-x="562" 
d="M184 646l-8 -97q45 0 82.5 3.5t69.5 3.5q76 0 135 -53t59 -135q0 -62 -38.5 -118t-93 -87t-100.5 -31t-67.5 14.5t-21.5 37.5t13.5 36.5t27 13.5t44.5 -12t67 -12t69.5 29.5t33.5 96.5t-52 109t-110.5 42t-120.5 -2q-4 -160 -4 -404q0 -87 -55 -87q-21 0 -37.5 16
t-16.5 40.5t21.5 54.5t21.5 65.5t-3 136.5t-7.5 203t-4.5 129t13.5 42.5t34.5 15.5t34.5 -15.5t13.5 -35.5z" />
    <glyph glyph-name="germandbls" unicode="&#xdf;" horiz-adv-x="613" 
d="M95 281l-6 165q0 65 27.5 123.5t69 97t89 61t96 22.5t78.5 -34t30 -78.5t-14.5 -77.5t-35.5 -52.5t-42 -34.5q-50 -36 -50 -60.5t25.5 -39.5t61.5 -27t72 -27.5t61.5 -45t25.5 -70.5q0 -78 -76 -143.5t-164 -65.5q-37 0 -60 15t-23 37.5t13.5 36t27 13.5t44.5 -12t69 -12
t67.5 25t29.5 62.5t-24.5 61t-59 36t-69 24.5t-59 34t-24.5 54.5t14 57.5t33.5 41.5t39.5 31.5q48 36 48 81.5t-27.5 73t-72.5 27.5q-62 0 -111 -60t-49 -136l9 -413q0 -30 -15 -54.5t-39.5 -24.5t-39.5 14.5t-15 37.5t17.5 50t22.5 65.5t5 119.5z" />
    <glyph glyph-name="agrave" unicode="&#xe0;" horiz-adv-x="459" 
d="M411.5 85.5q22.5 -30.5 22.5 -49.5t-10 -30.5t-27 -11.5q-41 0 -73 85l-8 22q-51 -107 -153 -107q-51 0 -84.5 32.5t-33.5 81.5q0 76 52 131t136 59q-20 35 -44.5 52.5t-44.5 20.5t-37.5 3.5t-27.5 7.5t-10 27.5t16.5 33.5t39.5 13q65 0 128 -65t110 -204l19 -53
q7 -18 29.5 -48.5zM143.5 221q-28.5 -24 -28.5 -62t25.5 -63.5t61.5 -25.5t62 25.5t26 60.5q0 25 -9 46.5t-11 26.5q-26 16 -62 16t-64.5 -24zM275 525q0 -12 -12 -12q-4 0 -12 5q-57 34 -135 48q-37 7 -37 40q0 15 11.5 25.5t26.5 10.5q47 0 150 -103q8 -8 8 -14z" />
    <glyph glyph-name="aacute" unicode="&#xe1;" horiz-adv-x="459" 
d="M411.5 85.5q22.5 -30.5 22.5 -49.5t-10 -30.5t-27 -11.5q-41 0 -73 85l-8 22q-51 -107 -153 -107q-51 0 -84.5 32.5t-33.5 81.5q0 76 52 131t136 59q-20 35 -44.5 52.5t-44.5 20.5t-37.5 3.5t-27.5 7.5t-10 27.5t16.5 33.5t39.5 13q65 0 128 -65t110 -204l19 -53
q7 -18 29.5 -48.5zM143.5 221q-28.5 -24 -28.5 -62t25.5 -63.5t61.5 -25.5t62 25.5t26 60.5q0 25 -9 46.5t-11 26.5q-26 16 -62 16t-64.5 -24zM170 525q0 6 8 14q103 103 150 103q15 0 26.5 -10.5t11.5 -25.5q0 -33 -37 -40q-78 -14 -135 -48q-8 -5 -12 -5q-12 0 -12 12z
" />
    <glyph glyph-name="acircumflex" unicode="&#xe2;" horiz-adv-x="459" 
d="M411.5 85.5q22.5 -30.5 22.5 -49.5t-10 -30.5t-27 -11.5q-41 0 -73 85l-8 22q-51 -107 -153 -107q-51 0 -84.5 32.5t-33.5 81.5q0 76 52 131t136 59q-20 35 -44.5 52.5t-44.5 20.5t-37.5 3.5t-27.5 7.5t-10 27.5t16.5 33.5t39.5 13q65 0 128 -65t110 -204l19 -53
q7 -18 29.5 -48.5zM143.5 221q-28.5 -24 -28.5 -62t25.5 -63.5t61.5 -25.5t62 25.5t26 60.5q0 25 -9 46.5t-11 26.5q-26 16 -62 16t-64.5 -24zM322 539q6 -7 6 -16.5t-9 -9.5q-3 0 -10 5q-52 40 -105 52q-53 -12 -105 -52q-7 -5 -10 -5q-9 0 -9 9.5t6 16.5q79 103 116.5 103
t119.5 -103z" />
    <glyph glyph-name="atilde" unicode="&#xe3;" horiz-adv-x="459" 
d="M411.5 85.5q22.5 -30.5 22.5 -49.5t-10 -30.5t-27 -11.5q-41 0 -73 85l-8 22q-51 -107 -153 -107q-51 0 -84.5 32.5t-33.5 81.5q0 76 52 131t136 59q-20 35 -44.5 52.5t-44.5 20.5t-37.5 3.5t-27.5 7.5t-10 27.5t16.5 33.5t39.5 13q65 0 128 -65t110 -204l19 -53
q7 -18 29.5 -48.5zM143.5 221q-28.5 -24 -28.5 -62t25.5 -63.5t61.5 -25.5t62 25.5t26 60.5q0 25 -9 46.5t-11 26.5q-26 16 -62 16t-64.5 -24zM370 626q0 -32 -33 -72.5t-71 -40.5q-24 0 -57 22.5t-53 22.5t-32 -7t-15 -15q-8 -23 -17 -23q-17 0 -17 21.5t24.5 47t62 25.5
t77.5 -15.5t57.5 -15.5t28.5 16.5t17 33t13 16.5q15 0 15 -16z" />
    <glyph glyph-name="adieresis" unicode="&#xe4;" horiz-adv-x="459" 
d="M411.5 85.5q22.5 -30.5 22.5 -49.5t-10 -30.5t-27 -11.5q-41 0 -73 85l-8 22q-51 -107 -153 -107q-51 0 -84.5 32.5t-33.5 81.5q0 76 52 131t136 59q-20 35 -44.5 52.5t-44.5 20.5t-37.5 3.5t-27.5 7.5t-10 27.5t16.5 33.5t39.5 13q65 0 128 -65t110 -204l19 -53
q7 -18 29.5 -48.5zM143.5 221q-28.5 -24 -28.5 -62t25.5 -63.5t61.5 -25.5t62 25.5t26 60.5q0 25 -9 46.5t-11 26.5q-26 16 -62 16t-64.5 -24zM286.5 558.5q-11.5 10.5 -11.5 31.5t14.5 36t34.5 15t32 -11t12 -32t-15 -35.5t-35 -14.5t-31.5 10.5zM96.5 558.5
q-11.5 10.5 -11.5 31.5t14.5 36t34.5 15t32 -11t12 -32t-15 -35.5t-35 -14.5t-31.5 10.5z" />
    <glyph glyph-name="aring" unicode="&#xe5;" horiz-adv-x="459" 
d="M411.5 85.5q22.5 -30.5 22.5 -49.5t-10 -30.5t-27 -11.5q-41 0 -73 85l-8 22q-51 -107 -153 -107q-51 0 -84.5 32.5t-33.5 81.5q0 76 52 131t136 59q-20 35 -44.5 52.5t-44.5 20.5t-37.5 3.5t-27.5 7.5t-10 27.5t16.5 33.5t39.5 13q65 0 128 -65t110 -204l19 -53
q7 -18 29.5 -48.5zM143.5 221q-28.5 -24 -28.5 -62t25.5 -63.5t61.5 -25.5t62 25.5t26 60.5q0 25 -9 46.5t-11 26.5q-26 16 -62 16t-64.5 -24zM133.5 521q-18.5 17 -18.5 44.5t23 52t50.5 24.5t46 -17t18.5 -44.5t-23 -52t-50.5 -24.5t-46 17zM159 597q-10 -10 -10 -24.5
t10 -24.5t24.5 -10t24.5 10t10 24.5t-10 24.5t-24.5 10t-24.5 -10z" />
    <glyph glyph-name="ae" unicode="&#xe6;" horiz-adv-x="667" 
d="M491 199l-138 8q-7 0 -10 -1q6 -57 48.5 -95t101.5 -38q54 0 101 41q16 14 24 14t13.5 -6t5.5 -13q0 -28 -66.5 -71.5t-128.5 -43.5t-99.5 28t-54.5 73q-60 -101 -150 -101q-51 0 -79.5 27.5t-28.5 76.5q0 77 52.5 136t135.5 64q-24 32 -55.5 47.5t-54.5 16.5
q-54 4 -54 46q0 20 15.5 34t40.5 14q51 0 102 -41t94 -128q38 76 110 122.5t138 46.5q40 0 61.5 -14.5t21.5 -37.5t-13.5 -36.5t-27 -13.5t-44.5 12t-61 12q-52 0 -92 -31.5t-53 -81.5h7l138 8q39 0 39 -37t-39 -37zM125.5 219q-25.5 -26 -25.5 -62t25.5 -61.5t61.5 -25.5
t62 25.5t26 61.5t-26 62t-62 26t-61.5 -26z" />
    <glyph glyph-name="ccedilla" unicode="&#xe7;" horiz-adv-x="406" 
d="M224 -130l-52 -7q-9 0 -15 6t-6 18.5t28.5 35t28.5 43.5t-17 29q-71 5 -118.5 62t-47.5 139q0 110 83 185t183 75q42 0 68.5 -14.5t26.5 -37t-13.5 -36.5t-26.5 -14t-44.5 12t-61.5 12q-66 0 -107.5 -45.5t-41.5 -108.5t43.5 -107t106.5 -44q56 0 101 41q16 14 24 14
t14 -6t6 -13q0 -26 -48.5 -65.5t-108.5 -47.5q8 -12 8 -32t-13 -30q37 0 60.5 -21.5t23.5 -58.5q0 -60 -42 -102t-78 -42q-18 0 -30.5 12t-12.5 31t14 34t27 15t23 -7t21 -7t22 13.5t11 30t-10.5 27.5t-28.5 11z" />
    <glyph glyph-name="egrave" unicode="&#xe8;" horiz-adv-x="406" 
d="M238 199l-119 10q-17 0 -27 -3q6 -57 48.5 -95t100.5 -38q56 0 101 41q16 14 24 14t14 -6t6 -13q0 -29 -56.5 -72t-128 -43t-124 58t-52.5 144q0 110 83 185t183 75q42 0 68.5 -14.5t26.5 -37t-13.5 -36.5t-26.5 -14t-44.5 12t-60.5 12q-54 0 -93.5 -32.5t-52.5 -80.5
l138 8q46 0 46 -36q0 -38 -41 -38zM290 525q0 -12 -12 -12q-4 0 -12 5q-57 34 -135 48q-37 7 -37 40q0 15 11.5 25.5t26.5 10.5q47 0 150 -103q8 -8 8 -14z" />
    <glyph glyph-name="eacute" unicode="&#xe9;" horiz-adv-x="406" 
d="M238 199l-119 10q-17 0 -27 -3q6 -57 48.5 -95t100.5 -38q56 0 101 41q16 14 24 14t14 -6t6 -13q0 -29 -56.5 -72t-128 -43t-124 58t-52.5 144q0 110 83 185t183 75q42 0 68.5 -14.5t26.5 -37t-13.5 -36.5t-26.5 -14t-44.5 12t-60.5 12q-54 0 -93.5 -32.5t-52.5 -80.5
l138 8q46 0 46 -36q0 -38 -41 -38zM175 525q0 6 8 14q103 103 150 103q15 0 26.5 -10.5t11.5 -25.5q0 -33 -37 -40q-78 -14 -135 -48q-8 -5 -12 -5q-12 0 -12 12z" />
    <glyph glyph-name="ecircumflex" unicode="&#xea;" horiz-adv-x="406" 
d="M238 199l-119 10q-17 0 -27 -3q6 -57 48.5 -95t100.5 -38q56 0 101 41q16 14 24 14t14 -6t6 -13q0 -29 -56.5 -72t-128 -43t-124 58t-52.5 144q0 110 83 185t183 75q42 0 68.5 -14.5t26.5 -37t-13.5 -36.5t-26.5 -14t-44.5 12t-60.5 12q-54 0 -93.5 -32.5t-52.5 -80.5
l138 8q46 0 46 -36q0 -38 -41 -38zM374 539q6 -7 6 -16.5t-9 -9.5q-3 0 -10 5q-52 40 -105 52q-53 -12 -105 -52q-7 -5 -10 -5q-9 0 -9 9.5t6 16.5q79 103 116.5 103t119.5 -103z" />
    <glyph glyph-name="edieresis" unicode="&#xeb;" horiz-adv-x="406" 
d="M238 199l-119 10q-17 0 -27 -3q6 -57 48.5 -95t100.5 -38q56 0 101 41q16 14 24 14t14 -6t6 -13q0 -29 -56.5 -72t-128 -43t-124 58t-52.5 144q0 110 83 185t183 75q42 0 68.5 -14.5t26.5 -37t-13.5 -36.5t-26.5 -14t-44.5 12t-60.5 12q-54 0 -93.5 -32.5t-52.5 -80.5
l138 8q46 0 46 -36q0 -38 -41 -38zM300.5 558.5q-11.5 10.5 -11.5 31.5t14.5 36t34.5 15t32 -11t12 -32t-15 -35.5t-35 -14.5t-31.5 10.5zM110.5 558.5q-11.5 10.5 -11.5 31.5t14.5 36t34.5 15t32 -11t12 -32t-15 -35.5t-35 -14.5t-31.5 10.5z" />
    <glyph glyph-name="igrave" unicode="&#xec;" horiz-adv-x="208" 
d="M191 525q0 -12 -12 -12q-4 0 -12 5q-57 34 -135 48q-37 7 -37 40q0 15 11.5 25.5t26.5 10.5q47 0 150 -103q8 -8 8 -14zM68 73q0 126 -5 221t-5 112t13.5 33.5t32.5 16.5t31 -15.5t12 -45t-7 -99t-7 -144.5q0 -30 12.5 -57.5t12.5 -50t-12.5 -36.5t-34 -14t-32.5 24
t-11 55z" />
    <glyph glyph-name="iacute" unicode="&#xed;" horiz-adv-x="228" 
d="M48 525q0 6 8 14q103 103 150 103q15 0 26.5 -10.5t11.5 -25.5q0 -33 -37 -40q-78 -14 -135 -48q-8 -5 -12 -5q-12 0 -12 12zM66 73q0 126 -5 221t-5 112t13.5 33.5t32.5 16.5t31 -15.5t12 -45t-7 -99t-7 -144.5q0 -30 12.5 -57.5t12.5 -50t-12.5 -36.5t-34 -14t-32.5 24
t-11 55z" />
    <glyph glyph-name="icircumflex" unicode="&#xee;" horiz-adv-x="208" 
d="M68 73q0 126 -5 221t-5 112t13.5 33.5t32.5 16.5t31 -15.5t12 -45t-7 -99t-7 -144.5q0 -30 12.5 -57.5t12.5 -50t-12.5 -36.5t-34 -14t-32.5 24t-11 55zM221 539q6 -7 6 -16.5t-9 -9.5q-3 0 -10 5q-52 40 -105 52q-53 -12 -105 -52q-7 -5 -10 -5q-9 0 -9 9.5t6 16.5
q79 103 116.5 103t119.5 -103z" />
    <glyph glyph-name="idieresis" unicode="&#xef;" horiz-adv-x="208" 
d="M68 73q0 126 -5 221t-5 112t13.5 33.5t32.5 16.5t31 -15.5t12 -45t-7 -99t-7 -144.5q0 -30 12.5 -57.5t12.5 -50t-12.5 -36.5t-34 -14t-32.5 24t-11 55zM163.5 558.5q-11.5 10.5 -11.5 31.5t14.5 36t34.5 15t32 -11t12 -32t-15 -35.5t-35 -14.5t-31.5 10.5zM-26.5 558.5
q-11.5 10.5 -11.5 31.5t14.5 36t34.5 15t32 -11t12 -32t-15 -35.5t-35 -14.5t-31.5 10.5z" />
    <glyph glyph-name="eth" unicode="&#xf0;" horiz-adv-x="542" 
d="M416 640q0 -8 -8 -15t-26.5 -19t-29.5 -21q97 -110 97 -293q0 -128 -84.5 -213t-183.5 -85q-70 0 -113 50t-43 115.5t26 123t65 94t83.5 58t83.5 21.5q64 0 111 -47q-24 88 -81 137q-39 -52 -48 -57t-15 -5q-27 0 -29 29q0 7 8 14t26 18.5t29 20.5q-57 34 -144 43
q-69 7 -69 44q0 18 12.5 30.5t30.5 12.5q44 0 103.5 -20.5t110.5 -66.5q10 12 21 26.5t17 20.5q11 12 22 12q28 0 28 -28zM91 225q0 -64 44.5 -108.5t108 -44.5t106.5 44.5t43 114.5t-41 108t-106.5 38t-110 -44t-44.5 -108z" />
    <glyph glyph-name="ntilde" unicode="&#xf1;" horiz-adv-x="522" 
d="M57 240l-7 167q0 21 13.5 35t32.5 14t31 -13.5t12 -33.5t-1 -30q56 77 129 77q105 0 135 -141l38 -172q6 -23 24.5 -49.5t18.5 -47.5q0 -52 -50 -52t-65 79l-38 209q-19 100 -103 100q-43 0 -67 -29t-27 -67l6 -244q0 -21 -12 -34.5t-31 -13.5t-32.5 13.5t-13.5 34.5z
M375 626q0 -32 -33 -72.5t-71 -40.5q-24 0 -56.5 22.5t-53 22.5t-32.5 -7t-15 -15q-8 -23 -17 -23q-17 0 -17 21.5t24.5 47t62 25.5t77.5 -15.5t57.5 -15.5t28.5 16.5t17 33t13 16.5q15 0 15 -16z" />
    <glyph glyph-name="ograve" unicode="&#xf2;" horiz-adv-x="484" 
d="M91 225q0 -64 44.5 -108.5t108 -44.5t106.5 44.5t43 108.5t-43 108t-106.5 44t-108 -44t-44.5 -108zM68 44q-43 50 -43 125.5t47 146t110 105.5t127 35t107 -50t43 -125.5t-47 -146t-110 -105.5t-127 -35t-107 50zM330 525q0 -12 -12 -12q-4 0 -12 5q-57 34 -135 48
q-37 7 -37 40q0 15 11.5 25.5t26.5 10.5q47 0 150 -103q8 -8 8 -14z" />
    <glyph glyph-name="oacute" unicode="&#xf3;" horiz-adv-x="484" 
d="M195 525q0 6 8 14q103 103 150 103q15 0 26.5 -10.5t11.5 -25.5q0 -33 -37 -40q-78 -14 -135 -48q-8 -5 -12 -5q-12 0 -12 12zM91 225q0 -64 44.5 -108.5t108 -44.5t106.5 44.5t43 108.5t-43 108t-106.5 44t-108 -44t-44.5 -108zM68 44q-43 50 -43 125.5t47 146
t110 105.5t127 35t107 -50t43 -125.5t-47 -146t-110 -105.5t-127 -35t-107 50z" />
    <glyph glyph-name="ocircumflex" unicode="&#xf4;" horiz-adv-x="484" 
d="M91 225q0 -64 44.5 -108.5t108 -44.5t106.5 44.5t43 108.5t-43 108t-106.5 44t-108 -44t-44.5 -108zM68 44q-43 50 -43 125.5t47 146t110 105.5t127 35t107 -50t43 -125.5t-47 -146t-110 -105.5t-127 -35t-107 50zM380 539q6 -7 6 -16.5t-9 -9.5q-3 0 -10 5
q-52 40 -105 52q-53 -12 -105 -52q-7 -5 -10 -5q-9 0 -9 9.5t6 16.5q79 103 116.5 103t119.5 -103z" />
    <glyph glyph-name="otilde" unicode="&#xf5;" horiz-adv-x="484" 
d="M91 225q0 -64 44.5 -108.5t108 -44.5t106.5 44.5t43 108.5t-43 108t-106.5 44t-108 -44t-44.5 -108zM68 44q-43 50 -43 125.5t47 146t110 105.5t127 35t107 -50t43 -125.5t-47 -146t-110 -105.5t-127 -35t-107 50zM399 626q0 -32 -33 -72.5t-71 -40.5q-25 0 -57 22.5
t-52.5 22.5t-32.5 -7t-15 -15q-8 -23 -17 -23q-17 0 -17 21.5t24.5 47t62 25.5t77.5 -15.5t57.5 -15.5t28.5 16.5t17 33t13 16.5q15 0 15 -16z" />
    <glyph glyph-name="odieresis" unicode="&#xf6;" horiz-adv-x="484" 
d="M91 225q0 -64 44.5 -108.5t108 -44.5t106.5 44.5t43 108.5t-43 108t-106.5 44t-108 -44t-44.5 -108zM68 44q-43 50 -43 125.5t47 146t110 105.5t127 35t107 -50t43 -125.5t-47 -146t-110 -105.5t-127 -35t-107 50zM321.5 558.5q-11.5 10.5 -11.5 31.5t14.5 36t34.5 15
t32 -11t12 -32t-15 -35.5t-35 -14.5t-31.5 10.5zM131.5 558.5q-11.5 10.5 -11.5 31.5t14.5 36t34.5 15t32 -11t12 -32t-15 -35.5t-35 -14.5t-31.5 10.5z" />
    <glyph glyph-name="divide" unicode="&#xf7;" horiz-adv-x="193" 
d="M62.5 400.5q-11.5 10.5 -11.5 31t14 35t33.5 14.5t31.5 -11.5t12 -31.5t-14.5 -34t-34 -14t-31 10.5zM62.5 127.5q-11.5 10.5 -11.5 31t14 35t33.5 14.5t31.5 -11.5t12 -31.5t-14.5 -34t-34 -14t-31 10.5zM97 330q39 0 76.5 3t48 3t20.5 -10t10 -26t-10 -26.5
t-20.5 -10.5t-48 2.5t-76.5 2.5t-76.5 -2.5t-48 -2.5t-20.5 10.5t-10 26.5t10 26t20.5 10t48 -3t76.5 -3z" />
    <glyph glyph-name="oslash" unicode="&#xf8;" horiz-adv-x="484" 
d="M69 42q-44 47 -44 125t47 148.5t110 105.5t111 35t80 -17q39 58 61 58q25 0 25 -26q0 -17 -43 -65q43 -48 43 -124.5t-47 -147t-110 -105.5t-121 -35q-35 0 -68 15q-34 -55 -55 -55q-25 0 -25 26q0 17 36 62zM244 72q63 0 106 44.5t43 109t-43 107.5q-127 -140 -186 -239
q36 -22 80 -22zM135.5 333q-44.5 -44 -44.5 -107.5t43 -108.5q117 135 186 239q-36 21 -76 21q-64 0 -108.5 -44z" />
    <glyph glyph-name="ugrave" unicode="&#xf9;" horiz-adv-x="499" 
d="M349 171l-10 225q0 27 13.5 43.5t32.5 16.5t31 -15.5t12 -42t-6 -74.5q-12 -96 -12 -172q0 -30 19.5 -57.5t19.5 -49.5t-15 -36.5t-34 -14.5q-50 0 -50 79q-47 -79 -118 -79q-57 0 -90.5 41t-46.5 100l-38 172q-6 29 -26.5 51.5t-20.5 45.5t16 37.5t38 14.5q50 0 65 -79
l38 -209q19 -100 95 -100q37 0 61 29.5t26 73.5zM312 525q0 -12 -12 -12q-4 0 -12 5q-57 34 -135 48q-37 7 -37 40q0 15 11.5 25.5t26.5 10.5q47 0 150 -103q8 -8 8 -14z" />
    <glyph glyph-name="uacute" unicode="&#xfa;" horiz-adv-x="499" 
d="M349 171l-10 225q0 27 13.5 43.5t32.5 16.5t31 -15.5t12 -42t-6 -74.5q-12 -96 -12 -172q0 -30 19.5 -57.5t19.5 -49.5t-15 -36.5t-34 -14.5q-50 0 -50 79q-47 -79 -118 -79q-57 0 -90.5 41t-46.5 100l-38 172q-6 29 -26.5 51.5t-20.5 45.5t16 37.5t38 14.5q50 0 65 -79
l38 -209q19 -100 95 -100q37 0 61 29.5t26 73.5zM155 525q0 6 8 14q103 103 150 103q15 0 26.5 -10.5t11.5 -25.5q0 -33 -37 -40q-78 -14 -135 -48q-8 -5 -12 -5q-12 0 -12 12z" />
    <glyph glyph-name="ucircumflex" unicode="&#xfb;" horiz-adv-x="499" 
d="M349 171l-10 225q0 27 13.5 43.5t32.5 16.5t31 -15.5t12 -42t-6 -74.5q-12 -96 -12 -172q0 -30 19.5 -57.5t19.5 -49.5t-15 -36.5t-34 -14.5q-50 0 -50 79q-47 -79 -118 -79q-57 0 -90.5 41t-46.5 100l-38 172q-6 29 -26.5 51.5t-20.5 45.5t16 37.5t38 14.5q50 0 65 -79
l38 -209q19 -100 95 -100q37 0 61 29.5t26 73.5zM357 539q6 -7 6 -16.5t-9 -9.5q-3 0 -10 5q-52 40 -105 52q-53 -12 -105 -52q-7 -5 -10 -5q-9 0 -9 9.5t6 16.5q79 103 116.5 103t119.5 -103z" />
    <glyph glyph-name="udieresis" unicode="&#xfc;" horiz-adv-x="499" 
d="M349 171l-10 225q0 27 13.5 43.5t32.5 16.5t31 -15.5t12 -42t-6 -74.5q-12 -96 -12 -172q0 -30 19.5 -57.5t19.5 -49.5t-15 -36.5t-34 -14.5q-50 0 -50 79q-47 -79 -118 -79q-57 0 -90.5 41t-46.5 100l-38 172q-6 29 -26.5 51.5t-20.5 45.5t16 37.5t38 14.5q50 0 65 -79
l38 -209q19 -100 95 -100q37 0 61 29.5t26 73.5zM291.5 558.5q-11.5 10.5 -11.5 31.5t14.5 36t34.5 15t32 -11t12 -32t-15 -35.5t-35 -14.5t-31.5 10.5zM101.5 558.5q-11.5 10.5 -11.5 31.5t14.5 36t34.5 15t32 -11t12 -32t-15 -35.5t-35 -14.5t-31.5 10.5z" />
    <glyph glyph-name="yacute" unicode="&#xfd;" horiz-adv-x="490" 
d="M421 127l-2 -140q0 -98 -86 -187.5t-192 -89.5q-53 0 -92 30t-39 65q0 18 12.5 32t30 14t32 -10t27 -22t38 -22t57.5 -10q63 0 108 46.5t45 110.5q0 88 -1 125q-46 -75 -115 -75q-57 0 -90.5 41t-46.5 100l-38 172q-6 29 -26.5 51.5t-20.5 45.5t16 37.5t35 14.5t31 -7
t20 -21q11 -21 17 -51l44 -209q11 -49 29.5 -74.5t57.5 -25.5t62.5 29.5t23.5 73.5l-7 225q0 27 13.5 43.5t32.5 16.5t31 -15.5t12 -42t-6 -74.5q-13 -104 -13 -197zM174 525q0 6 8 14q103 103 150 103q15 0 26.5 -10.5t11.5 -25.5q0 -33 -37 -40q-78 -14 -135 -48
q-8 -5 -12 -5q-12 0 -12 12z" />
    <glyph glyph-name="thorn" unicode="&#xfe;" horiz-adv-x="510" 
d="M336 456q67 0 108 -49.5t41 -115.5t-26 -123t-66 -94t-85 -58.5t-86 -21.5q-48 0 -48 47q0 21 15 31t30 10t31.5 -5t30.5 -5q60 0 101 44.5t41 108.5t-41 108t-101 44q-78 0 -114.5 -63t-36.5 -172q0 -58 8 -183t8 -170q0 -79 -53 -79q-19 0 -33.5 14.5t-14.5 41.5
q0 5 9.5 66t9.5 181v320q0 167 -8 262t-8 98q0 57 44 57q53 0 53 -82q0 -50 -9.5 -174.5t-10.5 -162.5q42 57 101 91t110 34z" />
    <glyph glyph-name="ydieresis" unicode="&#xff;" horiz-adv-x="490" 
d="M421 127l-2 -140q0 -98 -86 -187.5t-192 -89.5q-53 0 -92 30t-39 65q0 18 12.5 32t30 14t32 -10t27 -22t38 -22t57.5 -10q63 0 108 46.5t45 110.5q0 88 -1 125q-46 -75 -115 -75q-57 0 -90.5 41t-46.5 100l-38 172q-6 29 -26.5 51.5t-20.5 45.5t16 37.5t35 14.5t31 -7
t20 -21q11 -21 17 -51l44 -209q11 -49 29.5 -74.5t57.5 -25.5t62.5 29.5t23.5 73.5l-7 225q0 27 13.5 43.5t32.5 16.5t31 -15.5t12 -42t-6 -74.5q-13 -104 -13 -197zM314.5 558.5q-11.5 10.5 -11.5 31.5t14.5 36t34.5 15t32 -11t12 -32t-15 -35.5t-35 -14.5t-31.5 10.5z
M124.5 558.5q-11.5 10.5 -11.5 31.5t14.5 36t34.5 15t32 -11t12 -32t-15 -35.5t-35 -14.5t-31.5 10.5z" />
    <glyph glyph-name="hbar" unicode="&#x127;" horiz-adv-x="521" 
d="M-1 639l74 -4q-1 23 -1 55t13.5 46t32.5 14t31 -13.5t12 -45.5t-1 -56q79 7 100 7q39 0 39 -37t-39 -37q-21 0 -103 7q-5 -155 -5 -207q59 88 136 88q105 0 135 -141l38 -172q6 -29 26.5 -51.5t20.5 -45.5t-16 -37.5t-35 -14.5t-31 7t-20 21q-11 21 -17 51l-44 209
q-10 46 -31.5 73t-66 27t-69 -30.5t-25.5 -66.5q8 -237 8 -250.5t-12 -27t-31 -13.5t-32.5 13.5t-13.5 44.5t5 147.5t5 185.5t-6 189l-77 -3q-39 0 -39 34t39 34z" />
    <glyph glyph-name="Itilde" unicode="&#x128;" horiz-adv-x="236" 
d="M151.5 153q4.5 -95 4.5 -111t-13.5 -32t-34.5 -16t-34.5 16t-13.5 32t4.5 111t4.5 202t-4.5 195.5t-4.5 91.5q0 21 13.5 37.5t34.5 16.5t34.5 -16.5t13.5 -37.5q0 -3 -4.5 -91.5t-4.5 -195.5t4.5 -202zM266 866q0 -32 -33 -72.5t-71 -40.5q-24 0 -57 22.5t-53 22.5
t-32 -7t-15 -15q-8 -23 -17 -23q-17 0 -17 21.5t24.5 47t62 25.5t77.5 -15.5t57.5 -15.5t28.5 16.5t17 33t13 16.5q15 0 15 -16z" />
    <glyph glyph-name="itilde" unicode="&#x129;" horiz-adv-x="216" 
d="M66 73q0 126 -5 221t-5 112t13.5 33.5t32.5 16.5t31 -15.5t12 -45t-7 -99t-7 -144.5q0 -30 12.5 -57.5t12.5 -50t-12.5 -36.5t-34 -14t-32.5 24t-11 55zM256 626q0 -32 -33 -72.5t-71 -40.5q-24 0 -56.5 22.5t-53 22.5t-32.5 -7t-15 -15q-8 -23 -17 -23q-17 0 -17 21.5
t24.5 47t62 25.5t77.5 -15.5t57.5 -15.5t28.5 16.5t17 33t13 16.5q15 0 15 -16z" />
    <glyph glyph-name="dotlessi" unicode="&#x131;" horiz-adv-x="216" 
d="M66 73q0 126 -5 221t-5 112t13.5 33.5t32.5 16.5t31 -15.5t12 -45t-7 -99t-7 -144.5q0 -30 12.5 -57.5t12.5 -50t-12.5 -36.5t-34 -14t-32.5 24t-11 55z" />
    <glyph glyph-name="IJ" unicode="&#x132;" horiz-adv-x="573" 
d="M151.5 550.5q-4.5 -88.5 -4.5 -195.5t4.5 -202t4.5 -111t-13.5 -32t-34.5 -16t-34.5 16t-13.5 32t4.5 111t4.5 202t-4.5 195.5t-4.5 91.5q0 21 13.5 37.5t34.5 16.5t34.5 -16.5t13.5 -37.5q0 -3 -4.5 -91.5zM287 696l79 -6l80 6q21 0 34 -16.5t13 -33t-3 -60.5
q-6 -113 -6 -280t-13.5 -270t-33 -162.5t-45.5 -98t-47.5 -52t-42.5 -13.5t-35 14.5t-14 31t8 27.5t27 25.5t29 25.5q48 51 70 152t22 258t-9 378q-22 2 -34 2l-79 -6q-16 0 -28.5 10.5t-12.5 28.5t12.5 28.5t28.5 10.5z" />
    <glyph glyph-name="ij" unicode="&#x133;" horiz-adv-x="442" 
d="M68 73q0 126 -5 221t-5 112t13.5 33.5t32.5 16.5t31 -15.5t12 -45t-7 -99t-7 -144.5q0 -30 12.5 -57.5t12.5 -50t-12.5 -36.5t-34 -14t-32.5 24t-11 55zM65 581q-13 12 -13 35t16 39.5t38 16.5t35.5 -12.5t13.5 -35.5t-16.5 -39t-38.5 -16t-35 12zM358 127l-3 -255
q0 -162 -63 -162q-44 0 -44 57q0 21 26 97q9 29 17 98t8 157t-8.5 168.5t-8.5 108t13.5 44t32.5 16.5t31 -15.5t12 -38t-6.5 -110t-6.5 -165.5zM292 581q-13 12 -13 35t16 39.5t38 16.5t35.5 -12.5t13.5 -35.5t-16.5 -39t-38.5 -16t-35 12z" />
    <glyph glyph-name="Jcircumflex" unicode="&#x134;" horiz-adv-x="357" 
d="M230 696q21 0 34 -16.5t13 -33t-2.5 -60t-4.5 -126t-2 -202t-13.5 -222.5t-33 -162.5t-45.5 -98t-47.5 -52t-42.5 -13.5t-35 14.5t-14 31t8 27.5t27 25.5t29 25.5q92 98 92 410q0 157 -9 378q-22 2 -34 2l-79 -6q-16 0 -28.5 10.5t-12.5 28.5t12.5 28.5t28.5 10.5l79 -6z
M296 779q6 -7 6 -16.5t-9 -9.5q-3 0 -10 5q-52 40 -105 52q-53 -12 -105 -52q-7 -5 -10 -5q-9 0 -9 9.5t6 16.5q79 103 116.5 103t119.5 -103z" />
    <glyph glyph-name="jcircumflex" unicode="&#x135;" horiz-adv-x="234" 
d="M160 127l-3 -255q0 -162 -63 -162q-44 0 -44 57q0 21 26 97q9 29 17 98t8 157t-8.5 168.5t-8.5 108t13.5 44t32.5 16.5t31 -15.5t12 -38t-6.5 -110t-6.5 -165.5zM235 539q6 -7 6 -16.5t-9 -9.5q-3 0 -10 5q-52 40 -105 52q-53 -12 -105 -52q-7 -5 -10 -5q-9 0 -9 9.5
t6 16.5q79 103 116.5 103t119.5 -103z" />
    <glyph glyph-name="kcommaaccent" unicode="&#x137;" horiz-adv-x="485" 
d="M139 702l-9 -322v-61q42 62 107 99.5t114 37.5q92 0 92 -53q0 -22 -13.5 -35.5t-27 -13.5t-44.5 12t-61 12q-81 0 -125 -67q99 -95 192 -165q77 -58 89 -75t12 -35t-12 -30t-31.5 -12t-44 21.5t-92.5 87t-152 132.5q6 -126 6 -193q0 -21 -12 -34.5t-31 -13.5t-32.5 13.5
t-13.5 44.5t5 147.5t5 180.5t-5 172t-5 139t13.5 45t32.5 14t31 -13.5t12 -34.5zM200 -290q-14 0 -14 15q0 8 15 27.5t15 39.5t-15.5 39t-15.5 39.5t18 37t41.5 16.5t39 -14t15.5 -53.5t-37 -93t-62 -53.5z" />
    <glyph glyph-name="kgreenlandic" unicode="&#x138;" horiz-adv-x="485" 
d="M130 218l9 -176q0 -21 -12 -34.5t-31 -13.5t-32.5 13.5t-13.5 35.5t5 95t5 112l-10 157q0 21 13.5 35t32.5 14t31 -13.5t12 -34.5t-4 -63.5t-5 -64.5q45 81 114 128.5t136 47.5q29 0 46 -14.5t17 -37.5t-13.5 -36.5t-26 -13.5t-37.5 12t-49 12q-75 0 -134 -97
q85 -75 149.5 -121t88.5 -64t34 -31t10 -30t-12 -29t-28 -12t-29.5 7.5t-35.5 26.5t-48 42q-82 73 -182 148z" />
    <glyph glyph-name="Ldotaccent" unicode="&#x13f;" horiz-adv-x="483" 
d="M260 0l-152 -6q-21 0 -34.5 15.5t-13.5 32t4.5 111.5t4.5 202t-4.5 195.5t-4.5 91.5q0 21 13.5 37.5t34.5 16.5t34.5 -16.5t13.5 -37.5q0 -3 -4.5 -91.5t-4.5 -179t1.5 -145.5t4.5 -103t3 -57l256 6q16 0 28.5 -10.5t12.5 -28.5t-12.5 -28.5t-28.5 -10.5zM297.5 260.5
q-12.5 11.5 -12.5 34.5t15.5 39t37.5 16t35 -12t13 -35t-16 -38.5t-38 -15.5t-34.5 11.5z" />
    <glyph glyph-name="ldot" unicode="&#x140;" horiz-adv-x="351" 
d="M66 73q0 389 -5 465q-9 138 -9 161t13.5 37t32.5 14t31 -14t12 -35q0 -63 -5 -171q-10 -254 -10 -378q0 -30 19.5 -57.5t19.5 -49.5t-15 -36.5t-34 -14.5q-50 0 -50 79zM227.5 260.5q-12.5 11.5 -12.5 34.5t15.5 39t37.5 16t35 -12t13 -35t-16 -38.5t-38 -15.5
t-34.5 11.5z" />
    <glyph glyph-name="Lslash" unicode="&#x141;" horiz-adv-x="483" 
d="M260 0l-152 -6q-21 0 -34.5 15.5t-13.5 36t3 85t5 116.5q-10 -7 -25 -19.5t-23.5 -19t-18.5 -14.5q-18 -13 -28 -13q-25 0 -25 24q0 13 18.5 26.5t31 21t34.5 20t37 21.5v54q0 114 -4.5 202.5t-4.5 91.5q0 21 13.5 37.5t34.5 16.5t34.5 -16.5t13.5 -37.5q0 -3 -4.5 -91
t-4.5 -201q78 65 92 65q25 0 25 -24q0 -14 -19 -27t-31 -20q-52 -30 -67 -40q0 -33 9 -238l256 6q16 0 28.5 -10.5t12.5 -28.5t-12.5 -28.5t-28.5 -10.5z" />
    <glyph glyph-name="lslash" unicode="&#x142;" horiz-adv-x="215" 
d="M66 73q0 109 -1 156l-57 -52q-10 -9 -23 -9t-22.5 11.5t-9.5 23.5t8.5 19t43 33.5t60.5 47.5q-2 231 -7.5 305t-5.5 94t13.5 34t32.5 14t31 -14t12 -35q0 -63 -4.5 -171.5t-6.5 -166.5v-5q68 64 78 71.5t22 7.5t21.5 -10.5t9.5 -25t-11 -22.5q-112 -88 -123 -97
q-1 -44 -1 -130q0 -30 19.5 -57.5t19.5 -49.5t-15 -36.5t-34 -14.5q-50 0 -50 79z" />
    <glyph glyph-name="Nacute" unicode="&#x143;" horiz-adv-x="731" 
d="M55 649q0 47 63 47q80 0 173.5 -72.5t163.5 -220.5q94 -201 124 -255q-2 301 -17 383.5t-15 107.5t14.5 41t35 16t33.5 -16t13 -47.5t-5 -115.5q-10 -196 -10 -389q0 -24 14 -51t14 -41.5t-13 -28t-34 -13.5q-34 0 -59 42.5t-73 157.5t-70 166q-91 211 -237 242
q-3 -66 -3 -210t9.5 -239t9.5 -111t-13.5 -32t-34.5 -16t-34.5 16t-13.5 32t9.5 111t9.5 187t-4 268q-20 1 -35 11.5t-15 29.5zM267 765q0 6 8 14q103 103 150 103q15 0 26.5 -10.5t11.5 -25.5q0 -33 -37 -40q-78 -14 -135 -48q-8 -5 -12 -5q-12 0 -12 12z" />
    <glyph glyph-name="nacute" unicode="&#x144;" horiz-adv-x="518" 
d="M133 286l6 -244q0 -21 -12 -34.5t-31 -13.5t-32.5 13.5t-13.5 34.5l7 198l-7 167q0 21 13.5 35t32.5 14t31 -13.5t12 -33.5t-1 -30q56 77 129 77q105 0 135 -141l38 -172q6 -23 24.5 -49.5t18.5 -47.5q0 -52 -50 -52t-65 79l-38 209q-19 100 -103 100q-43 0 -67 -29
t-27 -67zM161 525q0 6 8 14q103 103 150 103q15 0 26.5 -10.5t11.5 -25.5q0 -33 -37 -40q-78 -14 -135 -48q-8 -5 -12 -5q-12 0 -12 12z" />
    <glyph glyph-name="OE" unicode="&#x152;" horiz-adv-x="953" 
d="M380 696l277 -6l202 6q16 0 28.5 -10.5t12.5 -28.5t-12.5 -28.5t-28.5 -10.5l-202 6q-26 0 -84 -2q0 -12 -2 -43q-6 -93 -6 -174q52 -4 97.5 -4t93 3t58 3t20.5 -10t10 -26t-10 -26.5t-26 -10.5l-139 5q-52 0 -104 -4q0 -122 4.5 -191t4.5 -78l298 6q16 0 28.5 -10.5
t12.5 -28.5t-12.5 -28.5t-28.5 -10.5l-192 6l-154 -6q-32 0 -45 31q-68 -31 -149 -31q-130 0 -218.5 93.5t-88.5 226.5q0 166 100 274t255 108zM365 62q67 0 118 27q4 80 4 210t-9 324q-102 5 -131 5q-110 0 -175 -71.5t-65 -193t71.5 -211.5t186.5 -90z" />
    <glyph glyph-name="oe" unicode="&#x153;" horiz-adv-x="780" 
d="M602 199l-119 10q-17 0 -27 -3q6 -57 48.5 -95t100.5 -38q56 0 101 41q16 14 24 14t14 -6t6 -13q0 -29 -56.5 -72t-118.5 -43t-107 34t-66 90q-43 -57 -104.5 -90.5t-124 -33.5t-105.5 50t-43 125.5t47 146t110 105.5t117.5 35t92.5 -28.5t55 -73.5q39 47 95 74.5
t105.5 27.5t76 -14.5t26.5 -37t-13.5 -36.5t-26.5 -14t-44.5 12t-60.5 12q-54 0 -93.5 -32.5t-52.5 -80.5l138 8q46 0 46 -36q0 -38 -41 -38zM91 225q0 -64 44.5 -108.5t108 -44.5t106.5 44.5t43 108.5t-43 108t-106.5 44t-108 -44t-44.5 -108z" />
    <glyph glyph-name="Racute" unicode="&#x154;" horiz-adv-x="580" 
d="M174 690l148 6q61 0 120 -38q30 -20 49.5 -57t19.5 -85q0 -84 -49 -137.5t-116 -76.5q29 -16 57 -38q76 -64 111.5 -122t35.5 -103t-42 -45q-31 0 -58 61q-11 26 -37.5 68.5t-60.5 79.5q-71 76 -146 103q1 -81 5 -163t4 -99.5t-13.5 -33.5t-34.5 -16t-34.5 16t-13.5 32
t4.5 111t4.5 184t-2 146.5t-4.5 92.5t-2.5 45h-18q-16 0 -28.5 10.5t-12.5 27t12.5 27t25 10.5t34 -3t42.5 -3zM273 627l-58 -1q0 -11 -3 -44q-6 -88 -6 -221q50 -14 73 -14t46.5 5.5t51 18.5t45.5 41.5t18 66.5q0 76 -48.5 112t-118.5 36zM192 765q0 6 8 14
q103 103 150 103q15 0 26.5 -10.5t11.5 -25.5q0 -33 -37 -40q-78 -14 -135 -48q-8 -5 -12 -5q-12 0 -12 12z" />
    <glyph glyph-name="Rcommaaccent" unicode="&#x156;" horiz-adv-x="580" 
d="M174 690l148 6q61 0 120 -38q30 -20 49.5 -57t19.5 -85q0 -84 -49 -137.5t-116 -76.5q29 -16 57 -38q76 -64 111.5 -122t35.5 -103t-42 -45q-31 0 -58 61q-11 26 -37.5 68.5t-60.5 79.5q-71 76 -146 103q1 -81 5 -163t4 -99.5t-13.5 -33.5t-34.5 -16t-34.5 16t-13.5 32
t4.5 111t4.5 184t-2 146.5t-4.5 92.5t-2.5 45h-18q-16 0 -28.5 10.5t-12.5 27t12.5 27t25 10.5t34 -3t42.5 -3zM273 627l-58 -1q0 -11 -3 -44q-6 -88 -6 -221q50 -14 73 -14t46.5 5.5t51 18.5t45.5 41.5t18 66.5q0 76 -48.5 112t-118.5 36zM278 -290q-14 0 -14 15
q0 8 15 27.5t15 39.5t-15.5 39t-15.5 39.5t18 37t41.5 16.5t39 -14t15.5 -53.5t-37 -93t-62 -53.5z" />
    <glyph glyph-name="rcommaaccent" unicode="&#x157;" horiz-adv-x="390" 
d="M153 235l8 -181q0 -27 -13.5 -43.5t-32.5 -16.5t-31 15.5t-12 42.5t5 77q10 100 10 169q0 30 -18.5 57.5t-18.5 49.5t15 36.5t34 14.5q50 0 50 -79v-39q30 54 72 86t77 32t53.5 -17.5t18.5 -46.5t-14 -48.5t-30 -19.5t-24.5 8.5t-12.5 18t-15 18t-28 8.5q-29 0 -58 -38
t-35 -104zM77 -290q-14 0 -14 15q0 8 15 27.5t15 39.5t-15.5 39t-15.5 39.5t18 37t41.5 16.5t39 -14t15.5 -53.5t-37 -93t-62 -53.5z" />
    <glyph glyph-name="Rcaron" unicode="&#x158;" horiz-adv-x="580" 
d="M174 690l148 6q61 0 120 -38q30 -20 49.5 -57t19.5 -85q0 -84 -49 -137.5t-116 -76.5q29 -16 57 -38q76 -64 111.5 -122t35.5 -103t-42 -45q-31 0 -58 61q-11 26 -37.5 68.5t-60.5 79.5q-71 76 -146 103q1 -81 5 -163t4 -99.5t-13.5 -33.5t-34.5 -16t-34.5 16t-13.5 32
t4.5 111t4.5 184t-2 146.5t-4.5 92.5t-2.5 45h-18q-16 0 -28.5 10.5t-12.5 27t12.5 27t25 10.5t34 -3t42.5 -3zM273 627l-58 -1q0 -11 -3 -44q-6 -88 -6 -221q50 -14 73 -14t46.5 5.5t51 18.5t45.5 41.5t18 66.5q0 76 -48.5 112t-118.5 36zM405 882q9 0 9 -9t-6 -17
q-68 -86 -107 -101q-8 -2 -12 -2q-35 0 -117 103q-6 8 -6 17t9 9q3 0 10 -5q52 -40 105 -52q53 12 105 52q7 5 10 5z" />
    <glyph glyph-name="rcaron" unicode="&#x159;" horiz-adv-x="390" 
d="M153 235l8 -181q0 -27 -13.5 -43.5t-32.5 -16.5t-31 15.5t-12 42.5t5 77q10 100 10 169q0 30 -18.5 57.5t-18.5 49.5t15 36.5t34 14.5q50 0 50 -79v-39q30 54 72 86t77 32t53.5 -17.5t18.5 -46.5t-14 -48.5t-30 -19.5t-24.5 8.5t-12.5 18t-15 18t-28 8.5q-29 0 -58 -38
t-35 -104zM310 642q9 0 9 -9t-6 -17q-68 -86 -107 -101q-8 -2 -12 -2q-35 0 -117 103q-6 7 -6 16.5t9 9.5q3 0 10 -5q52 -40 105 -52q53 12 105 52q7 5 10 5z" />
    <glyph glyph-name="Scaron" unicode="&#x160;" horiz-adv-x="568" 
d="M323.5 622.5q-26.5 13.5 -64.5 13.5t-69.5 -28t-31.5 -69.5t36.5 -68.5t88 -42t103 -33.5t88 -60t36.5 -106.5q0 -94 -78.5 -164t-197.5 -70q-79 0 -127.5 39.5t-48.5 82.5q0 23 13 37.5t32.5 14.5t33.5 -11.5t26.5 -28.5t28.5 -34q36 -40 101.5 -40t105.5 38t40 101
q0 47 -37 76.5t-89.5 46t-105 34.5t-89.5 54.5t-37 91t25.5 95t63.5 62.5q76 43 143.5 43t118.5 -29t51 -70q0 -21 -12 -34t-34 -13t-41.5 13.5t-32.5 29.5t-39.5 29.5zM429 879q9 0 9 -9t-6 -17q-68 -86 -107 -101q-8 -2 -12 -2q-35 0 -117 103q-6 8 -6 17t9 9q3 0 10 -5
q52 -40 105 -52q53 12 105 52q7 5 10 5z" />
    <glyph glyph-name="scaron" unicode="&#x161;" horiz-adv-x="427" 
d="M75 9q-23 15 -23 37.5t13.5 36t27 13.5t44.5 -12t64.5 -12t67.5 17.5t34 43t-25.5 39.5t-61.5 22.5t-72 19.5t-61.5 33.5t-25.5 55.5q0 54 69 103.5t152 49.5q40 0 61.5 -14.5t21.5 -37.5t-13.5 -36.5t-27 -13.5t-44.5 12t-64.5 12t-58 -14t-24.5 -34t38.5 -35t84.5 -24
t84.5 -35.5t38.5 -68.5q0 -65 -76 -119t-164 -54q-37 0 -60 15zM334 642q9 0 9 -9t-6 -17q-68 -86 -107 -101q-8 -2 -12 -2q-35 0 -117 103q-6 7 -6 16.5t9 9.5q3 0 10 -5q52 -40 105 -52q53 12 105 52q7 5 10 5z" />
    <glyph glyph-name="Ydieresis" unicode="&#x178;" horiz-adv-x="629" 
d="M363 46q0 -20 -13.5 -36t-34.5 -16t-34.5 16t-13.5 28t4.5 61.5t4.5 191.5q-71 107 -158 217q-32 41 -48 62q-40 51 -40 82q0 44 44 44q19 0 38 -18.5t33 -42.5t40 -70q65 -115 142 -210q66 66 144 220q32 63 52.5 92t40.5 29q35 0 35 -40.5t-65 -128.5q-25 -33 -85 -109
t-95 -113q0 -151 7 -232q2 -23 2 -27zM379.5 798.5q-11.5 10.5 -11.5 31.5t14.5 36t34.5 15t32 -11t12 -32t-15 -35.5t-35 -14.5t-31.5 10.5zM189.5 798.5q-11.5 10.5 -11.5 31.5t14.5 36t34.5 15t32 -11t12 -32t-15 -35.5t-35 -14.5t-31.5 10.5z" />
    <glyph glyph-name="Zcaron" unicode="&#x17d;" horiz-adv-x="612" 
d="M316 690l202 6q16 0 28.5 -10.5t12.5 -26t-3.5 -30t-12.5 -32t-17.5 -33t-24 -37.5t-27.5 -38.5t-32.5 -42.5t-33 -42t-36.5 -45q-147 -178 -209 -289q106 -4 166 -4l202 6q16 0 28.5 -10.5t12.5 -28.5t-12.5 -28.5t-28.5 -10.5l-202 6l-230 -6q-21 0 -35 16t-14 30.5
t5 27.5t17.5 32.5t24 36t35.5 46.5t40 49q69 85 101 125q156 192 182 262q-110 5 -139 5l-202 -6q-16 0 -28.5 10.5t-12.5 28.5t12.5 28.5t28.5 10.5zM426 879q9 0 9 -9t-6 -17q-68 -86 -107 -101q-8 -2 -12 -2q-35 0 -117 103q-6 8 -6 17t9 9q3 0 10 -5q52 -40 105 -52
q53 12 105 52q7 5 10 5z" />
    <glyph glyph-name="zcaron" unicode="&#x17e;" horiz-adv-x="455" 
d="M223 387l-124 -6q-16 0 -27.5 9.5t-11.5 27.5t12 28t27 10l124 -6l137 6q39 0 39 -38q0 -33 -32 -68q-181 -196 -199 -221.5t-18 -34.5q0 -33 92 -33q63 0 117 33q18 11 29 11q19 0 19 -16q0 -26 -67 -60.5t-136.5 -34.5t-110.5 26t-41 52.5t28 61.5q8 10 95.5 109
t122.5 140q-50 4 -75 4zM344 642q9 0 9 -9t-6 -17q-68 -86 -107 -101q-8 -2 -12 -2q-35 0 -117 103q-6 7 -6 16.5t9 9.5q3 0 10 -5q52 -40 105 -52q53 12 105 52q7 5 10 5z" />
    <glyph glyph-name="florin" unicode="&#x192;" horiz-adv-x="368" 
d="M273 296l-126 8q1 -30 7 -164t6 -196q0 -112 -64 -173t-142.5 -61t-78.5 53q0 22 13.5 35.5t29 13.5t38.5 -11.5t56 -11.5t60 29t27 79.5t-14 403.5q-32 -2 -53 -2q-39 0 -39 34t39 34q19 0 51 -2v43q0 112 64 173t142.5 61t78.5 -53q0 -22 -13.5 -35.5t-29 -13.5
t-38.5 11.5t-56 11.5t-60 -29t-27 -86t1 -86l128 8q39 0 39 -37t-39 -37z" />
    <glyph glyph-name="circumflex" unicode="&#x2c6;" horiz-adv-x="348" 
d="M292 539q6 -7 6 -16.5t-9 -9.5q-3 0 -10 5q-52 40 -105 52q-53 -12 -105 -52q-7 -5 -10 -5q-9 0 -9 9.5t6 16.5q79 103 116.5 103t119.5 -103z" />
    <glyph glyph-name="caron" unicode="&#x2c7;" horiz-adv-x="348" 
d="M289 642q9 0 9 -9t-6 -17q-68 -86 -107 -101q-8 -2 -12 -2q-35 0 -117 103q-6 7 -6 16.5t9 9.5q3 0 10 -5q52 -40 105 -52q53 12 105 52q7 5 10 5z" />
    <glyph glyph-name="dotaccent" unicode="&#x2d9;" horiz-adv-x="201" 
d="M62.5 557.5q-12.5 11.5 -12.5 34.5t15.5 39t37.5 16t35 -12t13 -35t-16 -38.5t-38 -15.5t-34.5 11.5z" />
    <glyph glyph-name="ring" unicode="&#x2da;" horiz-adv-x="238" 
d="M68.5 521q-18.5 17 -18.5 44.5t23 52t50.5 24.5t46 -17t18.5 -44.5t-23 -52t-50.5 -24.5t-46 17zM94 597q-10 -10 -10 -24.5t10 -24.5t24.5 -10t24.5 10t10 24.5t-10 24.5t-24.5 10t-24.5 -10z" />
    <glyph glyph-name="tilde" unicode="&#x2dc;" horiz-adv-x="395" 
d="M345 626q0 -32 -33 -72.5t-71 -40.5q-25 0 -57 22.5t-52.5 22.5t-32.5 -7t-15 -15q-8 -23 -17 -23q-17 0 -17 21.5t24.5 47t62 25.5t77.5 -15.5t57.5 -15.5t28.5 16.5t17 33t13 16.5q15 0 15 -16z" />
    <glyph glyph-name="dotaccentcmb" unicode="&#x307;" horiz-adv-x="201" 
d="M62.5 557.5q-12.5 11.5 -12.5 34.5t15.5 39t37.5 16t35 -12t13 -35t-16 -38.5t-38 -15.5t-34.5 11.5z" />
    <glyph glyph-name="endash" unicode="&#x2013;" horiz-adv-x="533" 
d="M83 332l184 -5l184 5q14 0 23 -9t9 -23t-9 -23.5t-23 -9.5l-184 4l-184 -4q-14 0 -23.5 9.5t-9.5 23.5t9.5 23t23.5 9z" />
    <glyph glyph-name="emdash" unicode="&#x2014;" horiz-adv-x="763" 
d="M83 332l299 -5l299 5q14 0 23 -9t9 -23t-9 -23.5t-23 -9.5l-299 4l-299 -4q-14 0 -23.5 9.5t-9.5 23.5t9.5 23t23.5 9z" />
    <glyph glyph-name="quoteleft" unicode="&#x2018;" horiz-adv-x="196" 
d="M130 696q10 0 10 -11q0 -8 -15 -26.5t-15 -33.5t15.5 -30t15.5 -32t-13 -29t-35 -12q-38 0 -38 43.5t28 87t47 43.5z" />
    <glyph glyph-name="quoteright" unicode="&#x2019;" horiz-adv-x="196" 
d="M66 522q-10 0 -10 11q0 8 15 26.5t15 33.5t-15.5 30t-15.5 32t13 29t35 12q38 0 38 -43.5t-28 -87t-47 -43.5z" />
    <glyph glyph-name="quotesinglbase" unicode="&#x201a;" horiz-adv-x="199" 
d="M55 -113q-14 0 -14 15q0 9 20 29t20 37.5t-20.5 39.5t-20.5 44t18 38.5t41.5 16.5t39 -14t15.5 -54.5t-37 -96t-62 -55.5z" />
    <glyph glyph-name="quotedblleft" unicode="&#x201c;" horiz-adv-x="337" 
d="M130 696q10 0 10 -11q0 -8 -15 -26.5t-15 -33.5t15.5 -30t15.5 -32t-13 -29t-35 -12q-38 0 -38 43.5t28 87t47 43.5zM271 696q10 0 10 -11q0 -8 -15 -26.5t-15 -33.5t15.5 -30t15.5 -32t-13 -29t-35 -12q-38 0 -38 43.5t28 87t47 43.5z" />
    <glyph glyph-name="quotedblright" unicode="&#x201d;" horiz-adv-x="337" 
d="M66 522q-10 0 -10 11q0 8 15 26.5t15 33.5t-15.5 30t-15.5 32t13 29t35 12q38 0 38 -43.5t-28 -87t-47 -43.5zM207 522q-10 0 -10 11q0 8 15 26.5t15 33.5t-15.5 30t-15.5 32t13 29t35 12q38 0 38 -43.5t-28 -87t-47 -43.5z" />
    <glyph glyph-name="quotedblbase" unicode="&#x201e;" horiz-adv-x="349" 
d="M55 -113q-14 0 -14 15q0 9 20 29t20 37.5t-20.5 39.5t-20.5 44t18 38.5t41.5 16.5t39 -14t15.5 -54.5t-37 -96t-62 -55.5zM205 -113q-14 0 -14 15q0 9 20 29t20 37.5t-20.5 39.5t-20.5 44t18 38.5t41.5 16.5t39 -14t15.5 -54.5t-37 -96t-62 -55.5z" />
    <glyph glyph-name="bullet" unicode="&#x2022;" horiz-adv-x="262" 
d="M70 163.5q-20 18.5 -20 55.5t25 62.5t60 25.5t56 -19.5t21 -56t-25.5 -61.5t-61 -25t-55.5 18.5z" />
    <glyph glyph-name="ellipsis" unicode="&#x2026;" horiz-adv-x="579" 
d="M54 7q-14 13 -14 38.5t17.5 43.5t42 18t39 -13.5t14.5 -39t-18 -43t-42.5 -17.5t-38.5 13zM247 7q-14 13 -14 38.5t17.5 43.5t42 18t39 -13.5t14.5 -39t-18 -43t-42.5 -17.5t-38.5 13zM440 7q-14 13 -14 38.5t17.5 43.5t42 18t39 -13.5t14.5 -39t-18 -43t-42.5 -17.5
t-38.5 13z" />
    <glyph glyph-name="guilsinglleft" unicode="&#x2039;" horiz-adv-x="319" 
d="M255 484q14 0 14 -14q0 -10 -12 -22.5t-39 -35.5q-93 -83 -93 -126q0 -40 93 -122q27 -24 39 -36.5t12 -22.5q0 -14 -14 -14t-51 26.5t-69 58.5q-85 85 -85 111.5t85 111.5q32 32 69 58.5t51 26.5z" />
    <glyph glyph-name="guilsinglright" unicode="&#x203a;" horiz-adv-x="319" 
d="M184 399q85 -85 85 -111.5t-85 -111.5q-32 -32 -69 -58.5t-51 -26.5t-14 14q0 10 12 22.5t38 36.5q94 82 94 122q0 43 -94 126q-26 23 -38 35.5t-12 22.5q0 14 14 14t51 -26.5t69 -58.5z" />
    <glyph glyph-name="fraction" unicode="&#x2044;" horiz-adv-x="583" 
d="M548 598q0 -21 -21.5 -49.5t-82 -98.5t-104 -127t-81.5 -111t-61.5 -89t-47.5 -67q-46 -62 -77 -62q-38 0 -38 39q0 18 29.5 55.5t96 114t113.5 140.5t102.5 149t83 117.5t50.5 32.5q38 0 38 -44z" />
    <glyph glyph-name="Euro" unicode="&#x20ac;" horiz-adv-x="657" 
d="M394 221l-158 8q-4 0 -88 -3q20 -74 68 -119t112 -45q98 0 172 106q18 24 30 24q20 0 20 -20t-20.5 -48t-54.5 -57.5t-89.5 -51t-115.5 -21.5q-86 0 -140.5 66.5t-63.5 163.5q-42 0 -42 34t39 34h4q3 29 9 55h-13q-39 0 -39 34t39 34q21 0 32 -1q38 103 115.5 165.5
t176.5 62.5q63 0 113.5 -42.5t50.5 -80.5t-35 -38q-32 0 -81.5 47.5t-109 47.5t-107.5 -45.5t-69 -118.5q54 -2 87 -2l158 8q39 0 39 -37t-39 -37l-158 8q-5 0 -98 -3q-1 -11 -1 -30.5t1 -28.5q45 -3 98 -3l158 8q39 0 39 -37t-39 -37z" />
    <glyph glyph-name="minus" unicode="&#x2212;" horiz-adv-x="410" 
d="M205 330q39 0 76.5 3t48 3t20.5 -10t10 -26t-10 -26.5t-20.5 -10.5t-48 2.5t-76.5 2.5t-76.5 -2.5t-48 -2.5t-20.5 10.5t-10 26.5t10 26t20.5 10t48 -3t76.5 -3z" />
    <glyph glyph-name="integral" unicode="&#x222b;" horiz-adv-x="443" 
d="M280 -26q0 -126 -57.5 -195t-128.5 -69q-49 0 -49 53q0 22 13.5 35.5t26.5 13.5t28.5 -11.5t39 -11.5t45 37t21.5 115t-13 296.5t-13 290.5q0 107 45 165.5t102.5 58.5t57.5 -53q0 -22 -13.5 -35.5t-25.5 -13.5t-25 11.5t-31.5 11.5t-33.5 -26.5t-15 -78.5
q0 -108 13 -308.5t13 -285.5z" />
    <glyph glyph-name="CR" unicode="&#xe001;" horiz-adv-x="300" 
 />
    <glyph glyph-name="A.swash" unicode="&#xe002;" horiz-adv-x="679" 
d="M507 300l-168 5q-28 0 -160 -4q-20 -42 -53 -115q-97 -216 -192 -360q-77 -116 -116 -116q-17 0 -28 11.5t-11 31.5t21.5 47t54 58.5t85 104.5t100.5 168q8 15 81 169h-5q-16 0 -27.5 9.5t-11.5 26.5t12 28t31.5 11t37.5 -1q92 188 168 260q-178 -14 -192.5 -14t-27 10
t-12.5 26.5t12.5 28t27.5 11.5l218 -6l237 6q18 0 29 -11t11 -28.5t-11.5 -27t-29.5 -9.5h-24q0 -160 13 -289t26 -199t13 -88.5t-11.5 -34t-30.5 -15.5t-33 14t-16 40zM489 632l-30 1q-119 -15 -244 -260q106 -2 134.5 -2t152.5 4q-13 172 -13 257z" />
    <glyph glyph-name="E.swash" unicode="&#xe003;" horiz-adv-x="599" 
d="M101 696l202 -6l202 6q16 0 28.5 -10.5t12.5 -28.5t-12.5 -28.5t-28.5 -10.5l-202 6q-26 0 -84 -2q0 -12 -2 -43q-6 -93 -6 -174q20 -2 68 -4q27 57 80 92.5t100 35.5q60 0 60 -49q0 -16 -11.5 -27.5t-24 -11.5t-31 12t-45.5 12t-54 -18t-40 -46q40 0 88 3t58.5 3
t20.5 -10t10 -26t-10 -26.5t-26 -10.5l-139 5h-10q7 -39 37 -64.5t65 -25.5t65 21.5t33 21.5q14 0 14 -14q0 -10 -16.5 -28.5t-53 -36.5t-82.5 -18t-77.5 35.5t-31.5 79.5q0 10 2 28l-49 -3q0 -122 4.5 -191t4.5 -78l298 6q16 0 28.5 -10.5t12.5 -28.5t-12.5 -28.5
t-28.5 -10.5l-192 6q-40 0 -95 -3t-59 -3q-21 0 -34.5 16t-13.5 32t4.5 111t4.5 183.5t-9 281.5h-23q-16 0 -28.5 10.5t-12.5 28.5t12.5 28.5t28.5 10.5z" />
    <glyph glyph-name="B.swash" unicode="&#xe004;" horiz-adv-x="604" 
d="M-7 488q0 68 86 138t193 70q79 0 129 -45.5t50 -104.5t-54 -106q83 -23 126.5 -82t43.5 -128q0 -93 -73 -164.5t-187 -71.5h-206q-16 0 -28.5 10.5t-12.5 27.5t12.5 27.5t28.5 10.5h19q0 11 4.5 95t4.5 165.5t-2 135.5t-4.5 87.5t-2.5 44.5q-54 -46 -54 -110
q0 -17 -10 -27.5t-27 -10.5q-36 0 -36 38zM216 66q66 -7 120.5 -7t99 40.5t44.5 117t-47 118.5t-114.5 42t-111.5 -27q0 -61 4 -153.5t5 -130.5zM211 628q5 -12 5 -20.5t-4 -70.5t-5 -141q58 51 143 51q30 25 30 74.5t-38.5 78.5t-108.5 29q-4 0 -11.5 -0.5t-10.5 -0.5z" />
    <glyph glyph-name="D.swash" unicode="&#xe005;" horiz-adv-x="691" 
d="M204 690l156 6q74 0 148 -36q44 -21 78 -52t57 -84.5t23 -130.5t-33 -155.5t-86 -130.5t-118.5 -82.5t-131.5 -30.5q-94 0 -164 55t-70 147q0 126 146 196q0 100 -4.5 153t-4.5 62t3 18q-100 -5 -109 -5t-21.5 10.5t-12.5 27.5t12.5 27.5t28.5 10.5zM287 352l9 -147
q0 -19 -13.5 -34t-34.5 -15t-34.5 15t-13.5 30.5t3.5 60t4.5 86.5q-31 -15 -51 -50.5t-20 -81.5q0 -66 48.5 -108.5t136.5 -42.5q115 0 193 86.5t78 210.5t-77 194.5t-219 70.5h-5q4 -14 4 -18.5t-4.5 -61.5t-4.5 -134q71 0 110.5 -39t39.5 -89q0 -21 -12.5 -36t-33.5 -15
t-34.5 15t-13.5 34q0 51 -56 69z" />
    <glyph glyph-name="P.swash" unicode="&#xe006;" horiz-adv-x="630" 
d="M398 696q90 0 141 -50.5t51 -149t-71 -180.5t-179 -82q-62 0 -80 16q-13 13 -13 31.5t12 29t27.5 10.5t42 -10t52.5 -10q56 0 97.5 45.5t41.5 113t-44.5 117.5t-115.5 50t-132 -38q-12 -306 -12 -793q0 -87 -55 -87q-21 0 -37.5 16t-16.5 40.5t21.5 54.5t21.5 63
q0 323 -3 423q-5 167 -5 210q-28 -33 -45 -68t-37 -35q-27 0 -27 28t31 69.5t79.5 83t118 72t136.5 30.5z" />
    <glyph glyph-name="R.swash" unicode="&#xe007;" horiz-adv-x="580" 
d="M206 263l9 -217q0 -20 -13.5 -36t-34.5 -16t-34.5 16t-13.5 32t4.5 111t4.5 184t-2 146.5t-4.5 92.5t-2.5 45h-18q-16 0 -28.5 10.5t-12.5 27t12.5 27t25 10.5t34 -3t42.5 -3l148 6q60 0 120 -42q31 -22 50 -63t19 -95q0 -87 -45.5 -144.5t-109.5 -84.5
q51 -25 102.5 -85.5t109 -145.5t88.5 -122t70 -67.5t55 -46t16 -37.5t-17 -37.5t-45 -15.5q-38 0 -83.5 57t-92.5 138t-98.5 162.5t-118.5 138.5t-136 57zM273 627l-58 -1q0 -11 -3 -46q-6 -91 -6 -232v-27q50 -14 70.5 -14t38.5 3.5t41 14t41 26.5t30.5 44t12.5 64
q0 86 -48.5 127t-118.5 41z" />
    <glyph glyph-name="S.swash" unicode="&#xe008;" horiz-adv-x="539" 
d="M395 567q-57 69 -117 69q-47 0 -79 -32t-32 -76t25.5 -73t63.5 -48t82 -44.5t82 -53t63.5 -75t25.5 -116.5t-27 -137t-71 -117t-101 -84q-114 -70 -237 -70q-83 0 -144.5 41t-61.5 93t49 52q19 0 77 -53q22 -20 60.5 -36.5t86 -16.5t99.5 18t97.5 51.5t73.5 89t28 124
t-36 116.5t-87 75t-102 52.5t-87 65.5t-36 97.5t25.5 102.5t64.5 68q74 46 147 46t119 -34t46 -78q0 -26 -13 -39.5t-30 -13.5t-28.5 9.5t-25.5 26.5z" />
    <glyph glyph-name="Q.swash" unicode="&#xe009;" 
d="M343 63q30 0 94 22t121.5 22t93 -33.5t35.5 -102t-45.5 -132.5t-101 -96.5t-97.5 -32.5q-23 0 -35 12t-12 31t14 34t26.5 15t30 -7t33.5 -7q45 0 83 38t38 91.5t-32 84.5t-83 31q-28 0 -79 -19.5t-98 -19.5q-123 0 -213.5 90.5t-90.5 241.5t99.5 260.5t242 109.5
t231.5 -91.5t89 -228.5q0 -80 -27 -156t-65 -76q-24 0 -24 25q0 4 17 53t17 103q0 122 -70.5 212.5t-190.5 90.5q-105 0 -171 -71t-66 -192.5t73 -211.5t163 -90z" />
    <glyph glyph-name="O.swash" unicode="&#xe00a;" 
d="M292 345q0 28 19 48.5t45.5 20.5t45 -20t18.5 -48.5t-18.5 -49t-45 -20.5t-45.5 20.5t-19 48.5zM178.5 152q71.5 -90 183.5 -90t177.5 71.5t65.5 193t-71.5 211.5t-184 90t-177.5 -71.5t-65 -193t71.5 -211.5zM332 -6q-130 0 -218.5 93.5t-88.5 226.5q0 166 100 274
t255 108q130 0 218.5 -93.5t88.5 -226.5q0 -166 -100 -274t-255 -108z" />
    <glyph glyph-name="G.swash" unicode="&#xe00b;" horiz-adv-x="691" 
d="M548 136l-8 145q0 20 13.5 35.5t34.5 15.5t34.5 -15.5t13.5 -35.5q0 -3 -4.5 -77t-4.5 -170.5t4.5 -179.5t4.5 -98t-13.5 -30t-34.5 -15t-34.5 15t-13.5 31t4 98.5t5 173.5v42q-96 -77 -202 -77q-130 0 -218.5 93.5t-88.5 226.5q0 166 99.5 274t253.5 108
q89 0 163.5 -35.5t74.5 -81.5q0 -20 -13.5 -34t-32.5 -14t-38 15t-36.5 33.5t-55 33.5t-88.5 15q-115 0 -180 -73t-65 -193t71.5 -210t186.5 -90q90 0 168 74z" />
    <glyph glyph-name="H.swash" unicode="&#xe00c;" horiz-adv-x="650" 
d="M195.5 155.5q4.5 -100.5 4.5 -115t-13.5 -30.5t-34.5 -16t-34.5 16t-13.5 33t4 105t5 178q-15 -15 -27 -15q-27 0 -27 27q0 40 53 75q-1 82 -4.5 151t-3.5 84t13.5 31t34.5 16t34.5 -16t13.5 -31.5t-4 -77t-5 -130.5q5 1 27.5 1t57.5 -15.5t58 -33.5q60 -50 94 -50t55 19
q-1 107 -5 191t-4 97.5t13.5 29.5t34.5 16t34.5 -16t13.5 -36q0 -3 -4.5 -92t-4.5 -196t4.5 -202t4.5 -111t-13.5 -32t-34.5 -16t-34.5 16t-13.5 35t3.5 94t4.5 146q-26 -14 -62 -14t-71 15t-55 32q-55 48 -103 50q0 -112 4.5 -212.5z" />
    <glyph glyph-name="I.swash" unicode="&#xe00d;" horiz-adv-x="494" 
d="M202 70l56 -5q8 77 8 281.5t-8 280.5q-22 3 -60.5 3t-73 -18.5t-34.5 -50.5q0 -52 37 -52q15 0 24 -10t9 -25t-11 -24.5t-30 -9.5q-35 0 -59.5 29.5t-24.5 73.5t26.5 77.5t70.5 48.5q81 27 161.5 27t118 -10t37.5 -39q0 -17 -12.5 -27t-28.5 -10l-58 8q-6 -67 -6 -271.5
t8 -281.5l56 5q16 0 28.5 -10t12.5 -28t-13 -28t-30 -10l-101 7l-101 -7q-17 0 -30 10t-13 28t12.5 28t28.5 10z" />
    <glyph glyph-name="J.swash" unicode="&#xe00e;" horiz-adv-x="427" 
d="M255 622q-28 4 -62 4t-68.5 -19t-34.5 -50q0 -52 37 -52q15 0 24 -10t9 -25t-11 -24.5t-30 -9.5q-35 0 -59.5 29.5t-24.5 70t20 73t52 51.5q63 36 143 36q97 0 97 -58q0 -28 -4.5 -145.5t-4.5 -213t-9.5 -171.5t-34 -151t-63 -128t-100 -86t-140 -33t-138 35.5
t-59.5 81.5q0 21 12 34.5t29.5 13.5t32 -10t31.5 -27q66 -68 146 -68q55 0 98 42t69 114q51 144 51 342q0 279 -8 354z" />
    <glyph glyph-name="K.swash" unicode="&#xe00f;" horiz-adv-x="557" 
d="M147 348l4 -302q0 -21 -11.5 -36.5t-32.5 -15.5t-34 15.5t-13 36.5l5 302l-5 295q0 21 13 37t34 16t32.5 -15.5t11.5 -42.5t-1.5 -105.5t-1.5 -98.5q56 94 158.5 178t163.5 84q23 0 38.5 -14t15.5 -36t-15.5 -36t-31.5 -14t-32.5 8.5t-36.5 8.5t-61 -30t-88 -80
q-45 -50 -73 -94q299 -388 723 -587q65 -30 65 -68q0 -20 -14 -32t-39 -12q-62 0 -207.5 104t-301.5 249q-71 65 -146.5 147.5t-118.5 137.5z" />
    <glyph glyph-name="L.swash" unicode="&#xe010;" horiz-adv-x="483" 
d="M230 -2l-118 -4q-23 0 -37.5 15t-14.5 32t4.5 112t4.5 202t-4.5 195.5t-4.5 91.5q0 21 13.5 37.5t34.5 16.5t34.5 -16.5t13.5 -37.5q0 -3 -4.5 -91.5t-4.5 -179t1.5 -145.5t4.5 -103t3 -57h35q92 0 132 3.5t62 21.5t22 43.5t-20.5 44t-44.5 18.5q-50 0 -50 39q0 16 16 28
t39 12q53 0 89.5 -34.5t36.5 -81.5q0 -62 -52 -114t-116 -52z" />
    <glyph glyph-name="M.swash" unicode="&#xe011;" horiz-adv-x="907" 
d="M763 614l-12 -1q11 -310 23 -445q3 -33 28 -65t25 -54.5t-13.5 -38.5t-36 -16t-38 27.5t-18.5 59.5q-24 333 -60 505q-91 -46 -178 -159q79 -125 79 -212.5t-59 -151t-110 -63.5t-78.5 33t-27.5 81.5t32.5 123t85.5 155.5q-46 69 -106 122t-117 73q0 -3 -8 -56
q-35 -219 -48 -576q-5 -161 -7.5 -187t-16.5 -40.5t-32.5 -14.5t-34 14.5t-15.5 47t27 192.5q56 332 60 633q-41 9 -41 51q0 19 18 31.5t44 12.5q77 0 166.5 -65.5t161.5 -164.5q76 101 157 165.5t150 64.5q47 0 47 -38q0 -18 -15.5 -31t-31.5 -13zM483 179q0 76 -53 172
q-81 -130 -81 -196q0 -36 18.5 -63t46.5 -27t48.5 35.5t20.5 78.5z" />
    <glyph glyph-name="N.swash" unicode="&#xe012;" horiz-adv-x="731" 
d="M170 602q-3 -66 -3 -210t9.5 -239t9.5 -111t-13.5 -32t-34.5 -16t-34.5 16t-13.5 32t9.5 111t9.5 187t-4 268q-20 1 -35 11.5t-15 29.5q0 47 63 47q51 0 106.5 -26t120 -95t110.5 -172q15 -33 58 -133t65 -144q-2 292 -17 398q-5 35 -9.5 64t-4.5 52.5t14.5 39.5t35 16
t33.5 -16t13 -47.5t-5 -115.5q-10 -196 -10 -472q81 -128 135 -174q30 -26 62.5 -43.5t49.5 -23.5q39 -14 39 -53q0 -16 -15 -29t-38 -13q-55 0 -117 55t-122 150q-112 180 -217 445q-83 212 -235 243z" />
    <glyph glyph-name="T.swash" unicode="&#xe013;" horiz-adv-x="569" 
d="M263 627l-53 1q-140 0 -140 -82q0 -56 57 -67q38 -7 38 -40q0 -18 -12.5 -28.5t-33.5 -10.5q-44 0 -74 37.5t-30 85.5q0 173 296 173h202q16 0 28.5 -10.5t12.5 -28.5t-12.5 -28.5t-28.5 -10.5l-155 5q-8 -172 -8 -273.5t4.5 -196.5t4.5 -111t-13.5 -32t-34.5 -16
t-34.5 16t-13.5 32t4.5 111t4.5 188t-9 286z" />
    <glyph glyph-name="V.swash" unicode="&#xe014;" horiz-adv-x="650" 
d="M537 484q0 128 -105 128q-43 0 -73 -20t-30 -57q0 -23 12.5 -32.5t35.5 -15t32 -9t16.5 -13.5t7.5 -29t-15 -31.5t-37 -12.5q-39 0 -73 34t-34 81q0 64 55.5 126.5t132.5 62.5t117.5 -47t40.5 -124q0 -120 -91.5 -281t-185.5 -234q-21 -16 -36 -16q-33 0 -48 39l-112 294
q-20 51 -43 106.5t-34 82.5t-22 55q-18 49 -18 71.5t11 38t31 15.5q35 0 52 -41q3 -8 16 -49q119 -354 198 -522q76 67 137.5 180.5t61.5 219.5z" />
    <glyph glyph-name="W.swash" unicode="&#xe015;" horiz-adv-x="874" 
d="M761 488q0 124 -89 124q-40 0 -69.5 -20.5t-29.5 -57.5q0 -23 12 -31.5t40 -15.5t40 -16t12 -31.5t-15 -35t-37 -12.5q-39 0 -73 36.5t-34 96t49 115.5t125 56t114 -46t38 -122q0 -120 -86 -283t-171 -235q-18 -16 -36 -16q-32 0 -48 39q-3 6 -9 24q-23 70 -40 117
q-69 -112 -131 -164q-18 -16 -36 -16q-33 0 -48 39q-2 6 -19 55t-41 118.5t-42 119.5t-38 103.5t-30.5 81.5t-20.5 57q-18 51 -18 74t11 38.5t31 15.5q37 0 52 -41q3 -7 14 -47q58 -196 175 -524q66 70 116 164q-10 25 -29.5 81.5t-40 113t-31 84t-19.5 53.5q-15 42 -15 64
t11 37t31 15q37 0 52 -41q3 -7 14 -47q58 -196 175 -524q70 74 127 184.5t57 219.5z" />
    <glyph glyph-name="C.swash" unicode="&#xe016;" horiz-adv-x="656" 
d="M487 438l42 -9q32 0 32 46.5t-59.5 99.5t-150.5 53q-114 0 -179 -71.5t-65 -194t72 -211.5t184 -89t200 106q19 24 29 24t15.5 -6.5t5.5 -19.5t-20.5 -41.5t-55 -58t-90 -51t-115.5 -21.5q-132 0 -219.5 94t-87.5 242.5t100.5 257t250.5 108.5q105 0 172.5 -54.5
t67.5 -137.5q0 -66 -40.5 -109.5t-85.5 -43.5q-24 0 -35.5 13t-11.5 30t13.5 30.5t30.5 13.5z" />
    <glyph glyph-name="F.swash" unicode="&#xe017;" horiz-adv-x="586" 
d="M101 696l202 -6l202 6q16 0 28.5 -10.5t12.5 -28.5t-12.5 -28.5t-28.5 -10.5l-202 6q-26 0 -84 -2q0 -2 -3.5 -67t-4.5 -130q38 -4 87 -28.5t71.5 -24.5t40.5 8.5t24 19.5q14 27 34 27q24 0 24 -29.5t-37 -68t-86.5 -38.5t-95 31t-62.5 34q0 -105 4.5 -202t4.5 -112.5
t-13.5 -31.5t-34.5 -16t-34.5 16t-13.5 33.5t4 105.5t5 178q-2 -2 -6 -6.5t-6 -6.5t-6 -5t-7 -5q-5 -3 -12 -3q-22 0 -22 27q0 16 17 38t42 38q0 56 -9 214h-23q-16 0 -28.5 10.5t-12.5 28.5t12.5 28.5t28.5 10.5z" />
    <glyph glyph-name="U.swash" unicode="&#xe018;" horiz-adv-x="676" 
d="M262.5 659.5q33.5 -36.5 33.5 -80t-23.5 -88t-51 -80.5t-51 -86t-23.5 -97q0 -83 55 -124t138 -41q43 0 91.5 19.5t76.5 42.5q6 150 6 243.5t-4.5 182t-4.5 91.5q0 21 13.5 37.5t34.5 16.5t34.5 -16.5t13.5 -37.5q0 -3 -4.5 -91.5t-4.5 -195.5t4.5 -202t4.5 -111
t-13.5 -32t-34.5 -16t-34.5 16t-13.5 36v27q-95 -79 -199.5 -79t-173 54t-68.5 146q0 60 24.5 117t53.5 93q78 95 78 148q0 68 -71 68q-28 0 -45.5 -22t-17.5 -60q0 -13 -8.5 -22.5t-20.5 -9.5t-19.5 9.5t-7.5 22.5q0 67 42 112.5t99.5 45.5t91 -36.5z" />
    <glyph glyph-name="X.swash" unicode="&#xe019;" horiz-adv-x="579" 
d="M79 -5q-22 0 -35.5 15.5t-13.5 32.5t11 39t33.5 53t45.5 60t59.5 75t62.5 80q-38 51 -100 127t-87 112.5t-25 56.5t10.5 35t36.5 15t53 -39q106 -172 158 -243q50 68 103 152.5t58 91.5q24 38 46 38q43 0 43 -43q0 -29 -48 -91q-44 -55 -92.5 -112t-71.5 -86
q22 -28 74 -95.5t76 -98t67 -85.5t68.5 -84t58.5 -64q59 -64 95.5 -84t80 -36t61 -27t17.5 -30t-17.5 -34.5t-49 -15.5t-69 15t-69.5 35.5t-73 61.5t-70 73.5t-74.5 92.5t-71.5 97q-73 101 -152 215q-97 -136 -148 -266q-15 -39 -51 -39z" />
    <glyph glyph-name="Y.swash" unicode="&#xe01a;" horiz-adv-x="629" 
d="M-216 -199l53 -8q60 0 154.5 77.5t179.5 181.5t136 197q-94 139 -157.5 219.5t-79.5 101.5q-40 51 -40 82q0 44 44 44q19 0 38 -18.5t33 -42.5t40 -70q81 -143 168 -245q67 109 139 276q25 59 26 61q20 39 47 39q34 0 34 -39q0 -24 -26 -74t-87 -153.5t-101 -177.5
q-134 -225 -279 -376q-75 -78 -152.5 -122t-146.5 -44q-33 0 -53 13.5t-20 32.5t12.5 32t37.5 13z" />
    <glyph glyph-name="Z.swash" unicode="&#xe01b;" horiz-adv-x="612" 
d="M316 690l202 6q16 0 28.5 -10.5t12.5 -27.5t-5.5 -36t-20.5 -44.5t-26.5 -44t-38.5 -53t-39.5 -51t-47 -58.5t-45.5 -56q-127 -145 -204 -271q81 -43 178.5 -76.5t153.5 -33.5t84.5 19t28.5 47q0 45 -55 55q-20 3 -34.5 15.5t-14.5 33t15 33t36 12.5q41 0 74.5 -33.5
t33.5 -87.5q0 -70 -56 -119t-138 -49t-191.5 44t-167.5 91q-29 23 -29 51q0 19 17.5 46.5t29 44t35.5 46.5t40 49q69 85 101 125q156 192 182 262q-110 5 -139 5l-202 -6q-16 0 -28.5 10.5t-12.5 28.5t12.5 28.5t28.5 10.5z" />
    <glyph glyph-name="commaaccent" unicode="&#xe01c;" horiz-adv-x="300" 
d="M108 -290q-14 0 -14 15q0 8 15 27.5t15 39.5t-15.5 39t-15.5 39.5t18 37t41.5 16.5t39 -14t15.5 -53.5t-37 -93t-62 -53.5z" />
    <glyph glyph-name="OE.swash" unicode="&#xe01d;" horiz-adv-x="978" 
d="M887 -6l-192 6q-40 0 -95 -3t-59 -3q-32 0 -45 31q-68 -31 -149 -31q-130 0 -218.5 93.5t-88.5 226.5q0 166 100 274t255 108l277 -6l202 6q16 0 28.5 -10.5t12.5 -28.5t-12.5 -28.5t-28.5 -10.5l-202 6q-26 0 -84 -2q0 -12 -2 -43q-6 -93 -6 -174q20 -2 68 -4
q27 57 80 92.5t100 35.5q60 0 60 -49q0 -16 -11.5 -27.5t-24 -11.5t-31 12t-45.5 12t-54 -18t-40 -46q40 0 88 3t58.5 3t20.5 -10t10 -26t-10 -26.5t-26 -10.5l-139 5h-10q7 -39 37 -64.5t65 -25.5t65 21.5t33 21.5q14 0 14 -14q0 -10 -16.5 -28.5t-53 -36.5t-82.5 -18
t-77.5 35.5t-31.5 79.5q0 10 2 28l-49 -3q0 -122 4.5 -191t4.5 -78l298 6q16 0 28.5 -10.5t12.5 -28.5t-12.5 -28.5t-28.5 -10.5zM380 62q67 0 118 27q4 80 4 210t-9 324q-103 5 -131 5q-110 0 -175 -71.5t-65 -193t71.5 -211.5t186.5 -90zM307 345q0 28 19 48.5t45.5 20.5
t45 -20t18.5 -48.5t-18.5 -49t-45 -20.5t-45.5 20.5t-19 48.5z" />
    <glyph glyph-name="Ograve.swash" unicode="&#xe01e;" 
d="M292 345q0 28 19 48.5t45.5 20.5t45 -20t18.5 -48.5t-18.5 -49t-45 -20.5t-45.5 20.5t-19 48.5zM178.5 152q71.5 -90 183.5 -90t177.5 71.5t65.5 193t-71.5 211.5t-184 90t-177.5 -71.5t-65 -193t71.5 -211.5zM332 -6q-130 0 -218.5 93.5t-88.5 226.5q0 166 100 274
t255 108q130 0 218.5 -93.5t88.5 -226.5q0 -166 -100 -274t-255 -108zM440 762q0 -12 -12 -12q-4 0 -12 5q-57 34 -135 48q-37 7 -37 40q0 15 11.5 25.5t26.5 10.5q47 0 150 -103q8 -8 8 -14z" />
    <glyph glyph-name="Oacute.swash" unicode="&#xe01f;" 
d="M292 345q0 28 19 48.5t45.5 20.5t45 -20t18.5 -48.5t-18.5 -49t-45 -20.5t-45.5 20.5t-19 48.5zM178.5 152q71.5 -90 183.5 -90t177.5 71.5t65.5 193t-71.5 211.5t-184 90t-177.5 -71.5t-65 -193t71.5 -211.5zM332 -6q-130 0 -218.5 93.5t-88.5 226.5q0 166 100 274
t255 108q130 0 218.5 -93.5t88.5 -226.5q0 -166 -100 -274t-255 -108zM304 762q0 6 8 14q103 103 150 103q15 0 26.5 -10.5t11.5 -25.5q0 -33 -37 -40q-78 -14 -135 -48q-8 -5 -12 -5q-12 0 -12 12z" />
    <glyph glyph-name="Ocircumflex.swash" unicode="&#xe020;" 
d="M292 345q0 28 19 48.5t45.5 20.5t45 -20t18.5 -48.5t-18.5 -49t-45 -20.5t-45.5 20.5t-19 48.5zM178.5 152q71.5 -90 183.5 -90t177.5 71.5t65.5 193t-71.5 211.5t-184 90t-177.5 -71.5t-65 -193t71.5 -211.5zM332 -6q-130 0 -218.5 93.5t-88.5 226.5q0 166 100 274
t255 108q130 0 218.5 -93.5t88.5 -226.5q0 -166 -100 -274t-255 -108zM500 776q6 -7 6 -16.5t-9 -9.5q-3 0 -10 5q-52 40 -105 52q-53 -12 -105 -52q-7 -5 -10 -5q-9 0 -9 9t6 17q79 103 116.5 103t119.5 -103z" />
    <glyph glyph-name="Otilde.swash" unicode="&#xe021;" 
d="M292 345q0 28 19 48.5t45.5 20.5t45 -20t18.5 -48.5t-18.5 -49t-45 -20.5t-45.5 20.5t-19 48.5zM178.5 152q71.5 -90 183.5 -90t177.5 71.5t65.5 193t-71.5 211.5t-184 90t-177.5 -71.5t-65 -193t71.5 -211.5zM332 -6q-130 0 -218.5 93.5t-88.5 226.5q0 166 100 274
t255 108q130 0 218.5 -93.5t88.5 -226.5q0 -166 -100 -274t-255 -108zM524 863q0 -32 -33 -72.5t-71 -40.5q-25 0 -57.5 22.5t-52.5 22.5t-32 -7t-15 -16q-8 -22 -17 -22q-17 0 -17 21.5t24.5 47t62 25.5t77.5 -15.5t57.5 -15.5t28.5 16.5t17 33t13 16.5q15 0 15 -16z" />
    <glyph glyph-name="Odieresis.swash" unicode="&#xe022;" 
d="M292 345q0 28 19 48.5t45.5 20.5t45 -20t18.5 -48.5t-18.5 -49t-45 -20.5t-45.5 20.5t-19 48.5zM178.5 152q71.5 -90 183.5 -90t177.5 71.5t65.5 193t-71.5 211.5t-184 90t-177.5 -71.5t-65 -193t71.5 -211.5zM332 -6q-130 0 -218.5 93.5t-88.5 226.5q0 166 100 274
t255 108q130 0 218.5 -93.5t88.5 -226.5q0 -166 -100 -274t-255 -108zM435.5 798.5q-11.5 10.5 -11.5 31.5t14.5 36t34.5 15t32 -11t12 -32t-15 -35.5t-35 -14.5t-31.5 10.5zM245.5 798.5q-11.5 10.5 -11.5 31.5t14.5 36t34.5 15t32 -11t12 -32t-15 -35.5t-35 -14.5
t-31.5 10.5z" />
    <glyph glyph-name="Egrave.swash" unicode="&#xe023;" horiz-adv-x="599" 
d="M101 696l202 -6l202 6q16 0 28.5 -10.5t12.5 -28.5t-12.5 -28.5t-28.5 -10.5l-202 6q-26 0 -84 -2q0 -12 -2 -43q-6 -93 -6 -174q20 -2 68 -4q27 57 80 92.5t100 35.5q60 0 60 -49q0 -16 -11.5 -27.5t-24 -11.5t-31 12t-45.5 12t-54 -18t-40 -46q40 0 88 3t58.5 3
t20.5 -10t10 -26t-10 -26.5t-26 -10.5l-139 5h-10q7 -39 37 -64.5t65 -25.5t65 21.5t33 21.5q14 0 14 -14q0 -10 -16.5 -28.5t-53 -36.5t-82.5 -18t-77.5 35.5t-31.5 79.5q0 10 2 28l-49 -3q0 -122 4.5 -191t4.5 -78l298 6q16 0 28.5 -10.5t12.5 -28.5t-12.5 -28.5
t-28.5 -10.5l-192 6q-40 0 -95 -3t-59 -3q-21 0 -34.5 16t-13.5 32t4.5 111t4.5 183.5t-9 281.5h-23q-16 0 -28.5 10.5t-12.5 28.5t12.5 28.5t28.5 10.5zM400 762q0 -12 -12 -12q-4 0 -12 5q-57 34 -135 48q-37 7 -37 40q0 15 11.5 25.5t26.5 10.5q47 0 150 -103q8 -8 8 -14
z" />
    <glyph glyph-name="Eacute.swash" unicode="&#xe024;" horiz-adv-x="599" 
d="M254 762q0 6 8 14q103 103 150 103q15 0 26.5 -10.5t11.5 -25.5q0 -33 -37 -40q-78 -14 -135 -48q-8 -5 -12 -5q-12 0 -12 12zM101 696l202 -6l202 6q16 0 28.5 -10.5t12.5 -28.5t-12.5 -28.5t-28.5 -10.5l-202 6q-26 0 -84 -2q0 -12 -2 -43q-6 -93 -6 -174q20 -2 68 -4
q27 57 80 92.5t100 35.5q60 0 60 -49q0 -16 -11.5 -27.5t-24 -11.5t-31 12t-45.5 12t-54 -18t-40 -46q40 0 88 3t58.5 3t20.5 -10t10 -26t-10 -26.5t-26 -10.5l-139 5h-10q7 -39 37 -64.5t65 -25.5t65 21.5t33 21.5q14 0 14 -14q0 -10 -16.5 -28.5t-53 -36.5t-82.5 -18
t-77.5 35.5t-31.5 79.5q0 10 2 28l-49 -3q0 -122 4.5 -191t4.5 -78l298 6q16 0 28.5 -10.5t12.5 -28.5t-12.5 -28.5t-28.5 -10.5l-192 6q-40 0 -95 -3t-59 -3q-21 0 -34.5 16t-13.5 32t4.5 111t4.5 183.5t-9 281.5h-23q-16 0 -28.5 10.5t-12.5 28.5t12.5 28.5t28.5 10.5z
" />
    <glyph glyph-name="Ecircumflex.swash" unicode="&#xe025;" horiz-adv-x="599" 
d="M450 776q6 -7 6 -16.5t-9 -9.5q-3 0 -10 5q-52 40 -105 52q-53 -12 -105 -52q-7 -5 -10 -5q-9 0 -9 9t6 17q79 103 116.5 103t119.5 -103zM101 696l202 -6l202 6q16 0 28.5 -10.5t12.5 -28.5t-12.5 -28.5t-28.5 -10.5l-202 6q-26 0 -84 -2q0 -12 -2 -43q-6 -93 -6 -174
q20 -2 68 -4q27 57 80 92.5t100 35.5q60 0 60 -49q0 -16 -11.5 -27.5t-24 -11.5t-31 12t-45.5 12t-54 -18t-40 -46q40 0 88 3t58.5 3t20.5 -10t10 -26t-10 -26.5t-26 -10.5l-139 5h-10q7 -39 37 -64.5t65 -25.5t65 21.5t33 21.5q14 0 14 -14q0 -10 -16.5 -28.5t-53 -36.5
t-82.5 -18t-77.5 35.5t-31.5 79.5q0 10 2 28l-49 -3q0 -122 4.5 -191t4.5 -78l298 6q16 0 28.5 -10.5t12.5 -28.5t-12.5 -28.5t-28.5 -10.5l-192 6q-40 0 -95 -3t-59 -3q-21 0 -34.5 16t-13.5 32t4.5 111t4.5 183.5t-9 281.5h-23q-16 0 -28.5 10.5t-12.5 28.5t12.5 28.5
t28.5 10.5z" />
    <glyph glyph-name="Edieresis.swash" unicode="&#xe026;" horiz-adv-x="599" 
d="M391.5 798.5q-11.5 10.5 -11.5 31.5t14.5 36t34.5 15t32 -11t12 -32t-15 -35.5t-35 -14.5t-31.5 10.5zM201.5 798.5q-11.5 10.5 -11.5 31.5t14.5 36t34.5 15t32 -11t12 -32t-15 -35.5t-35 -14.5t-31.5 10.5zM101 696l202 -6l202 6q16 0 28.5 -10.5t12.5 -28.5
t-12.5 -28.5t-28.5 -10.5l-202 6q-26 0 -84 -2q0 -12 -2 -43q-6 -93 -6 -174q20 -2 68 -4q27 57 80 92.5t100 35.5q60 0 60 -49q0 -16 -11.5 -27.5t-24 -11.5t-31 12t-45.5 12t-54 -18t-40 -46q40 0 88 3t58.5 3t20.5 -10t10 -26t-10 -26.5t-26 -10.5l-139 5h-10
q7 -39 37 -64.5t65 -25.5t65 21.5t33 21.5q14 0 14 -14q0 -10 -16.5 -28.5t-53 -36.5t-82.5 -18t-77.5 35.5t-31.5 79.5q0 10 2 28l-49 -3q0 -122 4.5 -191t4.5 -78l298 6q16 0 28.5 -10.5t12.5 -28.5t-12.5 -28.5t-28.5 -10.5l-192 6q-40 0 -95 -3t-59 -3q-21 0 -34.5 16
t-13.5 32t4.5 111t4.5 183.5t-9 281.5h-23q-16 0 -28.5 10.5t-12.5 28.5t12.5 28.5t28.5 10.5z" />
    <glyph glyph-name="Nacute.swash" unicode="&#xe027;" horiz-adv-x="731" 
d="M170 602q-3 -66 -3 -210t9.5 -239t9.5 -111t-13.5 -32t-34.5 -16t-34.5 16t-13.5 32t9.5 111t9.5 187t-4 268q-20 1 -35 11.5t-15 29.5q0 47 63 47q51 0 106.5 -26t120 -95t110.5 -172q15 -33 58 -133t65 -144q-2 292 -17 398q-5 35 -9.5 64t-4.5 52.5t14.5 39.5t35 16
t33.5 -16t13 -47.5t-5 -115.5q-10 -196 -10 -472q81 -128 135 -174q30 -26 62.5 -43.5t49.5 -23.5q39 -14 39 -53q0 -16 -15 -29t-38 -13q-55 0 -117 55t-122 150q-112 180 -217 445q-83 212 -235 243zM267 765q0 6 8 14q103 103 150 103q15 0 26.5 -10.5t11.5 -25.5
q0 -33 -37 -40q-78 -14 -135 -48q-8 -5 -12 -5q-12 0 -12 12z" />
    <glyph glyph-name="Ntilde.swash" unicode="&#xe028;" horiz-adv-x="731" 
d="M524 863q0 -32 -33 -72.5t-71 -40.5q-25 0 -57.5 22.5t-52.5 22.5t-32 -7t-15 -16q-8 -22 -17 -22q-17 0 -17 21.5t24.5 47t62 25.5t77.5 -15.5t57.5 -15.5t28.5 16.5t17 33t13 16.5q15 0 15 -16zM170 602q-3 -66 -3 -210t9.5 -239t9.5 -111t-13.5 -32t-34.5 -16
t-34.5 16t-13.5 32t9.5 111t9.5 187t-4 268q-20 1 -35 11.5t-15 29.5q0 47 63 47q51 0 106.5 -26t120 -95t110.5 -172q15 -33 58 -133t65 -144q-2 292 -17 398q-5 35 -9.5 64t-4.5 52.5t14.5 39.5t35 16t33.5 -16t13 -47.5t-5 -115.5q-10 -196 -10 -472q81 -128 135 -174
q30 -26 62.5 -43.5t49.5 -23.5q39 -14 39 -53q0 -16 -15 -29t-38 -13q-55 0 -117 55t-122 150q-112 180 -217 445q-83 212 -235 243z" />
    <glyph glyph-name="Ugrave.swash" unicode="&#xe029;" horiz-adv-x="676" 
d="M262.5 659.5q33.5 -36.5 33.5 -80t-23.5 -88t-51 -80.5t-51 -86t-23.5 -97q0 -83 55 -124t138 -41q43 0 91.5 19.5t76.5 42.5q6 150 6 243.5t-4.5 182t-4.5 91.5q0 21 13.5 37.5t34.5 16.5t34.5 -16.5t13.5 -37.5q0 -3 -4.5 -91.5t-4.5 -195.5t4.5 -202t4.5 -111
t-13.5 -32t-34.5 -16t-34.5 16t-13.5 36v27q-95 -79 -199.5 -79t-173 54t-68.5 146q0 60 24.5 117t53.5 93q78 95 78 148q0 68 -71 68q-28 0 -45.5 -22t-17.5 -60q0 -13 -8.5 -22.5t-20.5 -9.5t-19.5 9.5t-7.5 22.5q0 67 42 112.5t99.5 45.5t91 -36.5zM398 762
q0 -12 -12 -12q-4 0 -12 5q-57 34 -135 48q-37 7 -37 40q0 15 11.5 25.5t26.5 10.5q47 0 150 -103q8 -8 8 -14z" />
    <glyph glyph-name="Uacute.swash" unicode="&#xe02a;" horiz-adv-x="676" 
d="M262.5 659.5q33.5 -36.5 33.5 -80t-23.5 -88t-51 -80.5t-51 -86t-23.5 -97q0 -83 55 -124t138 -41q43 0 91.5 19.5t76.5 42.5q6 150 6 243.5t-4.5 182t-4.5 91.5q0 21 13.5 37.5t34.5 16.5t34.5 -16.5t13.5 -37.5q0 -3 -4.5 -91.5t-4.5 -195.5t4.5 -202t4.5 -111
t-13.5 -32t-34.5 -16t-34.5 16t-13.5 36v27q-95 -79 -199.5 -79t-173 54t-68.5 146q0 60 24.5 117t53.5 93q78 95 78 148q0 68 -71 68q-28 0 -45.5 -22t-17.5 -60q0 -13 -8.5 -22.5t-20.5 -9.5t-19.5 9.5t-7.5 22.5q0 67 42 112.5t99.5 45.5t91 -36.5zM272 762q0 6 8 14
q103 103 150 103q15 0 26.5 -10.5t11.5 -25.5q0 -33 -37 -40q-78 -14 -135 -48q-8 -5 -12 -5q-12 0 -12 12z" />
    <glyph glyph-name="Ucircumflex.swash" unicode="&#xe02b;" horiz-adv-x="676" 
d="M262.5 659.5q33.5 -36.5 33.5 -80t-23.5 -88t-51 -80.5t-51 -86t-23.5 -97q0 -83 55 -124t138 -41q43 0 91.5 19.5t76.5 42.5q6 150 6 243.5t-4.5 182t-4.5 91.5q0 21 13.5 37.5t34.5 16.5t34.5 -16.5t13.5 -37.5q0 -3 -4.5 -91.5t-4.5 -195.5t4.5 -202t4.5 -111
t-13.5 -32t-34.5 -16t-34.5 16t-13.5 36v27q-95 -79 -199.5 -79t-173 54t-68.5 146q0 60 24.5 117t53.5 93q78 95 78 148q0 68 -71 68q-28 0 -45.5 -22t-17.5 -60q0 -13 -8.5 -22.5t-20.5 -9.5t-19.5 9.5t-7.5 22.5q0 67 42 112.5t99.5 45.5t91 -36.5zM455 776q6 -7 6 -16.5
t-9 -9.5q-3 0 -10 5q-52 40 -105 52q-53 -12 -105 -52q-7 -5 -10 -5q-9 0 -9 9t6 17q79 103 116.5 103t119.5 -103z" />
    <glyph glyph-name="Udieresis.swash" unicode="&#xe02c;" horiz-adv-x="676" 
d="M262.5 659.5q33.5 -36.5 33.5 -80t-23.5 -88t-51 -80.5t-51 -86t-23.5 -97q0 -83 55 -124t138 -41q43 0 91.5 19.5t76.5 42.5q6 150 6 243.5t-4.5 182t-4.5 91.5q0 21 13.5 37.5t34.5 16.5t34.5 -16.5t13.5 -37.5q0 -3 -4.5 -91.5t-4.5 -195.5t4.5 -202t4.5 -111
t-13.5 -32t-34.5 -16t-34.5 16t-13.5 36v27q-95 -79 -199.5 -79t-173 54t-68.5 146q0 60 24.5 117t53.5 93q78 95 78 148q0 68 -71 68q-28 0 -45.5 -22t-17.5 -60q0 -13 -8.5 -22.5t-20.5 -9.5t-19.5 9.5t-7.5 22.5q0 67 42 112.5t99.5 45.5t91 -36.5zM397.5 798.5
q-11.5 10.5 -11.5 31.5t14.5 36t34.5 15t32 -11t12 -32t-15 -35.5t-35 -14.5t-31.5 10.5zM207.5 798.5q-11.5 10.5 -11.5 31.5t14.5 36t34.5 15t32 -11t12 -32t-15 -35.5t-35 -14.5t-31.5 10.5z" />
    <glyph glyph-name="Igrave.swash" unicode="&#xe02d;" horiz-adv-x="494" 
d="M350 618q-6 -67 -6 -271.5t8 -281.5l56 5q16 0 28.5 -10t12.5 -28t-13 -28t-30 -10l-101 7l-101 -7q-17 0 -30 10t-13 28t12.5 28t28.5 10l56 -5q8 77 8 281.5t-8 280.5q-22 3 -60.5 3t-73 -18.5t-34.5 -50.5q0 -52 37 -52q15 0 24 -10t9 -25t-11 -24.5t-30 -9.5
q-35 0 -59.5 29.5t-24.5 73.5t26.5 77.5t71 48.5t84 21t98.5 6t96.5 -10t37.5 -39q0 -17 -12.5 -27t-28.5 -10zM353 762q0 -12 -12 -12q-4 0 -12 5q-57 34 -135 48q-37 7 -37 40q0 15 11.5 25.5t26.5 10.5q47 0 150 -103q8 -8 8 -14z" />
    <glyph glyph-name="Iacute.swash" unicode="&#xe02e;" horiz-adv-x="494" 
d="M237 762q0 6 8 14q103 103 150 103q15 0 26.5 -10.5t11.5 -25.5q0 -33 -37 -40q-78 -14 -135 -48q-8 -5 -12 -5q-12 0 -12 12zM202 70l56 -5q8 77 8 281.5t-8 280.5q-22 3 -60.5 3t-73 -18.5t-34.5 -50.5q0 -52 37 -52q15 0 24 -10t9 -25t-11 -24.5t-30 -9.5
q-35 0 -59.5 29.5t-24.5 73.5t26.5 77.5t70.5 48.5q81 27 161.5 27t118 -10t37.5 -39q0 -17 -12.5 -27t-28.5 -10l-58 8q-6 -67 -6 -271.5t8 -281.5l56 5q16 0 28.5 -10t12.5 -28t-13 -28t-30 -10l-101 7l-101 -7q-17 0 -30 10t-13 28t12.5 28t28.5 10z" />
    <glyph glyph-name="Itilde.swash" unicode="&#xe02f;" horiz-adv-x="508" 
d="M463 866q0 -32 -33 -72.5t-71 -40.5q-25 0 -57 22.5t-52.5 22.5t-32.5 -7t-15 -15q-8 -23 -17 -23q-17 0 -17 21.5t24.5 47t62 25.5t77.5 -15.5t57.5 -15.5t28.5 16.5t17 33t13 16.5q15 0 15 -16zM350 618q-6 -67 -6 -271.5t8 -281.5l56 5q16 0 28.5 -10t12.5 -28
t-13 -28t-30 -10l-101 7l-101 -7q-17 0 -30 10t-13 28t12.5 28t28.5 10l56 -5q8 77 8 281.5t-8 280.5q-22 3 -60.5 3t-73 -18.5t-34.5 -50.5q0 -52 37 -52q15 0 24 -10t9 -25t-11 -24.5t-30 -9.5q-35 0 -59.5 29.5t-24.5 73.5t26.5 77.5t71 48.5t84 21t98.5 6t96.5 -10
t37.5 -39q0 -17 -12.5 -27t-28.5 -10z" />
    <glyph glyph-name="Icircumflex.swash" unicode="&#xe030;" horiz-adv-x="494" 
d="M423 776q6 -7 6 -16.5t-9 -9.5q-3 0 -10 5q-52 40 -105 52q-53 -12 -105 -52q-7 -5 -10 -5q-9 0 -9 9t6 17q79 103 116.5 103t119.5 -103zM350 618q-6 -67 -6 -271.5t8 -281.5l56 5q16 0 28.5 -10t12.5 -28t-13 -28t-30 -10l-101 7l-101 -7q-17 0 -30 10t-13 28t12.5 28
t28.5 10l56 -5q8 77 8 281.5t-8 280.5q-22 3 -60.5 3t-73 -18.5t-34.5 -50.5q0 -52 37 -52q15 0 24 -10t9 -25t-11 -24.5t-30 -9.5q-35 0 -59.5 29.5t-24.5 73.5t26.5 77.5t71 48.5t84 21t98.5 6t96.5 -10t37.5 -39q0 -17 -12.5 -27t-28.5 -10z" />
    <glyph glyph-name="Idieresis.swash" unicode="&#xe031;" horiz-adv-x="494" 
d="M367.5 798.5q-11.5 10.5 -11.5 31.5t14.5 36t34.5 15t32 -11t12 -32t-15 -35.5t-35 -14.5t-31.5 10.5zM177.5 798.5q-11.5 10.5 -11.5 31.5t14.5 36t34.5 15t32 -11t12 -32t-15 -35.5t-35 -14.5t-31.5 10.5zM350 618q-6 -67 -6 -271.5t8 -281.5l56 5q16 0 28.5 -10
t12.5 -28t-13 -28t-30 -10l-101 7l-101 -7q-17 0 -30 10t-13 28t12.5 28t28.5 10l56 -5q8 77 8 281.5t-8 280.5q-22 3 -60.5 3t-73 -18.5t-34.5 -50.5q0 -52 37 -52q15 0 24 -10t9 -25t-11 -24.5t-30 -9.5q-35 0 -59.5 29.5t-24.5 73.5t26.5 77.5t71 48.5t84 21t98.5 6
t96.5 -10t37.5 -39q0 -17 -12.5 -27t-28.5 -10z" />
    <glyph glyph-name="AE.swash" unicode="&#xe032;" horiz-adv-x="963" 
d="M134 696l363 -6l372 6q16 0 28.5 -10.5t12.5 -28.5t-12.5 -28.5t-28.5 -10.5q-42 0 -146 7t-140 8q0 -12 -2 -45q-6 -97 -6 -183q20 -2 68 -4q27 57 80 92.5t100 35.5q60 0 60 -49q0 -16 -11.5 -27.5t-24 -11.5t-31 12t-45.5 12t-54 -18t-40 -46q40 0 88 3t58.5 3
t20.5 -10t10 -26t-10 -26.5t-26 -10.5l-139 5h-10q7 -39 37 -64.5t65 -25.5t65 21.5t33 21.5q14 0 14 -14q0 -10 -16.5 -28.5t-53 -36.5t-82.5 -18t-77.5 35.5t-31.5 79.5q0 10 2 28l-49 -3q0 -122 4.5 -191t4.5 -78l298 6q16 0 28.5 -10.5t12.5 -28.5t-12.5 -28.5
t-28.5 -10.5l-192 6q-40 0 -95 -3t-59 -3q-21 0 -34.5 16t-13.5 34.5t4 98.5t5 157l-158 5q-28 0 -160 -4q-20 -42 -53 -115q-97 -216 -192 -360q-77 -116 -116 -116q-17 0 -28 11.5t-11 31.5t21.5 47t54 58.5t85 104.5t100.5 168q8 15 81 169h-5q-16 0 -27.5 9.5
t-11.5 26.5t12 28t31.5 11t37.5 -1q90 184 168 258q-178 -14 -192.5 -14t-27 11t-12.5 27.5t12.5 28t27.5 11.5zM488 634l-12 1q-34 0 -69 -19.5t-59.5 -43.5t-52.5 -65q-64 -93 -80 -134q106 -2 118 -2t164 4q-1 77 -9 259z" />
    <glyph glyph-name="Agrave.swash" unicode="&#xe033;" horiz-adv-x="679" 
d="M352 690l237 6q18 0 29 -11t11 -28.5t-11.5 -27t-29.5 -9.5h-24q0 -160 13 -289t26 -199t13 -88.5t-11.5 -34t-30.5 -15.5t-33 14t-16 40l-18 252l-168 5q-28 0 -160 -4q-20 -42 -53 -115q-97 -216 -192 -360q-77 -116 -116 -116q-17 0 -28 11.5t-11 31.5t21.5 47
t54 58.5t85 104.5t100.5 168q8 15 81 169h-5q-16 0 -27.5 9.5t-11.5 26.5t12 28t31.5 11t37.5 -1q92 188 168 260q-179 -14 -193 -14t-26.5 10t-12.5 26.5t12.5 28t27.5 11.5zM459 633q-119 -15 -244 -260q106 -2 134.5 -2t152.5 4q-13 172 -13 257zM485 762q0 -12 -12 -12
q-4 0 -12 5q-57 34 -135 48q-37 7 -37 40q0 15 11.5 25.5t26.5 10.5q47 0 150 -103q8 -8 8 -14z" />
    <glyph glyph-name="Aacute.swash" unicode="&#xe034;" horiz-adv-x="679" 
d="M507 300l-168 5q-28 0 -160 -4q-20 -42 -53 -115q-97 -216 -192 -360q-77 -116 -116 -116q-17 0 -28 11.5t-11 31.5t21.5 47t54 58.5t85 104.5t100.5 168q8 15 81 169h-5q-16 0 -27.5 9.5t-11.5 26.5t12 28t31.5 11t37.5 -1q92 188 168 260q-178 -14 -192.5 -14t-27 10
t-12.5 26.5t12.5 28t27.5 11.5l218 -6l237 6q18 0 29 -11t11 -28.5t-11.5 -27t-29.5 -9.5h-24q0 -160 13 -289t26 -199t13 -88.5t-11.5 -34t-30.5 -15.5t-33 14t-16 40zM489 632l-30 1q-119 -15 -244 -260q106 -2 134.5 -2t152.5 4q-13 172 -13 257zM399 762q0 6 8 14
q103 103 150 103q15 0 26.5 -10.5t11.5 -25.5q0 -33 -37 -40q-78 -14 -135 -48q-8 -5 -12 -5q-12 0 -12 12z" />
    <glyph glyph-name="Acircumflex.swash" unicode="&#xe035;" horiz-adv-x="679" 
d="M352 690l237 6q18 0 29 -11t11 -28.5t-11.5 -27t-29.5 -9.5h-24q0 -160 13 -289t26 -199t13 -88.5t-11.5 -34t-30.5 -15.5t-33 14t-16 40l-18 252l-168 5q-28 0 -160 -4q-20 -42 -53 -115q-97 -216 -192 -360q-77 -116 -116 -116q-17 0 -28 11.5t-11 31.5t21.5 47
t54 58.5t85 104.5t100.5 168q8 15 81 169h-5q-16 0 -27.5 9.5t-11.5 26.5t12 28t31.5 11t37.5 -1q92 188 168 260q-179 -14 -193 -14t-26.5 10t-12.5 26.5t12.5 28t27.5 11.5zM459 633q-119 -15 -244 -260q106 -2 134.5 -2t152.5 4q-13 172 -13 257zM576 776q6 -7 6 -16.5
t-9 -9.5q-3 0 -10 5q-52 40 -105 52q-53 -12 -105 -52q-7 -5 -10 -5q-9 0 -9 9t6 17q79 103 116.5 103t119.5 -103z" />
    <glyph glyph-name="Atilde.swash" unicode="&#xe036;" horiz-adv-x="679" 
d="M352 690l237 6q18 0 29 -11t11 -28.5t-11.5 -27t-29.5 -9.5h-24q0 -160 13 -289t26 -199t13 -88.5t-11.5 -34t-30.5 -15.5t-33 14t-16 40l-18 252l-168 5q-28 0 -160 -4q-20 -42 -53 -115q-97 -216 -192 -360q-77 -116 -116 -116q-17 0 -28 11.5t-11 31.5t21.5 47
t54 58.5t85 104.5t100.5 168q8 15 81 169h-5q-16 0 -27.5 9.5t-11.5 26.5t12 28t31.5 11t37.5 -1q92 188 168 260q-179 -14 -193 -14t-26.5 10t-12.5 26.5t12.5 28t27.5 11.5zM459 633q-119 -15 -244 -260q106 -2 134.5 -2t152.5 4q-13 172 -13 257zM604 863
q0 -32 -33 -72.5t-71 -40.5q-24 0 -57 22.5t-53 22.5t-32 -7t-15 -16q-8 -22 -17 -22q-17 0 -17 21.5t24.5 47t62 25.5t77.5 -15.5t57.5 -15.5t28.5 16.5t17 33t13 16.5q15 0 15 -16z" />
    <glyph glyph-name="Adieresis.swash" unicode="&#xe037;" horiz-adv-x="679" 
d="M352 690l237 6q18 0 29 -11t11 -28.5t-11.5 -27t-29.5 -9.5h-24q0 -160 13 -289t26 -199t13 -88.5t-11.5 -34t-30.5 -15.5t-33 14t-16 40l-18 252l-168 5q-28 0 -160 -4q-20 -42 -53 -115q-97 -216 -192 -360q-77 -116 -116 -116q-17 0 -28 11.5t-11 31.5t21.5 47
t54 58.5t85 104.5t100.5 168q8 15 81 169h-5q-16 0 -27.5 9.5t-11.5 26.5t12 28t31.5 11t37.5 -1q92 188 168 260q-179 -14 -193 -14t-26.5 10t-12.5 26.5t12.5 28t27.5 11.5zM459 633q-119 -15 -244 -260q106 -2 134.5 -2t152.5 4q-13 172 -13 257zM496.5 798.5
q-11.5 10.5 -11.5 31.5t14.5 36t34.5 15t32 -11t12 -32t-15 -35.5t-35 -14.5t-31.5 10.5zM306.5 798.5q-11.5 10.5 -11.5 31.5t14.5 36t34.5 15t32 -11t12 -32t-15 -35.5t-35 -14.5t-31.5 10.5z" />
    <glyph glyph-name="Aring.swash" unicode="&#xe038;" horiz-adv-x="679" 
d="M352 690l237 6q18 0 29 -11t11 -28.5t-11.5 -27t-29.5 -9.5h-24q0 -160 13 -289t26 -199t13 -88.5t-11.5 -34t-30.5 -15.5t-33 14t-16 40l-18 252l-168 5q-28 0 -160 -4q-20 -42 -53 -115q-97 -216 -192 -360q-77 -116 -116 -116q-17 0 -28 11.5t-11 31.5t21.5 47
t54 58.5t85 104.5t100.5 168q8 15 81 169h-5q-16 0 -27.5 9.5t-11.5 26.5t12 28t31.5 11t37.5 -1q92 188 168 260q-179 -14 -193 -14t-26.5 10t-12.5 26.5t12.5 28t27.5 11.5zM459 633q-119 -15 -244 -260q106 -2 134.5 -2t152.5 4q-13 172 -13 257zM426.5 767
q-18.5 17 -18.5 44.5t23 52t50.5 24.5t46 -17t18.5 -44.5t-23 -52t-50.5 -24.5t-46 17zM452 843q-10 -10 -10 -24.5t10 -24.5t24.5 -10t24.5 10t10 24.5t-10 24.5t-24.5 10t-24.5 -10z" />
    <glyph glyph-name="Ccedilla.swash" unicode="&#xe039;" horiz-adv-x="656" 
d="M352 -130l-52 -7q-9 0 -15 6t-6 18.5t28.5 35t28.5 46.5t-30 26q-122 10 -201.5 102t-79.5 237t100.5 253.5t250.5 108.5q105 0 172.5 -54.5t67.5 -137.5q0 -66 -40.5 -109.5t-85.5 -43.5q-24 0 -35.5 13t-11.5 30t13.5 30.5t30.5 13.5l42 -9q32 0 32 46.5t-59.5 99.5
t-150.5 53q-114 0 -179 -71.5t-65 -194t72 -211.5t184 -89t200 106q19 24 29 24t15.5 -6.5t5.5 -15.5q0 -40 -75.5 -103.5t-180.5 -71.5q8 -12 8 -31.5t-13 -29.5q37 0 60.5 -21.5t23.5 -58.5q0 -60 -42 -102t-78 -42q-18 0 -30.5 12t-12.5 31t14 34t27 15t23 -7t21 -7
t22 13.5t11 30t-10.5 27.5t-28.5 11z" />
    <glyph glyph-name="Oslash.swash" unicode="&#xe03a;" 
d="M332 -6q-60 0 -113 21q-32 -61 -59.5 -61t-27.5 29q0 22 27 65q-62 44 -98 114t-36 152q0 166 100 274t255 108q58 0 113 -22q32 62 60 62t28 -29q0 -20 -27 -66q62 -44 97.5 -114t35.5 -151q0 -166 -100 -274t-255 -108zM312 295q-20 20 -20 49t19 49.5t45 20.5
q9 0 18 -3q30 61 85 189q-54 28 -112 28q-110 0 -175 -71.5t-65 -200.5q0 -66 26 -128.5t73 -104.5q59 90 106 172zM365 62q109 0 174.5 71.5t65.5 200.5q0 65 -26 127.5t-73 104.5q-57 -85 -105 -172q19 -19 19 -48t-18.5 -49.5t-45.5 -20.5q-7 0 -17 2q-23 -45 -85 -189
q51 -27 111 -27z" />
    <glyph glyph-name="Yacute.swash" unicode="&#xe03b;" horiz-adv-x="629" 
d="M-216 -199l53 -8q60 0 154.5 77.5t179.5 181.5t136 197q-94 139 -157.5 219.5t-79.5 101.5q-40 51 -40 82q0 44 44 44q19 0 38 -18.5t33 -42.5t40 -70q81 -143 168 -245q67 109 139 276q25 59 26 61q20 39 47 39q34 0 34 -39q0 -24 -26 -74t-87 -153.5t-101 -177.5
q-134 -225 -279 -376q-75 -78 -152.5 -122t-146.5 -44q-33 0 -53 13.5t-20 32.5t12.5 32t37.5 13zM251 763q0 6 8 14q103 103 150 103q15 0 26.5 -10.5t11.5 -25.5q0 -33 -37 -40q-78 -14 -135 -48q-8 -5 -12 -5q-12 0 -12 12z" />
    <glyph glyph-name="Ydieresis.swash" unicode="&#xe03c;" horiz-adv-x="629" 
d="M-216 -199l53 -8q60 0 154.5 77.5t179.5 181.5t136 197q-94 139 -157.5 219.5t-79.5 101.5q-40 51 -40 82q0 44 44 44q19 0 38 -18.5t33 -42.5t40 -70q81 -143 168 -245q67 109 139 276q25 59 26 61q20 39 47 39q34 0 34 -39q0 -24 -26 -74t-87 -153.5t-101 -177.5
q-134 -225 -279 -376q-75 -78 -152.5 -122t-146.5 -44q-33 0 -53 13.5t-20 32.5t12.5 32t37.5 13zM379.5 798.5q-11.5 10.5 -11.5 31.5t14.5 36t34.5 15t32 -11t12 -32t-15 -35.5t-35 -14.5t-31.5 10.5zM189.5 798.5q-11.5 10.5 -11.5 31.5t14.5 36t34.5 15t32 -11t12 -32
t-15 -35.5t-35 -14.5t-31.5 10.5z" />
    <glyph glyph-name="IJ.swash" unicode="&#xe03d;" horiz-adv-x="593" 
d="M487 690l160 6q21 0 34 -16.5t13 -41t-5 -144t-5 -215t-9.5 -171.5t-34 -151t-63 -128t-100 -86t-140 -33t-138 35.5t-59.5 81.5q0 21 12 34.5t29.5 13.5t32 -10t31.5 -27q66 -68 146 -68q55 0 98 42t69 114q51 144 51 342q0 281 -8 357q-22 0 -64.5 -6t-66 -6t-52.5 1
l-47 3q-19 1 -21 1q-6 -67 -6 -271.5t8 -281.5l56 5q16 0 28.5 -10t12.5 -28t-13 -28t-30 -10l-101 7l-101 -7q-17 0 -30 10t-13 28t12.5 28t28.5 10l56 -5q8 77 8 281.5t-8 280.5q-22 3 -60.5 3t-73 -18.5t-34.5 -50.5q0 -52 37 -52q15 0 24 -10t9 -25t-11 -24.5t-30 -9.5
q-35 0 -59.5 29.5t-24.5 68.5t19 69t46.5 46.5t65.5 26.5q61 16 135 16z" />
    <glyph glyph-name="Lslash.swash" unicode="&#xe03e;" horiz-adv-x="483" 
d="M147 350q78 65 92 65q25 0 25 -24q0 -14 -19 -27t-31 -20q-52 -30 -67 -40q0 -33 9 -238h35q92 0 132 3.5t62 21.5t22 43.5t-20.5 44t-44.5 18.5q-50 0 -50 39q0 16 16 28t39 12q53 0 89.5 -34.5t36.5 -81.5q0 -62 -52 -114t-116 -52l-75 4l-118 -4q-23 0 -37.5 15
t-14.5 36t3 85.5t5 116.5q-10 -7 -25 -19.5t-23.5 -19t-18.5 -14.5q-18 -13 -28 -13q-25 0 -25 24q0 13 18.5 26.5t31 21t34.5 20t37 21.5v54q0 114 -4.5 202.5t-4.5 91.5q0 21 13.5 37.5t34.5 16.5t34.5 -16.5t13.5 -37.5q0 -3 -4.5 -91t-4.5 -201z" />
    <glyph glyph-name="Ldotaccent.swash" unicode="&#xe03f;" horiz-adv-x="483" 
d="M297.5 360.5q-12.5 11.5 -12.5 34.5t15.5 39t37.5 16t35 -12t13 -35t-16 -38.5t-38 -15.5t-34.5 11.5zM230 -2l-118 -4q-23 0 -37.5 15t-14.5 32t4.5 112t4.5 202t-4.5 195.5t-4.5 91.5q0 21 13.5 37.5t34.5 16.5t34.5 -16.5t13.5 -37.5q0 -3 -4.5 -91.5t-4.5 -179
t1.5 -145.5t4.5 -103t3 -57h35q92 0 132 3.5t62 21.5t22 43.5t-20.5 44t-44.5 18.5q-50 0 -50 39q0 16 16 28t39 12q53 0 89.5 -34.5t36.5 -81.5q0 -62 -52 -114t-116 -52z" />
    <glyph glyph-name="Scaron.swash" unicode="&#xe040;" horiz-adv-x="568" 
d="M429 879q9 0 9 -9t-6 -17q-68 -86 -107 -101q-8 -2 -12 -2q-35 0 -117 103q-6 8 -6 17t9 9q3 0 10 -5q52 -40 105 -52q53 12 105 52q7 5 10 5zM395 567q-57 69 -117 69q-47 0 -79 -32t-32 -76t25.5 -73t63.5 -48t82 -44.5t82 -53t63.5 -75t25.5 -116.5t-27 -137t-71 -117
t-101 -84q-114 -70 -237 -70q-83 0 -144.5 41t-61.5 93t49 52q19 0 77 -53q22 -20 60.5 -36.5t86 -16.5t99.5 18t97.5 51.5t73.5 89t28 124t-36 116.5t-87 75t-102 52.5t-87 65.5t-36 97.5t25.5 102.5t64.5 68q74 46 147 46t119 -34t46 -78q0 -26 -13 -39.5t-30 -13.5
t-28.5 9.5t-25.5 26.5z" />
    <glyph glyph-name="Zcaron.swash" unicode="&#xe041;" horiz-adv-x="612" 
d="M426 879q9 0 9 -9t-6 -17q-68 -86 -107 -101q-8 -2 -12 -2q-35 0 -117 103q-6 8 -6 17t9 9q3 0 10 -5q52 -40 105 -52q53 12 105 52q7 5 10 5zM316 690l202 6q16 0 28.5 -10.5t12.5 -27.5t-5.5 -36t-20.5 -44.5t-26.5 -44t-38.5 -53t-39.5 -51t-47 -58.5t-45.5 -56
q-127 -145 -204 -271q81 -43 178.5 -76.5t153.5 -33.5t84.5 19t28.5 47q0 45 -55 55q-20 3 -34.5 15.5t-14.5 33t15 33t36 12.5q41 0 74.5 -33.5t33.5 -87.5q0 -70 -56 -119t-138 -49t-191.5 44t-167.5 91q-29 23 -29 51q0 19 17.5 46.5t29 44t35.5 46.5t40 49
q69 85 101 125q156 192 182 262q-110 5 -139 5l-202 -6q-16 0 -28.5 10.5t-12.5 28.5t12.5 28.5t28.5 10.5z" />
    <glyph glyph-name="fi" unicode="&#xfb01;" horiz-adv-x="573" 
d="M89.5 -58q9.5 76 9.5 175t-9 270h-31q-39 0 -39 34t39 34q20 0 30 -1q4 124 94.5 210t181.5 86q36 0 59.5 -13t23.5 -37.5t-13.5 -38t-26.5 -13.5t-45 11.5t-63 11.5q-62 0 -106 -54.5t-44 -130.5v-36h32l247 6q22 0 32.5 -18t10.5 -45t-7 -96.5t-7 -144.5
q0 -30 12.5 -57.5t12.5 -50t-12.5 -36.5t-34 -14t-32.5 24t-11 55q0 163 -5 229.5t-5 80.5q-192 9 -207.5 9t-25.5 -1q2 -109 9.5 -247.5t7.5 -271.5q0 -162 -63 -162q-44 0 -44 57q0 20 10 59.5t19.5 115.5z" />
    <glyph glyph-name="fl" unicode="&#xfb02;" horiz-adv-x="586" 
d="M89.5 -58q9.5 76 9.5 175t-9 270h-31q-39 0 -39 34t39 34q20 0 30 -1q4 124 94.5 210t181.5 86q55 0 96 -21t41 -58q0 -59 -4 -156q-11 -226 -11 -363q0 -30 19.5 -57.5t19.5 -49.5t-15 -36.5t-34 -14.5q-50 0 -50 79q0 353 -13 583q-41 15 -106.5 15t-111.5 -54
t-46 -131v-36h32l138 6q39 0 39 -37t-39 -37l-138 10q-22 0 -32 -1q2 -109 9.5 -247.5t7.5 -271.5q0 -162 -63 -162q-44 0 -44 57q0 20 10 59.5t19.5 115.5z" />
    </font>
</defs>
</svg>
