<?xml version="1.0" encoding="iso-8859-1"?>
<!-- Generator: Adobe Illustrator 16.0.0, SVG Export Plug-In . SVG Version: 6.00 Build 0)  -->
<!DOCTYPE svg PUBLIC "-//W3C//DTD SVG 1.1//EN" "http://www.w3.org/Graphics/SVG/1.1/DTD/svg11.dtd">
<svg version="1.1" id="Capa_1" xmlns="http://www.w3.org/2000/svg" xmlns:xlink="http://www.w3.org/1999/xlink" x="0px" y="0px"
	 width="95.884px" height="95.884px" viewBox="0 0 95.884 95.884" style="enable-background:new 0 0 95.884 95.884;"
	 xml:space="preserve">
<g>
	<g>
		<path d="M88.652,55.989c-0.271-0.48-0.381-0.434-0.227,0.097c0.479,1.645,1.005,3.281,1.325,4.958
			c0.936,4.913-1.613,7.934-6.611,8.065c-5.343,0.143-10.276-1.564-15.202-3.311c-1.059-0.375-2.1-0.801-3.121-1.352
			c-0.485-0.262-0.417-0.475,0.134-0.431c1.166,0.095,2.333,0.215,3.488,0.14c2.285-0.148,4.645-0.219,6.817-0.852
			c5.976-1.74,11.787-8.252,7.608-16.719c-0.632-1.281-1.432-2.479-2.323-3.621c-0.341-0.435-0.47-0.36-0.262,0.152
			c0.363,0.894,0.736,1.786,0.995,2.709c1.01,3.595-0.633,5.927-4.336,6.272c-2.452,0.23-6.092-0.162-8.333-0.847
			c-0.528-0.161-0.918-0.386-0.892-0.441c0.02-0.045,0.041-0.084,0.064-0.086c5.135-0.456,7.547-4.446,6.765-9.917
			c-0.658-4.596-3.485-7.417-7.68-9.138c-0.511-0.21-0.719,0.036-0.443,0.515c0.438,0.76,0.849,1.455,1.147,2.194
			c1.084,2.681,0.188,4.673-2.614,5.242c-1.896,0.385-3.862,0.426-5.841,0.401c-0.552-0.007-0.594-0.206-0.094-0.441
			c1.293-0.606,2.492-1.242,3.165-2.651c1.411-2.956,0.857-6.192-1.954-8.193c-5.655-4.026-11.83-6.944-18.861-7.657
			c-0.605-0.061-1.222-0.028-1.833-0.008c-0.17,0.005-0.339,0.04-0.606,0.094c-0.332,0.068-0.36,0.495-0.08,0.971
			c0.916,1.555,1.677,3.095,2.82,4.261c5.881,5.999,11.023,12.488,14.237,20.324c2.479,6.043,3.398,12.219,1.038,18.548
			c-1.83,4.907-5.16,8.58-9.334,11.561c-0.45,0.32-0.556,0.208-0.236-0.242c5.715-8.033,9.492-16.592,6.792-26.772
			c-1.933-7.282-6.821-12.417-12.623-16.788c-0.441-0.332-1.114-0.273-1.532,0.088c-1.937,1.669-3.703,1.973-5.527,0.978
			c-0.485-0.265-0.428-0.728,0.082-0.94c0.688-0.287,1.375-0.577,1.973-0.994c0.486-0.339,1.016-1.215,0.89-1.674
			c-0.149-0.546-0.929-1.179-1.529-1.296c-2.706-0.526-5.272-1.334-7.622-2.817c-0.312-0.197-1.039-0.156-1.318,0.078
			c-3.666,3.084-7.313,6.193-10.887,9.383c-0.532,0.475-0.84,1.373-0.954,2.12C13.98,45.371,10.903,51.531,4.197,55.5
			c-1.645,0.973-2.448,2.671-2.973,4.482c-0.378,1.307-0.882,2.579-1.186,3.9c-0.112,0.488,0.028,1.189,0.327,1.589
			c1.406,1.873,2.901,3.681,4.381,5.499c0.381,0.468,0.756,0.984,1.245,1.311c1.407,0.942,1.812,0.745,2.382-0.827
			c0.994-2.744,2.925-4.674,5.463-6.021c0.184-0.097,0.393-0.146,0.61-0.182c0.348-0.059,0.668-0.03,0.715,0.058
			c0.046,0.088-0.101,0.343-0.328,0.572c-0.138,0.139-0.271,0.281-0.389,0.435c-1.307,1.709-2.696,3.366-3.864,5.167
			c-0.863,1.33-0.566,2.603,0.85,3.156c2.168,0.847,4.442,1.526,6.732,1.924c1.633,0.284,3.072-1.234,2.831-2.939
			c-0.511-3.606,1.445-5.27,4.367-6.645c2.262-1.064,4.365-2.467,6.511-3.776c0.471-0.288,0.889-0.674,0.927-0.866
			c0.039-0.193-0.262-0.65-0.671-1.021c-1.407-1.272-2.836-2.566-4.419-3.999c-0.409-0.371-1.029-0.329-1.385,0.095
			c-0.913,1.085-1.835,2.181-2.758,3.277c-0.356,0.423-0.707,0.318-0.661-0.232c0.156-1.894,1.271-4.244,2.486-5.698
			c0.354-0.424,1.016-0.407,1.412-0.022c1.204,1.172,2.398,2.354,3.639,3.481c1.077,0.979,2.224,1.883,3.375,2.775
			c4.351,3.378,8.933,1.848,11.782-1.46c3.413-3.959,3.995-9.246,1.35-12.875c-1.148-1.575-2.663-2.643-4.531-3.19
			c-2.431-0.712-4.638,0.085-6.058,2.159c-1.597,2.333-1.68,5.386-0.197,7.255c1.058,1.334,2.41,1.65,3.867,0.907
			c0.899-0.459,1.254-0.924,1.167-1.514c-0.081-0.546-0.767-0.662-1.208-0.331c-0.473,0.355-0.928,0.672-1.212,0.56
			c-0.841-0.333-1.739-1.167-2.073-2.007c-0.798-2.006,0.312-4.535,2.056-5.315c1.592-0.711,3.771,0.116,4.966,1.945
			c1.539,2.358,1.536,4.884,0.179,7.222c-1.142,1.969-3.148,2.972-5.431,2.482c-3.091-0.665-5.632-2.309-6.538-5.544
			c-0.872-3.117,0.316-5.84,2.548-7.918c4.858-4.524,11.761-2.894,15.009,3.369c2.295,4.426,2.18,8.938,0.664,13.543
			c-3.969,12.067-12.274,19.666-24.259,23.367c-1.37,0.423-2.418,1.034-3.21,1.93c-0.366,0.413-0.151,0.745,0.397,0.676l36.076-4.62
			c0.549-0.07,1.428-0.023,1.964,0.11c2.282,0.568,4.295,1.132,6.342,1.489c7.11,1.24,13.466-0.363,18.755-5.424
			c5.522-5.284,6.812-11.933,3.78-19.113C89.606,57.767,89.146,56.866,88.652,55.989z M6.12,65.908
			c-0.328,0.151-0.94,0.197-1.127,0.007c-0.207-0.214-0.147-0.767-0.079-1.149c0.143-0.811,0.509-1.606,0.521-2.412
			C5.446,61.609,5.659,61.05,6.06,60.6c0.367-0.413,1.085-0.294,1.373,0.177C8.646,62.765,8.141,64.98,6.12,65.908z M26.512,42.917
			c-1.048,1.548-2.895,2.555-4.514,2.335c-0.449-0.061-1.249-0.554-1.221-0.648c0.284-0.945,0.561-1.961,1.146-2.721
			c0.359-0.466,1.275-0.761,1.901-0.703c0.738,0.069,1.46,0.31,2.212,0.559C26.562,41.914,26.822,42.46,26.512,42.917z"/>
		<path d="M88.024,35.997c-1.911-2.041-3.989-3.925-6.018-5.856c-0.4-0.381-0.792-0.625-0.876-0.541s0.072,0.536,0.335,1.023
			c1.592,2.961,2.578,6.085,2.522,9.529c-0.009,0.578,0.479,1.198,0.823,1.743c3.042,4.806,5.844,9.735,7.899,15.061
			c0.062,0.16,0.168,0.305,0.284,0.444c0.188,0.226,0.564,0.256,0.837,0.068c0.171-0.117,0.328-0.243,0.438-0.402
			c1.72-2.484,1.893-5.271,1.317-8.104C94.542,43.799,91.519,39.729,88.024,35.997z"/>
		<path d="M23.07,15.656c1.002,1.172,1.763,2.63,2.329,4.078c1.142,2.925,2.689,5.32,5.887,6.339
			c2.431,0.774,4.838,1.591,7.531,1.681c0.552,0.018,0.876-0.432,0.712-0.959c-0.931-2.99-2.16-5.769-4.653-7.596
			c-4.617-3.383-9.804-5.715-15.52-7.582c-0.525-0.171-0.622-0.003-0.208,0.362C20.609,13.268,21.96,14.358,23.07,15.656z"/>
		<path d="M64.655,26.294c0.167,0.296,0.514,0.528,0.827,0.697c5.515,2.972,10.33,6.835,14.623,11.377
			c0.172,0.182,0.37,0.34,0.605,0.47c0.372,0.206,0.621-0.161,0.488-0.697c-1.049-4.268-2.77-8.209-5.757-11.461
			c-3.594-3.912-8.285-5.599-13.216-6.459c-0.544-0.095-0.773,0.233-0.509,0.718C62.724,22.792,63.673,24.552,64.655,26.294z"/>
		<path d="M45.117,18.518c5.015,1.753,9.968,3.484,14.982,5.237c0.521,0.182,0.873-0.117,0.682-0.635
			c-1.845-5.015-10.768-8.066-15.759-5.459C44.532,17.917,44.595,18.335,45.117,18.518z"/>
		<path d="M32.709,15.958c1.409,0.367,2.76,1.222,3.946,2.112c0.804,0.603,1.564,0.725,2.462,0.645
			c0.55-0.049,0.67-0.46,0.271-0.842c-3.688-3.527-7.618-6.396-12.291-8.173c-0.516-0.196-0.634-0.013-0.298,0.425
			C28.484,12.322,29.511,15.125,32.709,15.958z"/>
	</g>
</g>
<g>
</g>
<g>
</g>
<g>
</g>
<g>
</g>
<g>
</g>
<g>
</g>
<g>
</g>
<g>
</g>
<g>
</g>
<g>
</g>
<g>
</g>
<g>
</g>
<g>
</g>
<g>
</g>
<g>
</g>
</svg>
